<mxfile host="app.diagrams.net" modified="2023-02-22T13:05:46.691Z" agent="5.0 (Windows NT 10.0; Win64; x64) AppleWebKit/537.36 (KHTML, like Gecko) Chrome/109.0.0.0 Safari/537.36" etag="AK49-ZX0DMpWlDGLCqKS" version="20.8.10" type="github">
  <diagram name="Page-1" id="pjEL5yjJMIPhdPIVPEvn">
    <mxGraphModel dx="794" dy="413" grid="1" gridSize="10" guides="1" tooltips="1" connect="1" arrows="1" fold="1" page="1" pageScale="1" pageWidth="850" pageHeight="1100" math="0" shadow="0">
      <root>
        <mxCell id="0" />
        <mxCell id="1" parent="0" />
        <mxCell id="GTF7l4me_JHWdmGWO52q-1" value="" style="rounded=0;whiteSpace=wrap;html=1;strokeColor=none;" vertex="1" parent="1">
          <mxGeometry x="40" y="40" width="760" height="380" as="geometry" />
        </mxCell>
        <mxCell id="GTF7l4me_JHWdmGWO52q-2" value="" style="shape=image;verticalLabelPosition=bottom;labelBackgroundColor=default;verticalAlign=top;aspect=fixed;imageAspect=0;image=data:image/png,iVBORw0KGgoAAAANSUhEUgAAASQAAAIICAYAAADHf5M8AAAAAXNSR0IArs4c6QAAIABJREFUeF7sXQWUVMcSvbPuxi7uLgkE+0ACBHeCO4QAwd3d3V2CB4jh7hCCu5OggeAEWHeZ+efWzBtmF0+AzC7d58DuzrzXcrv6dlV1d7XOYDAYoJJCQCGgELACBHSKkKygF1QVFAIKAUFAEZISBIWAQsBqEIhHSLTedDrdSyv3Jt8Ly+l0sLQEtb+1vC3zSfi79r5lJbRn+DMkJAS3b99GZGQkMmTIgGTJkkl5lmW+qg1Wg/x/WBGtb94UJ0v8Ld9503ws39eanTCfN63LfwibKhqQcR0cHIxDhw7h4cOHiIuLBZ0+b9J/NjY28Pb2RokSJeDn5yd5JeSGF2pIgYGBuHr1KgoWLAhbW1vpiHPnzgkBeHl5vbZjbt26hStXrkiBmTJlQvbs2aURDx48QNasWSVvEkmKFCnMed29exf8V7Ro0efyv3PnDvbt24elS5fi5MmTQkZ6vR52dnbIlSsXatWqhTp16iBbtmywt7d/bf3UA0YEiOPvv/+Ov/76SwSFWGp9opENcb5w4YL0jbOzM/Lly2eeBJhHREQEjh8/Dh8fH+TJkwcUOi3dvHkT169fl8/4bsaMGZE6dWpcu3ZN8itSpIh8TqGkfJw5c0byfxMZU3343yAQFRWFEydOIG1qb6TxjYatczro7IxKwYuS5aRFWXry5InIS+nSpeHq6vrcKy8kpIMHD6Jly5YYP368DHammjVrolevXihevPgrNSiSWZs2bfD5558LmZFIxo0bB39/fyxfvhwTJkxAx44dhTz69esnz7DSnTt3Bss9e/as5K81hI0fOXIkduzYgXTp0qFUqVLInDmzkBGFmo07ffo0Pv30UwwePBjVq1eX71R6PQLbtm3DrFmz8Nlnn4GTSPLkyTF06FAhGfZFlSpVRPgGDBiAYsWKyURCQvnuu+/MmS9atAijRo2S/l64cKEQjJb4+ZIlS1CuXDlQLkhMlKk5c+bIv5UrV6JixYoizD/88IPIxdatWyUvlawTgcDAIFy7dhV50gdA93AG7FI2hV3yBm+kIWktOnr0KNKmTYs0adI8994LCenAgQOYPn26kMjcuXORI0cOVKtWDX369BFhoRBScP73v/+hdevWIsia+sXCKMA7d+4UASRZpEyZEtRyvv/+e0yePBn9+/eX2ZDPUIA5Y/bu3Vtm04sXL5rJiIw6f/58Ia5mzZoJaYWHh8u7cXFxonlx1t2zZ4/k2bBhQyE8R0dH6+xNK6oV+4vkExQUhDFjxgjZtG/fXiaNR48eYfjw4dJfly9fRkBAgJDT+vXr0aNHD9y7d0/6lu9UrlwZDRo0EEKjXFgS0ogRI6SvFi9ejJiYGHm2b9++QnLLli2TSW727NkygVSoUAGnTp3Cpk2bFCFZkZwkrAonlhs3biBXimvA48WwT14P9mlav1WN2c9MtJI4fi3dNi8lpB9//FEEhsRDDaVx48YiTFTDSTLURii8JI1u3bqZVXUSBrWUnDlz4quvvhIVnIRFoqIQkpBIdtSEvvnmGxHSBQsWyPvTpk0TQrJMJB6+y/wGDRqEFStWiKnB51n2F198IbMtSYiqPhup0qsR0ATg/PnzQjA0o0kc9evXF9J3cHCIlwH7dObMmUIWjRo1QocOHaQPmjdvLmYXNdcNGzZIP2omGDMgIVFW+DkJidoQtSZqXzQT2X98hj8pa5xg2MdKQ7JeCX5XhBQdHS1jmEqNpbn3SkIieUyZMkXMK5IJNaTNmzcLOVHNp2+BBMEZlrOcJuis9N69e8WcoqCT0GJjY+MREgcBZ2Cq+TQBatSoIVqQpYbEbtEqy3LbtWsnfg42wsnJSfwf27dvl/qQ5JSp9naCTOw1TZcEQdKgZkSH4/3795E+fXoRGpIPSYV+RPp65s2bh19//RUzZswQDZoa6q5du6QP6DPUEsmGfVy2bFnxHVBFHzJkiGix1MIoA5whmRe/o8bVtWtXmWRUsk4E3hUhsXUeHh4iA29MSNQ8aE6NHj1aNBoK4O7du8Un8OWXXwrhrFu3TghHIwM+R+HjM9RuOOP5+vqKD4KkNmnSJBFcmgBU12kOcobkbMt3EmpIGsnRr3Hs2DFxvlLl56xNBzjLyp8/P1KlSmWdPWjFtaKZRLKgb5ArJuwT9g0FhL6lqVOnCmER87p164qmWr58eTG1SUKrVq0S7YiLFXyf2hXNa03ASEj0IZLk3N3dhaw8PT3FPH/69KmYejTJqUVxwuFz1LaVhmS9QkNCun7tOvJkCAQezYR9iiaw9av3Vj4kjl9OepyEEi5CvVJD4uxHQqBQUoPhTEYnNEmmSZMmImxVq1YVVV9bXaGjmao5HdtU38eOHYs1a9bILKsREomNwk+GpLedxEdnOWfGhITErrG0MTm70vdBjYskRi2O+bzJsqP1dvN/UzNixz6mf5CkQFON/h4KC/+mObZ27VpZ4GA/c+WU/U+Ti4LECYd9Q+c0zTm+S+LR+owTFbVomv+a4PF5atokJJpv7ENOSuxTOrUVIf03svCmpVIR4Ep3wQL54WIfCNgnh87mzXy27Hv+o1VDBYUTXcL0QkKiOv3nn3+KBqLtE6BgkjToD6Kj8/Dhw2I+cWsA/TeWpEEHNgWUAssZlQL3+PFjcYYVLlxYTC162blUTNOuUKFCYoJx1YfE96pEYtN8WZzBs2TJ8qZYqudMCGh9xSVcaj0UMGqY1FBJRgn3dHFGo3ZKHx1XXV1cXOJNAJQV9jnlQ9smwjJo4tEhTm3acjuAtnWDExDliKYhy2VdLLceqA6zTgS4gMEFKE9PL9jYvHzfYsLaUyaoYXFrySeffPJCJSJR7tTmQCLBkdRUUggoBD48AqGhoQgLC4u3Afp1teBER8WDZvvLUqIkpNc1XH2vEFAIJE4EFCElzn5TtVYIJEkEFCElyW5VjVIIJE4EFCElzn5TtVYIJEkEFCElyW5VjVIIJE4EFCElzn5TtVYIJEkEFCElyW5VjVIIJE4EFCElzn5TtVYIJEkEFCElyW5VjVIIJE4EFCElzn5TtVYIJEkEFCElyW5VjVIIJE4EFCElzn5TtVYIJEkE3i0hGQyIiwxG6ImfYO+bGc7ZvwRsHfGKi0ySJKhJuVGWUR2Scjs/9rY962cDDLHRiA28j/ArexF54yhi/W8DcdGwcfODY7p8cM5VFg6pcsPGiaFndHjz8//Po/xOCclg0CPs7HoEbp8E+1Q54FNtCOySZYBO9+wmio+9oxNj+9/kqqrE2C5V55cjoF2yYYgJR9i5jQg9tRb6yGAgLgY6OyfoHJwRF/wIOkcXISGnLMXgXqQJ7P3iR4B8W4zfGSGxsqGnViPs/FbEBt2Hzs4RDqlywaNYMzhlLva29VLPWyECjEV1//4D6PVxSJ06DVxcnt0wYoXVVVX6FwgYJyEg6OAihJ5YCcc0eeCavxb8NwyFS77qcMpUGE/XDoBzztKwdfdD2PFfYJ8+P7zLdxfr6J+mf01IwqQMvLRnGsJOrXlhPZLVHg2nbCWN6pyy3/5pX73z93r06IkbN/7E3Lmz5XojTROaOHESVq9egwkTxuPLL0tKdM6tW7dh7NhxePjwEWN4Slji7t27oX79erCzs5Xve/bsLWFqf/hhuQRz0/qasbqrVq0uoW6HDh2CunXrYMyYsVi4cJFozyISBmPzhg0fiqZNm7zztqoM3xIBgwERV/fh6frBQjre5Xsi5MTPCL+4Hd7VBsExfUE8Xd0T+sgw+FQfgqh7FxCwbRxcc5eHZ/ke0Nk7Cy+87Xh/J4QUdec0nvzUDTDoX9hq+xTZkaz2GNh5phRSUum/RUAjnq5du+H69Rv47rt5SJs2jVSK340fPwErV67ClCmThZDWrFmLYcOGyc0v5cuXkz7cv/8Ajh8/gS5dOsr1Sdu370D37t3h7OyCcePGSIhiYzLgt9/2o02bdhJdkHGzSWKjRo3Gjz/+hDJlyiBVyhQwiFwYULlSJRQsVPC/BUiVjrhwfzz+sRPiQp/CrXB92PtkRODeGbCxd5a/bZw8EXnzGCIu/wr3Yk1h55la3DXRD6/At/4UOKbNa5pl3m68/3tCggFP1vRF1LVDL+1GOru8KvWGc44yb82YSjbeDwIknm7duj9HSCxt3LjxWLVqNSZPnoQCBfKjTJlySJUqhVzQkCNHdqnQ7dt30KlTF9y+/Rd+/vlnXL9+Dd2794SjoxNq1aqB/v37SUx1alcjRozExo2bEB0dJYRUr15djB49RrSq6dOnonDhQqaJimrS2wnw+0FH5Rp+eQ8CtoyFISaCV/+Y5haTGqszuq7lL7lHW+MeHehHdv2sBrwr9pH33rY3/zUhsU4PZlVHXKj/S3tRZ2MLzzKd4Frw7W4nUGLxfhHo2rW73CqzYMF8pEmT2kJDmig3ipCQSFwtWrTEt9+2woAB/ePFxublDJMnT8Xw4cPg5eWJbt16yP1qFy6cl8sDMmfOJCZhly5d5SYRXpnFZzUNyUhI00yE9H7bqnJ/OwSC9n+HkKM/wK/JLNh5pUXkzaNCUB4lv4Vr3upCRPqwp/DfMhoOqXPBo0QbGKLDEbhnBmKe3kKqtiuNZvhbMtK/JiQK7L1JpcX7/qrk8WU7eBRr+vY1fDsc1dNvgQA1pLVr18ltI5a2fkxMLJIl8xFCevToIQYMGCQaD0nJMm3evAWdOnUWUy1LlkxCSH379hFt6NtvW8pFobzsYcb0mRgxcgRatmyFESOemWz0IfGWEu1GEsZbnjdvLvLm/fQtWqEefR8IBOycjLAz65Cm117obB0QdmkHAraMhnelfnDNazTH40KfwH/DENj5pIN35f4w6PUI3DEB4b/vQpqee/5Rtf41IbHUexNLwfAaQvIs1Q7uRZv9o0qql94PAiSkI0eOolGjhvECr+/atVuuPCIhBQUFCtH06NEdnTt3ileRX35ZiX79+qNfv75yx1b37j0wceIEXLp0CVeuXMWCBd+hX9/+8PL2RI0aNdGoUeN4GhL9VDTfMmTIKPnSOc5bavz8fN9Pg1Wub4xA4J7pCD25Gqk6b4StizdowvlvHA6vCj3h9pnxZiAS0tN1A2GfIhu8K/SS/UoB28cj8s8jSN1l6xuXZfngOyMkfWzMSzdA0sz0Kt0e7kWpIalkLQiQkK5du475878zm2ysG31ImlM7Xbq0KF26LKpXryarbq6u3HcCxMXp0aNHL7m6as6c2XLvHglpxozpci3WgAEDMW7cWAwdMhyDhwyQbQJ16tR9gclm6UOyFmRUPUJOrkTwvrmw98sCnYMT9OGBiHl8C3beaWDrzglDJ0pIzOMbsHF0g513Whj0cYh9ehv2yTPBt+HMf+Qv/teEZNDH4v7kcq/VkDy+bCMaktokaT3C/ipC0pzaXGVr0qSZXPg4cuRwVKlSWfyYvMGYppyPtw+2bN2EvXt/NRNSiRLF0ahRU1y7dlXu35o5czoCA4JQu06deIS0ZfNWTJ4yEYVkVc3oGbW1tTPf7WY9SH18NYl6cAlPf+kFfVQIdLb20OlsoY+LMi7l2zlABxvo9bEy7m3sHACdDcgF0MfCs3w3uBeoKyunb+lCwr8iJG6GDDn+E0KOLBf78WV7Duhnsk+eGV7lusEpA1dUVLIGBN6EkEqV+lJW0nr16iumWI7s2cVXycsheS/emDGjkC9fPtCfpGlIlStXwrx534mm1bFje7mq+/IfV54jJPqQuJ/JydHRuJJjAHr07I7atWtZAzwfdR04ngO2jULk9SPwKNMRrrkq4PHqnjBEhMD7q6GyDSD44HyEX9yJZLXHQufoisBtY6GPCIJv/amwdaMW9fZe7X9MSCwq8vJe+G+fAENUqLnsV1XBzic9UrZaDtjYftSdbS2NP3z4CIKDg0GNxtXV1Vyts2fPCeEUK1ZUbrTlhMKbafk8by3V6w3IkCG9fM+VNGo3t2/fFn/U558XQ7p06fDo0d9y9TqfyZAhg9xYunPnLtGGMmfOjDNnzuCP3/8wiqzFxshChQsje/Zs1gLRR1sP9nlcyCP4bxyGuJAncC/SCLbuyeG/aQQ8y3SAc9Yv8PeytnBIkwcuuSsi9MQvsrrmWbqD/M2V9X+S/jEhsTB9VBj0kSHxyzXvSXi2+9byATuPFM/2NfyTGqt3/jMEKKTcdS0ar719vC0A/1mlVMHvBQE5gaEDYp/cQsC2sYj++wYc/DIiNuAebDxTySbnyGuHYeedCoaocMSF+cOjXFe45fsKNnaO/7hO/4qQWKpB2/Nv/AP+6wci4voh2Dh7wKf6MDikLxDP2f32VuU/bpt68R0joE76v2NArTg7ra9FUwp6gODDSxF16zjiIkJhiIuSbZE6G3voHFxk2d+jRCs4pjducP03p8P+MSG9yDQjOcUG3EXE77tg650GzllKyKngtz3PYsX9pKqmEPgoEHhu8tHrEf33FUQ/vAp96GMY4mJF6bD3zQiHNJ9C5+BmIqK3dWMnMLAMWpyBjwJm1UiFgELAmhH4xxqSNTdK1U0hoBBInAgoQkqc/aZqrRBIkggoQkqS3aoapRBInAgoQkqc/aZqrRBIkggoQkqS3aoapRBInAgoQkqc/aZqrRBIkggoQkqS3aoapRBInAgoQkqc/aZqrRBIkgjoAgJCTIFyk2T7VKMUAgqBRISALjqKp+hUUggoBBQC/z0CipD++z5QNVAIKARMCChCUqKgEFAIWA0CipCspitURRQCCgFFSEoGFAIKAatBQBGS1XSFqohCQCGgCEnJgEJAIWA1CChCspquUBVRCCgEFCElARkwhhtlQ3QSgP+/DBmsMwAGqcvbX4Hz1l0hO+gYjP7fhU1963LVC+8NAUVI7w3aD5OxJRlpJTK2+Ye/TMFEQCQklm+6fYbk9N7qIkV+AOL7MF2pSmF3qp3aiV0ONJXEYLw51KQtGO/F+vCaA+sQffcsDLFRcMr8xXsFN+rOKdjYO8E+ZZ73Wo7K/MMhYNWEFPPoD0Rc2AjXIs1h657iuQHGi+zCT/8CO7+scM5d5SVmwscxg0bfO4eI8+uhj440cpKdI+yTZ4NzniqwcfYWU478ZKQoy8vzCJsBBo3I5E/N7DOeKrLUt+S7ZxnFM8zk6dhIhB76DnHhAfCsPNSivGf5JjQr+Z6NUa96JvlSX0tCfb4f/Vd3go17CnhVHPSfkO+HG6YfT0lWSkhG4Yu4tg/BmwbCvVRnuBRo8JzQhV/YiJB9M+CcpzI8yvQ09Vp8wTUOIJNHIwn7GiKv7Ebw7olwK9NFCCMu9Akizq2FXbLM8Kg8FLaOnsJDMuyNdpSJTJ7HS+MFIR4TkRnBtfw7wXcmRU2wjo2RcuTOd7nBS+y4Z6abzvAsW8traw068T/xDXN5Rr6Ezmyamd7V6fD0x1aw9UoFryqjPp4Rm8RbapWEpM2gkdd+RdCWIbD1SoNkjRfLpXRa4h3iwXsnIerqXjjnqw3X/zVF5NXdcMxUHHbeGZ49FxWCiEub4JSlJGw90ybZ7tQIya/dZuhs7YQIYv3/QsCqzvAo3weOmb+AwaBH7NObiLp1DHGBd2Hr5An7DIVhnyoPbGydjNd+GuIQ++Qmov86griQv6Fz8oBjxqKwT54dOj6jM0AfFYroO2cQc+8cDLGRsPPLIs/YuqcCDHpE/XUUhphIOGYtiYjft8HOKy3s03xmcrbr5J2wkyvgkK4g7FN/Bn24P6LvnkHM/QvQGfSwS5UHDukKwMbVT94xxMUg9sl1RN06DH3IE9h6p4Njps8RuHU47LzTwKuqIqSkIthWSUgauJHX9on6b4iOgGvR5nDJW8tsllGAw44slMHjmKMs3Iq2QND2UbBx94Vn+QHm/gm/uBGRF7fCs8pQ2HqkSir99lw74hOSvXyvj4nAk0V14V6mB5yzl0XU3TMIPThPCIIkEhd0HzEPLsEpdxW45q8nhBV17TeEHJoDhzSfwc4ng2haUTcOwLVwEzjnqQ7Y2CBk33TE/n1VCEVn54jo++cAfRzcy/eDrYsPQg7MgyEyCB4V+iP0yCLE+d+CR6UhsLF3lv6LunEQQVuGwqvudLkvPuTXaYgL94djxiJCaNF/nYCNmx/cSnSAnWcqRN06ipD9c2DnkxH2KXNCH/YUccEPEP3gEhzS5lUaUhKSaqsnpPDTq2CfOheirh2AT5OFsHF0FxMgZM9E0Ziibx2HfZp88CjdHWGnf0HYsaVI1nwFbF39ZID5L28Gxywl4VastQympJo0QvJtvxk2NnbQRwYh9NAC0Tw8q42CXbJM8P+lHex9MsCtRCfonNyB2ChEXNyMsJM/wafJIiAuWkjdzjcj3Iq1hY2jizinwy9uEtLxKNERsf63Ebx7EjzKdodD+v9Bp7MRYgvePQF2KbLD7fM2CD0wT8r3rDRYyCX418nwrj0Ftu6pSZMI3DoE+jB/eNeZjrBTPyHy/Hp41Z0BW0/jhKEPfoigbSPglKsSnPN+hYCf28DWJyPci3eAzjWZ1Dvy8g6E7JsJh8xFFCElIaG2fkI6s0pMjoDVXeH2RWtxXseFPUHALx3hXr4Pwg7Mg13KXOJDig2+B/8VreFSpAncCjYGV2GCNgyAd4OZsPPN/p/uz3nfMqMRks7OXq45NkSFwcYtGTzK9YZjxs8RF/YYTxc3gHPhxnDM8D+TsxqIC7iNsIPz4V6hL2wc3BG0fQS860wT85buHc23rG35Cdk7Scw19zLdRTsyeqWAiLOrEPvkTyRrvBShB+dCHxkMj4qDYIjwF5KzT/Mp3P7XArH+txC4aQBcS7SDY/rCCN4xRkw41/81M9eJE0nkmVXQOXvDpUB9BPzUDh4V+sIx65dmfyDiYvBkaSPYp8oFz8ojk3Tfvm/Zsab8EwUheVYZhsgruxBz7zw8yvdD6OH50IcHygxMH4lGSBwcQTvHIM7/L3jWGI/QA3PkOa8aE4x+2o/Aqe351SjEPb2FsBM/GMko0xfCKrGBt/H0+6aw880qRCVeZnEWG1eynAs3EbMrePto0ZZsXLxNTmgj4Qh8BiBw+whE/3kIdqk/gY2sjRl93fxO5+IJj3J9EXrAREiVBst74SeWI+LiJvg0WYqoq7sRfm49fBp9J34mklXs42uw881sLMRik6d9hkKwT5sfQWt6wqPSYJNJZ1x9I2k9Xcb2ZIZX1ZFqlc2aWOVf1CXREJKQzdahcMxWBmFHl8Cz6nA4pC2AgJ/bmgiph8mRewsBa7rDuUA9RF7cAo8K/WCf6hPjgPoP9uX8i755q1ctfUh0Aofsm4qYBxfhU28WbFySGf1Ji+vB5bPacM5Xx7xxMS7oHmIeXYFTroqIC7yH4G0j4FqsJZyylbLQov5CzMMrQggRf2xDxLmN8Kw+ArZu3IphgCEuGjH3L0Ln4AqHtJ+ZCYkTBhOd6/4/t4F7qS6Ivn0atj7p4Va4OQyGWIT8OgUxT27Au8Z444RBhqMv69Yx2CbLJP6up0sbwaVgI7gWqA/obERrE01rVRfYp8+nTLa3khTrfjiRENJQmbFDjyxGxNnVsPXLjGT15ohgPiOknqb9M0DAxn6IfXBJHLdeNadCZ6PtcvnwGwU/VPcbCWkC/NptlVU2rqb5/9AKzp/VhnvJjkLHoUcXIOrafrhXGAD7FDmhjwhEyK9ToY+gP2cmaAZx60D0nVPi86FTWx8VjMC1vWHjkRwe5fsDhjg8XdECTlxIKNJC9jtF3zwsjmn38r3gkKZAPB+SUenRI2jzYMT534TO0RXuZXrBPnkOgYYrckGbhxgXLfI3AGxsEXl5J8IOL4R72V7ipwo5OAdRV/bAs+JAWX3Thz4xrrDeOg7HrF8oQvpQQvYByrFqQoq6eURUfffSPWDr5is7gEP2TYMb/Q8ZisoSddD6vrBNng3un7cxz+jRN/YjcMsQuJfrDZfc1UxHGZIuGcnAvnFAiMCn2fcyqJlCTyxFzM1j8CjbG3a+WaCPCZfVqpg7J4Xg9dFhsHXyhnvpbuL0JsPTP0ethf4gnbMnDJEhsHFPLosGXOXilozoOyfFYW6Ii4SNgyv0EcFwzlUBLgUbS7lhx5dBHxUCj1LdTGYYEH3/rKysOWT8H9xLdoIN90WZzL3wixsQfmol6P9i3Q1REXDJW8OoydnaIi4iEKH7Z4uD3sbZA4a4ODhmKoaYh5dg55MeHmX6fICh8oGLMOhNtnDSltuEqFoxIRlkBteHPIZtsozQ2TrAEBOB2IDbMrh0OlshGi4/c7XNzju9yb0KRN84iJAjC8W3wM+TdjJubNSHBwg29qnzGsc5/SyxkYh5dBl2Xulgw9Up2bQYhdgnN2SPEQc3iUjn5GXyJRn9SjDEIvrhZcHfxtEV9ilyQWfPfUpGBqHGow97LFsuqFXZeKaWvV/G4ypAXNBdIQ27ZBnNkwTNsJh7Z2Hjlhy2nqlldc4ycaUu9ukt8UfZeqWGrVd6Yxu0MqPDZS9SXNhT2bVv75tFfGWws5fNn9aezJ44fZzReSArvhrZ8NgPCYj+MVsYIgLFNHbIUBT2vple6R/TNv4mFf+oVRKS+cCoeROxcbcvfUCWP43Sqh1lMHYuvw/aPAg2rr5wL9EeOjttIFm7yP7T+hlFXTYyG5nIvFfrZSf/tWMk5hJNzm3zoVyLDI1dYMzz2RGS5y+qsVyNe1aXZ22yvNvGFJjguYFmrpep358NV/NWe+h4zEV706w8JA4tghNE6MHvYOOZBq756xjB4e50ripe3QMeleLWBn3IAwRuHwW3Yi3hkOF/r/R9UhMNP/ML7FLkhFOm4v9UiKzmPeslJG3pxjRDisMo3hEQ7eyTNkyMYhoX8hD+P7SWLQFOWUpYDdDvryLamQ2jdmM6FfLsvJrAkmDAaifyLc6kGXdpa49ahDExHx2JRw/x8jeGGzHuEXgW+sTy+IdGIcaflv/Hw8VyOU8jQVP9X0Q5xmMwiWP1VBTPmHAEbRokGr57iY4wSKwWIyJhZ1Yi+vYpeFUfDdgK33YkAAAgAElEQVTYA/pYo8ap9R2JWLQr+vX5uVHD5HnO4O0j4Zi5GJzzNzBqnmbt0/SOQW/83IY7+E2J/WqIM5r3ev2zk4QsT2fUdM2J5crn738fn1US0r8ZvJxp2LFuxdvAxol+isQxe/6bNqt3EwcC9OEFbRoMO99McCvZ0SiZ1JAQh/AzqxF9+yS8qo2GIToUERc2yMqnjXsqGKKCZXd7zIMLQkp2ftnhnKMcdI5uCD+zSjQkW4+UcsjcKXNx2GcsBsREIOrmYUTfOwtDRAhs3HzF72af+hPA1hH64AeIuLQZjtnLIeraXujsXcw+QZfP6pknHENUKMIvbYZDqk9gn/LT9z6ckhAhmebdmAijGWfnbAJPEVLiGK5Jv5aWhKStfEqr9XqEnVkliwWe1UZDH/JQ3A7c02WXIgfCz61B1NV9cMpRDrC1ReQfO4VY3D5vK4sZYYcXwM4vm5h3PHNo65tZ9uBF3zktm0ntPFPK1g7+7VrkazhmK43Yh78jaOtw2Hilgq1bcjnryLOEPHvo02Qx7EzRNWIeX0HwjrHwKNcH9ilzv/dOSnKEZETM0nxRhPTepUgV8EYIaIRE080hQ2EL8wmIeXhRFmpISHQ7BG4eBE8Skl9WBO0ZL7vo3Xnkx9YOUX8dk+ddi7aSc31BW0fAMcvnEhGD0h59/zwCuJm0fG84ZSsr74j/6tgyRF3fj2RfL0fMw98RvG04nPNUhEvBJmImkgifLGks+8VcPjP6uLg4pA+4A/cyPWHj5PFG7fw3DyUhQvo3MKh3FQLvHwGNkLgZ1S65tjPdWG4soy+4pRAfUlzwIwRtHmjSkHIi4vJ2hB/7XiJZOGUrKaua3OxKnw4jJZBYHDJ/Lvu4SEihx5bINgrf1utkdVSLXxX113EEbx8FrwazgMgQ0ZA8q4+GvV82U+MNsl2G5OVVeSgMNg7w/6kVXPLXhfMnNT6I80MR0vuXQ1WCQsBomVn4kGiymSN1GQyIOL0KUXdOxiMkd5pJqfLIYWJuVo366yTiAv4SIuKZTqfsZWQbhEZIrgUainOaETIizm2AX7tNonWZXFWIuXtWtCmv2hMlTxKSd71ZEnFBS9EP/0DwjpFChiS70MML4FVrMuwkUoZ5ffO99agipPcGrcpYIRAfgXhO7RIdn+2z0puc2haEFGjSkLijPebhBeP+LTc/2W/GCA2R1/bC9+sfhJCCtg6DY5Yv4FqggVBGFHft7xwP73ozZA+ZdvYv4sJ6hB1fjmTf/CQbX4OFkGZaEJJBgusFbuonETS4A5/HrtykrsZzi+/bAWL1hCR7U0wb/eIZ3cZPlcy/RwTiXSBgDt6vMP+nkOujw8VZzQPB3K1uVF1Ed0L4mZWI4iqb2WQbLI5kHoYO3jtRguJ5VhgAna29hNmJ/GMHfL/5ST4P3j5Cwsl4lOkt3+v1sfBf0QI2HingWaYXdG6+EvcqePd4OOcsD9di35qd2s8IyUQ31NYubUbIwXngCptv8x9g6/XhAhtaMSFZnDI3x1s1bVSRLS9J+ajsPxX5d/ee5abKhPuGnkW/VuT05ogboI+JROi+GRLx0rVQo2cTqkGPiD92yGFo91LdTMd3psPt829lR3rs0xvikObueJ1pL5FzwQZwYiQHhn65vBMRZ1bLHjQGMXTKXRn6gLsIYWzz4PvGfUtxsXDIUAQuhRrJdpiYx9cRemC2RFFgUD0jNxrDG8f8fVnMOVu/TPCuNubNm/gOnrRaQhLNSB9j3Iyls+XhCInzo9nDOhsHFQPnHQjAS7PQJkx9nOx9seE5M87lsTFmvZSzcVI5svA+oTTnzRDCQfdhY+coETEtNX6aYtSgbD3TAPpoxAXeh617SugcnESLiosMgj7kkRz94TK9jbsfdOAGSWN0BBKPPioctq4+sHHxlU2X1HAYqphhXngukZETeARLqCcmUqJu2nqlg87G3nzek+Mu5tHvCN45Vs5AOqTO90ENEaslJHYWg4VxExht45infyJwrTGQvwSQt3eWCIUu+WrBPk3+Z6eCXnRR4nM3WHwQ8UsShUhEx0vb4NN0iWzY8/+5PQzRYabzWLYSBcApdyU4ZS8Lnb2r+UycduTEfNTnP77AMkl0xodoBPdEnVuD6D8PwrPqKNgwsugHTFZNSAHrespmLLeiLRH9+KrcQOJS9GvYeaaRw6GMXBh96yic8lSFW5GvobN1NpnkMbJNn0cZbOxdATtty7wyMd5WthgTO+LsWvi23Sgn+J8srAfnfNXgmLm4RAKIe3ILEVd3iZ+BPgxGZTDuA9PLYWg6SWHvaIqnrfB/W/w/5PPiJImNQsC6XnJBgwujLcQ7BPz+a5O4CGn7KHhWHgJ7v6wm4omVnarBuybA7cuOcMlTDXHhgYi8uElOhtPE42l2pzxVYOfJeM5qQLytSD1HSIvqwb1kB7jkrWnKyoCYJzfB0LY2XmngVWGgmAOR1/cj5vZxMSMYodIpZwU4pP5U9cHbdsCHfN5ggD46BGEnlsM5VxVTtIYPO2YSFSGFbB8FDyEkbSMXnRpxCNoxSiIiMoAXg3nFPrwM1/99DZ2dA0IPzTdusy/ZGTZJ/uT/u5fehIT0dFF9uJVsb7oBRuMkAyIubkTI/lnwaboYsY+vyyqNa8HGctMLA65xZ7B3/dmwdfZ+95VUOb47BKjZxsXIat2HOEybsOKJmpC0fRHhF9cj8sIWIavADb3F7+RZeZg4XHlmh0uejrkqyj1kKr0dAi8kpBLtxXdnmaIfXEDgmm7wqDIUcQF35KYS7pORW0mCHyH83Fo4fVIV9hZ35r1dTdTTHwMCiZqQtJ2j4b9vQeTZ9fCoMhgx984g/NQq2KXMDceMxWCXLANsvdObl0s/hk59l218U0Ji9EbeDONRaZCsAoUcmCPXTjllLSUHPhlyA/bOymh+l52TBPNK5IRk7JGgXWOhD3sCz0pD5KZVbpHnAUNGk9SHPhant3PuyqYlzyTYi++xSW9GSAY5JR68ZxKSNV0s0SMZ2J8hZ2MfXTFG+UyWSS5+ZMhblRQCL0MgURIST0BrrjZu4vJf1UV8Rq756yPy5kGJ/cxBwRtvI2/8hsgLG4SsuOdCpbdD4HlCqifE4pKvpimWjwGG8Keyb4U7hL1rTZZrjXhMwiFNfiAmEgxhEbihn/j4eGmnSgqBJEFIwVuGwb1UZyEc7nqNvnsaEWdWiknmVW2kBJ4KWMUt+Qa5GMCGAazOrUHso2vwqDhAYjGr9HYIvGiVTa7Vzlle4kBzc1346Z/lJhDPGhNg55EC4efWIezECvHpMa4ONaWQfbPg9dUoubpKJYVAoiSkkN9mwM4nE5w/qSYXHTJQlM6BgddsYNDHyIoNDwE656lijp0dG3RXLknkrlbjLmJbCZ/gkL7Qc4HllVi8HoHwCxsRdW0fvGpOgiEmDEGbBhp39fLSBT1XYxzkSiOnnOVhy0D/Op1cox1+YQNi7pwyhmM1GOCQsYhpX0uC8Kivr4J64iNCwHpNNl7JE/4EOltH2Di6Q6+PEZKRE2zceW1rL3d88VYM4/6iZ/sluCmSgavkyIOjO2x4VudZZPmPqHv/TVON5wb1kSEwRIXAxoP7uPTQBz804s+ks5HrtHXOXuYbR7QSSVbUmrg5krfC0NH9Xywj/xsE1LsfHgHrJKSEgeUtAvxrEEkwee0GiueuyDZdCGAOWv/s1ooPD3FiLdEUdVOLrswY73IFksWNI6YrtI3kZDEhmEP5yxcfJI5OYkVZ1Ts+AtZJSFJH0x1h2vXKphsa5I4GnTG01auFXbtFw3h1UtK+SPt9iLXlTSEvwdocIOf5SDmWlyaZetN838j7qK3KM2kgYMWElDQAVq1QCCgE3hwBRUhvjpV6UiGgEHjPCChCes8Aq+wVAgqBN0dAEdKbY6WeVAgoBN4zAoqQ3jPAKnuFgELgzRFQhPTmWKknFQIKgfeMgCKk9wywyl4hoBB4cwQUIb05VurJJIwAoxNEXtychFuYOJqmCClx9JOq5XtGIOrmUQSuM14iodJ/h4AipP8Oe1WyQkAhkAABRUhKJBQCCgGrQUARktV0haqIQkAhoAhJyYBCQCFgNQgoQrKarlAVUQgoBBQhKRlQCCgErAYBRUhW0xWqIgoBhYAiJCUDCgGFgNUgoAjJarpCVUQhoBBQhKRkQCGgELAaBBQhWU1XqIooBBQCipCUDCgEFAJWg4AiJKvpClURhYBCQBGSkgGFgELAahBQhGQ1XaEqohBQCChCUjKgEFAIWA0CipCspitURRQCCgFFSEoGFAIKAatBQBGS1XSFqohCQCGgCEnJgEJAIWA1CChCspquUBVRCCgEFCEpGVAIKASsBgFFSFbTFaoiCgGFgCIkJQMKAYWA1SCgCMlqukJVRCGgENAZDAaDgkEhoBBQCFgDAoqQrKEXVB0UAgoBQUARkhIEhYBCwGoQUIRkNV2hKqIQUAgoQlIyoBBQCFgNAoqQrKYrVEUUAgoBRUhKBhQCCgGrQUARktV0haqIQkAhoAhJyYBCQCFgNQgoQrKarlAVUQgoBBQhKRlQCCgErAYBRUhW0xWqIgoBhYAiJCUDCgGFgNUgoAjJarpCVUQhoBBQhKRkQCGgELAaBN4ZITGKSVBQEHQ6HTw9PV/YwKioKMTExMDNze2DA8ByWf77Kluv1yMiIgJOTk6wtbX94O17XYFPnz6FjY0NvL29X/eo+l4h8J8h8M4IKS4uDr///rsMxmzZsuGPP/4AP7Ozs0OyZMmQIkUK3Lx5E48ePcLnn38uxKWFYtJ+508t8buEn2ufWT6j/Z4wv4SI3rt3Dzdu3ECJEiXkq1fl/bJyLOvHPB48eIDw8HBkzpwZoaGh0ma23cvLS/J/UT1f19MJy0hYl4TvJwxnZYmDZTtPnjwpffHZZ5+9tP2WeVvW4/bt29KetGnTxuu3hHWxxNSyb/mcZTteFoIrYdtfh5X6Pukh8M4IiUIWGRlpHoj79u1D8uTJ5e+HDx8iT548CA4Oxt27d1G2bFlER0fDxcUl3sANCwsTEnN1dZXZPDY2Vv7Z29uD3/FzS+2DZMDn3d3dnyO4hF31559/4tKlS6hWrZp8xfKZJzUmBwcHGTDUcpgny3N0dJQ8tc/4DuvLejGx3IsXL4KaR9GiRUX7On36NPLmzSt58jnmqw0yak8sk9/xWebPPJg/n+X3bIeWvyWZUfOk5qVhwnpoiZiz7vyO+fE7/s12kIBYDhPbqtWJ7/A5y2f4DuvAOvM94s768neSGXFn25ydnaXOfFbDPiHB83sSNOvM9jMv/s7EtvNvls96sDzmzfL5DrHX3kt6w0216HUIvDNCopBduHBBhD5Hjhw4ePCgzMbUFg4fPgw/Pz8RxL/++gs+Pj4yQCiI1JaY+G5gYKC8z0FL4X/y5IloXRwEfJfP58+fX/4mufB7CjwHHT8nYWmzMQeLRl58hoREAqlatSru3Lkjf2sDgfWlKXPs2DEZbDTv+FmqVKmkXiRSJmp6uXLlkkHDz06dOiXt8PX1RYYMGaROrBsHMv/xWWoV1DCuXbsm77EuJIJixYqJhsW6cADyef7U2sEBysF7/vx5wUUjMNajTJky5n49ceKE4EAy00ibvwcEBMgAz5kzJ7JkyYJDhw7J4M+UKZMQJ81qkgpxJdZsP5/h8ylTphRN9sqVK0ifPr1ofqx3unTpkD17dmkniVjDvkCBAmYiZJ21viSZsT/Z7v/973/S3suXLwvubA/rx7LZb2fOnDFPQMSM+PN9lT4uBN4bIf36668ygClUHBzUkDhwODiLFCkis+vRo0fx6aefCgncunULFGwORAo0CYwDi4MiX758ItQkAA4uCjTJhYOLg4zPZMyYUQiAKSQkRMxDmk8kCCZNQ+Jg5iDmgCSR3L9/X+rCAUBCYj4cLHyPz7BM/iSJMtH0ZJmss6YhkVw4uDnQSWIcxFevXhXSovbEfNkekpY2KIsXLy6///333/jkk09k4B4/flxw4oAkDiQrDmDiQhz5O0mHGqaW2BYObJI/60Bthm2gGUlc+B3x5ueWhMQyiS/JhnmzHzhxEAeNkFhewYIFpZ3EnP3A+r4Me9aZePK93LlzC9FwQiFWhQoVwm+//Sb4sd/8/f2F2Fhv9g3bzzqxvsScbU6TJs3HNRpVa99dxMiEGhJNNg4sakj8RxWdwkmTrUKFCjLgtm3bhqxZswohUAugtkTh5eDhT027oHCSkPg5SYTaBAmHg5wDhX/zcxIQEzUQDna+r5ksGiGVKlVKBp6Hh4fkyXL4k0TAd1g/mhLMi+9zAJJESS4kG2oIHMDUDjQt7csvv5T6cyBxxmddrl+/LgONxMPyOJhZXz5HEtE0BpInvyNZEDMOVhIXE31erA/z18qj+ZuQkNh+DTtiyoFNUmK9mQfLogZiSUgkZmJHQqJJSMKghsT2kQhILNTqChcuLAREwiA58XlOHmwLP0uIPdtNzKjpEXvmQW2Kfbhnzx4hPhI239u7d6/8TS2Q2hf7gHK0detWITStP9U4/XgQeG8aEk02CiW1JC1RsOlcJiExUfCo8dBU4azKgUOB5ECngFKgOag4EDRCYn6cealFceCR6EhOJA8Okpc5gTVCKleunBAH/Vssg/Vh3syThMTPOIhJHNRuOPg4QKl9sI4cuNQsmDg4+T5JR9OQSEisBwcm8yEBkkipcVGDY3uoPdG5zvJISNQSWAdqECQSjZBICmwnvycWxI8D+WWExLYTU42QSGYsi7iePXs2HiExDxISJwkSEp/R6kkioHalfc520owlcRIX1oNlsE0a9iRhkiZNPZZFoiFOJEISOPPfv3+/aJvUwlg39gllhJhwEuDvjx8/NuNMbUqljwuBd0ZI1HI4G3LW5ICiUFLwqB1piQOUsycHOhNJi0TCf3yXwkihpnlEXwZnVg5aDmQKNQcGNRs+zwHP56nhUPD5vOY4fVEXaqtsJA++x8HAd7VVQeZBItScxCSh1KlTy4DTfFX0s5BASR5M/Jz1Zh7UbDQzkW3mgKPJxbayPLZdc+5ycGs+Mppg1EqovZAQWCY1MeLA59hOakXadgJ+Tq1FSyQULT8NU9aR+ZAcONhJHiQY1pufk1iZB+vNOpMUWR9izb9ZBp9lX1JrITGxHmw/+5Rt0bBnf/AzDXutzixbWxzgT9aBZhoJkrhzAiB+LJckRew1xzv7lzKU0MH/cQ3Nj7O174yQNCcsYeTgotlEIbV0TGr7kCiMFHoOBD6r+WQokEzUevgehZv/LFdoOIgsn2e52vOvWiKnZsHySTzaihLzZl7aqg7/JiFxIGgrWSRajaSoEbB8y6V1akYcYNRgmL9GHMyLZbKt2gokCYnP8TvNUa+9yzLZfg5e1klLfIdYslz+01Yhte9ZPvPXfGX0wbAM5qHVgd/xOc3BrK2ysR2sM+vAZ7R6sgzLevI5vs+fbJ+28miJveXwYZ218tiPzI/5k6T5rrYXij4zan/UerV32EbLVUS1FeDjIqZ3RkgabC/aw/OiPTmWgzrh968TwjfdJ/SqOvE7y30zCZ990z1PWj4vE5vX7cd5XVst802YV8LvtLxetM/H8ruEv79oj9CrsGG5lmW8rg1a/tQmqSFRIyJxUpPUfE0J8XtVWz+uIfpxtfadE9LHBZ9q7dsgQE2J5idXXamB0TTTNLu3yUc9m3QRUISUdPvWKltmqfkoLcgqu+g/rZQipP8U/o+38Ff5+z5eVFTLFSEpGVAIKASsBgFFSFbTFaoiCgGFgCIkJQMKAYWA1SDwTgnpRUvBBhi4wG5ssIG/G9ObLBVrz2n+Bnn7BWFJ5GNTOSzpTethufXgZXWKtyRuUYaxKgY25FmdtMYlqONz/hILSJilwVjpN8bmZdJjzX6Z+HUzSHNfJgMarlpfmp8zYfUssIvVjKPXVuQ5B74mOwne5HM8QvT0yRNUrlLFfGD8tQUkkQfeKSFx0xt3QC//fpkcKOWmu4yZMqFR40YoXqIEXJydZddv/379ERoSEo84iOeAgQOQK3du2dB35PARLFm8WPatcJNf6TJl0LJVS6RJm1agP3/2LL7//nucOnkKLq4ucgK+abNmssuZnfr477+xZvUabNu+DUGBQUiRMiWqf1Ud1b/6Cp6eHli4YCFOnzql0aORMw2QneAdOnZEuvRpcfzYcSxftgznzp6Dt483KlaqhEaNGslGPraVO8eXLFosR1G4CZLntdq1b4fcefLIYBs9ajQu86S8MWtzKle+PBo2aijt4n6crVu2YtWqlXj892M5fFqnbh1Uq179rYWR7e7YoQMePXyEocOHyS5oa0ncBPtV9eqyEZL97OeX/KVV0wYvZYU77O/dvYvY2DikTJUSqdOkQXJfP9jYGsPAJLbEtjx96o/kKZJLXyckZTmInL8AIiIjsWrNatnh/jGld0pI3InbrUsXnD9/QcJr+Pr5Yt+v+2BrY4ORo0ehQsWKchykUoWKgnH6DBmedYjBgBEjRyBPnk/kzFPnTp1ktzYPjT54cB9nz55Drdq1MHjIENnh3fzrr4VoChUujMCAACGFJk2aoN+A/rLrd9rUqVj2/TLkzpUL2XLkwPnz53D92jW0btMGvfv0wZTJk3H40OF4fU3yINl8t3ABHB0c0aplSyFVHrPgwOAZrvbt26Nb9+64c+c2+vTpg5MnTqJM2TJCoieOn5BdyD/98rMc0WjcsJHUi8dK3Ezn31hg5cqV0Ozrr6V9q1etxpjRo2UXNQ8a/3X7NgL8/dG3X19827r1W8tirRo1ce/+fcyaPUvOj1lDIsGQXAp8lh9FixbB5KlTkCpV6lcSEjdRLpw/H3t270FAYKA8y13ihQoXQvPmzVGqdGmrjMz5skZpJDtyxAj8/ONPaNuhPbp07arZDubX+NysGTMRHBKMNm3byrnIjym9U0LatXMX+vXpA59kyfDDjz/A2cUFq1auxOiRowTc7j16ICQkWAipcJEiMugsj5bwgCY3zM2YPh1r16xFjRo10KJlS3mnTOmyyJ07F6ZMm4r9v+2XQdyiZQu0bdcOwUHBaNmihZDb+g0bROvo3Kkjrl27ji1bt8DbxwdHDh9Gj27dkC5devzw808wmIKMsbOpvfBsVsN69UWTGzdhPH75+WfMmD4DPXv1RP0GDXDr5i0hSR4F2bFzp5w7GzxoELJmy4phw4fL8YjOHTuJ1jV3/nfgId5GDRqKhjd85AjZkawlN1c3eHh6yCDt2aMn9v/2G5YsXYrMWTLjyKHDGDVyJJL5+uLnlb9I5ABLE4Z58MwZtTf/AH8JM8KDutq5LxISD+VOmzFdzEAO7FSpU6NE8RJwdDIGnWPiTHzwwEFcvXpFZuoyZcvKQVhqltQkw8MizDGUipcoLphLfKd0aRGn1+PGtWs4fuKEHBHJ9+mn+KxAAXOgO5YRHBKCPbt24cnTp8iXNy+yZsuGQgUKmghpqmiyL0ucBNq1aSvl/69IEdSvXw8Ojo7YvnUbNm7cKMQ9dtxYFCxUSLDhP57p4+TAfi1QsADyfPIJbBmVgdr0+fO4fu269JWzkzNOHD8GV3d3FCtaDH4p/KCDMXopj+icO3tWzvpxYilRoiSS+SaLF2SPB6B5RtHby0sw08LS8Jzevl9/ldAtnGgpB5w4WX+eLSQmtB6GDR6Cw0eOoGy5cqharSpKly4tWrnIocnUZ8SGyIhIlC1XVo46UfvmWb/z585LH3Ky51m/17k9EiORvVNCOnTwILp36y6Dac26NbCztcOmjRvRt09fdO3WDR06dhBthoRUomRJtO/QXjQfmlAULnaupV+HHcTO4AAsX6Ys/le0CCZNmYJrV67IIdBin38uBztJQE0aN8bfj/7G9p075OxZz+49pBP3HzoAR0cnnD55Em1atxFh/uGnH+PtEGY5E8ZPwNIli9Gnb19806IFdu/eLeUy9Ac7n9rft61aISw0DPsPHTSaYSYBYnkkl47tO+DCpYv46ccfUaBAQTRq2FAOpY4YNQK2tnYy2BktIHPWrELE9+/dQ51atZEpc2b8RJI0GBATHY3q1aoLQc6cNQtfFP8inlwdOHAAbb5tLQTIc18cvLVq1cTI0aPlDBgJiYLPXdA8BKs36BEbE4vy5ctj1pzZclaOA6Vrl64ygGxtbWRA5siVU5j5yuU/cOrsWSG1Vi1aCgEzAgHPnU2dNg0lSpbAsmXLMGnCRKkDgdDH6VGnbl0MGjJYzHIe5KUcXLl8GXZ2trDR2aBxkyZYunSpHDaeMnUKUr6CkDZv3owunTrLYCWxWsZB79+vH65cvoJ69evJREH5mDd3HhYuWCCasZBtXBwaNGiAIcOHCUly8lq0YCGyZsuO4OAgiVgQGxMj7oHJUycje/YcgveggYOwd88e2NkbI2amSJ4Ca9auFfOKxN6tS1eZYIghv2cfso+oIZ8/dw61a9WWaBF6k8sgLjYWrm5uGD9hAipUrIAffvgBw4YMNR/qJtn8smplvDArlIGqlatIH32/fJlEmpg4YYJo+9q5QE8PD8ycPRtFihZJjJzzyjq/U0LiDDN29BisXr1aNAQK3bp165ApQwaMGTcWWbNnF2ddpYoVYW9njzDTQVDGGsqSNauo8pyFNef1zVs3MXH8BJkZoqOjMHDgINSoVdPsI+eDJLCjh4+gVatW+OKLLzBt5gw42Ntj7dq1GDdmrEQB+Cz/Zzh08BAe3L+PCZMm4cvSpeKpyvfu3kO9unXFJJi/cIHMaJaJZdDP06tnT1SqVAmTp02N54Tu1rkLbvz5p5ysb9yoEXr36wtbG1shJAZto8ZIoomKjISdvT06d+mMJk2bCuFVrlgJVatVw8TJk8x5fvN1c4mWMGbsGPlO0+Ko8dSrU1eIlv4y+ogWLVooDuJ+/fvJzElCOnfunPhq6tarK9rjqlWrcPPPPzFl6lR8VbMGZs2YgZkzZ4mWUr16dTg5O8tA5KCib10zsoEAACAASURBVOa0BSHdf/AAWbNkkXAirb79VrTVFt+0EDOUJOPm7oa1a9aIz4/mct26dTFy+AjBn+FKqEVwcG1Yv94c6eF1hEQiZAypkaNGoXbd2kKYTC86/0jy6tu7N9Klz4DatWuJ9rZ18xbx77Vr1w49evXE2DFjsGjhIjF/SGKp06TG1i1bcOjQYbRp/S369u8PTqacsOj/a9e+PY4dPSqTUtkyZdCxcychEmou9erVQ7EvPsfVK1exeNEiIYzpM2cgMiJCCImTQuUqlVGkWDGcPnESmzZtkol2157dEi116JAhOHrkqJAYndYcJ5aXYpCQqlWpgpDgECxdvky0p9JflhLfaffu3cExsWbVatG4x0+ckOS0pHdKSMHBIZg4YbzYyOx8zg6crTlwRowaKQ468SFVrIioyCj06dcXGdKnx65du8SXQnNp/oL5RsEDZ+vL6NOrt2hDJIt+/fujZq2a5tCzfI6Cx5krMCgII0YMR/kKFRAbF4e1q9dg4vjx8nvq1KnEB0S/0JBhw1CtunGQa4mCNXHCRNRvUB9Dhw0zmz+aSkyVv3uXroiJi8OECRNQtBjDpxhXipgoiA8fPBAzpWnjxujRu5eYniQk+pUYe6hBwwbiqBw3dqyQFf1MFOIK5cqjTr26GDtunKzYcehxQDKIG31qNWvVMteTwkrf2bGjx1CxciXUrFkTPt7e0saMGTKKeVG7Zi2ZzSdMmojKlSuLFkMTmFpE7dq10btvH3Tt3EUGPDWar02+LMZdavlNCwQGBuDMuXOCF+tBbeLHn38STZTaBt/dsWMHatepI74wnc4GZ8+ekUUCmpcLFi3Ety1bicaxYdNGMSmpTXBxYOSIkW+kIVWpVFlCp0yYOFEG7osOBmugNP+6uZhHEydNRKXKlUX72LptKwb06w8/Xz/BecF387Fo0SJ8VeMr0VbYjt8vXULjRo1lAqRpfPTIEbRt0xYpU6RA8xYtkDNnDuj1Bjg5G2OBU/vlhMtJgq4Iaj/jxo6TSWj4iBGiedeuVUsmAhJ/xkwZBcOePXqIeb3311/lsyGDB+OHFT+gY6dO6NGzxwu1hSqVKwuJL1u+XAiJFgXP/NHvWKCA0fS3t3cwLlokxiXHV+hI75SQ1q9bj2FDhyJbtqyYNWeOkAhnIqrCjRo3Rv8B/eWzR4/+ho1OJ6owfR+02zt26Cjmx28H9gv4dHXExRmD7nOw16ldR4R70uRJ4o9gIlH16N4dFy9cFGd1tx7d4WBnJ45hCldoSDB+XrkSHh7uOHP6DDp16CirNBw0jFrIRMHv3au3zJA7d+0UTc1y2wDNjw7t2+Phg4fiA6Pfys50zZFsNdDZyIohTba+Jif3jJkzUbFSRdEI6OymUGlmB/FZsXyF+Lq8vL1Qo1p1fFGiOPiOpgE0qFdfSIUaI80WS+2AQt6nZy9jSFqG2nVxRseOHUXjoikhTu179zBr9mz8r4jRqb182XLRErgS2at3L3Tt2hUXzl/Alq1bkSv3s7C/JCSSCwlJTNSWrYw+s107zSJEsqCPRS4DsLcTM48kwL6jCbl+4wZx5qfPkB4bN20ya3c0T0t8UdxMSFz15GDStB9LGW3auIloluMmjMNXX9Uwm8bm7R8GvXkryZfFSwiRz/tunphgxJCLFyQbmjiLFi8SbW3xosVo3bq1aHFMrE/DBg3FR7N521aZHJYsWYI5M2chTh8HJ0cnFPviC0yYNAG/X/odrVt9K+FhJBSOadmU5iIJf+DAgShQsKAQEvuLRMrJgWQ+aMBACZq3dt060dSHDB6CH1asQMdOHdGjZ88XDk2abLQaaLJRTrds2iwTWUAgDyU74dO8nwoJJtTkXzHOE81X75SQZs6ciZnTZwjYXbp1ExAiwyOQ99NPxZyaNGWyqLS7d+2S1ayixYoJIZ04flwGCf0su3bvwqYNG3D58h+o37ARcubIKX6Q+nXr4cHDh5g2baqsrHFGp7P8j99/R42aNTFg0EBzTB9qTRzUFI7ps2aKKRQdEwMKLwWWfgnGmaaA01Tp1auXDJQ5c+eaSYHf0W8yasRI3Ll9G02bNZU2UfPhd+fOnZV6li5bTtrGxGV+blWgI5xqP300YeHhsh2Aq24cuPSBkLi3bt8GD3cPtPjmGxHczVu3SDiOG9dv4OtmzeTZJd8vNZqwJl8VNQ2SHDUiapoHftsvznc6lkeNHo0qVasIIdH/M9NilW0FCWnsWFmZGjpsKLp07oLjx46JtlCnTm3obGxw+6/botE9efw3TlNDuntPVhlZJ9ZNSxyYdDZTsyLpMlEzpilH0qUPhSYd27R3369Gp7zegE2bNqJb127xCIn1Jp4J77FjmwYOGCiaLFdVNd8iJ6eVP/8sTuUSX5ZE8eIlZOGA5E3/GIPvEatdO3fKJMOtGj/++COWLF4iGlLbtm1FK2eiudywfgOp85bt2xASHCyrtiQjmsubNmzE4UOHRNZ69e2DDm3bCeFT8xQfUkwMHj58JKT3yaefiCuiVs1aog3TlKJ8CyENHCjmPn1RJKRhQ4dhxfLlaN+hg0wOL0qWPiQ6yRnIjvLAyXHb1m0yfqiRrV2/Tplsr6Ja+ipGDBsuYLHjPdzdsXv3HkyfNg3169cXE4GD6uumzUQz4Z4dmnY7d+wUM4B7fLh/ZsK48ViwYIE4Yrknh8u+JAYOajpW/f2fivrPDqLa2qhJY9ibbqig2ceZjAOHzmbOJGnSpBYh4zvs4IWLF4kPhNoLBWbzps1Yuux7Wd7XBj+Xm6lV0OSkI7puvXrioKVGUKZcWZk1uepGHwLJh7Pmd3PniX+HxEtziqtwK3/+RbY78F9AgD9mzZwl71BL42CYOmUKFi9chAqVKslqFLcJcGMcyZSDTFuFZL3ovO/ft58s63MLBP063837Dr/t2ydE07BRoxcT0nJqSGONBD1zhjjwFy1cKM7U5t80h4uLK7Zv24bt27fLFo0z500aUouW8PL2jkdIO3fsELOtYKGCYto4ODpg66YtssrF/vz8iy9EC9i6ebPgxH1f4WFhYtIRSy7706Shz23blq1iZn3+xefxokNSO2jftp1oSVWqVJE8qY2dPXNGtItUqdNg/PjxYjrT2Tt61CiZYOjTioqKxMqVq8QHRDyGDx8u2sXixYvRpk0b9O3fz6gh3b+PRvUbiFthy7atsj1l2pQpyPtZPpngLv9xWUxdRwcHrN2wXjQd9gsXZ0gsV69ckX1uXPCgGcytGjTdS5cpjYkTJ8EnmU88DYmElL9AfkyeOAlz586VSaxZ869RrGhRqYNlMhPSsu/FbKTZlylzJvF/0SdItwG18mMnjicazedNK/pONSTO2gP7DxAGp0pOtZ7xb0gCdGpTCyHT83tqE/QzODs5CYFwaXk8Vd1kyXD/3n0xxeS6Hi9PREdFITo6Bt26dUOLVi0xZNBg2U7ARPOOg1ZzhNMp/Vn+/Fi6ZAlmz5gJJxcXUcsZg4cz7OAhg0VQOSvTLKlepaoIyoxZs+DuTsEwLgHTZ7B9+zYhIGp1cmUSCzQY8POqlUiXNh1mzpiBZd9/DxdTBEwOJDopJ0ycAHcPD9Fm6Ms4eOCA8R6yqChZTh48eDDKV6wgg5CkSmFnW2kK0gTImSsnZs6aLdsALBNXbzjQubGU9eHq5OPHT8SU5SDPlj0b6tSsZTTZ5sxGYdM+JM7IXGzg5lJqTnTuE98Tx0/C1Y13zdkihV9yad/Nm3+KhnT/3l3xISUkJJopHKhLlyw13lNnaysrp+XKlxPyZ/u4/N6/b1/c+usW3N09oNfHoXz5Cli3dq2QyOSpU2WSIll/26Y1evXqLcSmJeJPs5B+vQO//Wa+vy8sLBypUqcSbZht4eIFiYC+nI0bNgjBx+rjZCWUcdtZn2R+vhg7apQ4tdu0a4u+/fpJ/xIDMdlMGhJlYcjAQThy5Ah8/fzEBOUEMGz4MJmMaCKzL4kt20iNMC42TvbXkXTpk6L/jj4vTY7NJtuWLVizjhpSfpkYW3zdXLRabrdYsux7s+lldEkaUK2Stsq2HMlTpsCo4SNkUYDbV/h9gH+AbHfp2t1ohSSl9E4JSdsTwpWP3bt2IyI8HLnz5Ebjxk3EXyT+AjlpYRCC4G5uqqM0Sz7Nm9d4saLF0Q8ucXPFiE7gsmXLIHuOHJIHNyg+fPTwhf1A88gyRCpnMZaRIUN6NG7cGFmzZ4POQKe5QYSD+5NoOmr7hDQ/Dsvley9K3HBIvxDbQdOR7SCpUsOKdysvL0mMicHFS5ekznRAFy5UGH4pkpuPmzB/DnKaQSTidOnTyWxveclkvDrwqqEHD2T10v+pv6wikgy02OVr1qyRgcQBSY2SiWUzf87m3G1OUqUZxT09bCfNLGqi3GNz/+5dtPy2FUJCQrFlyxY4OTrKzGyZaDJeOH8ee9jHkRGyukfNlP4VTcPkvpyVv6yUCYm+rJIlS+L775chbZrUsr+G+a9etUo0pBfdLqLJEong5IkTghHbykUL7T49zdlNTZdO+gP794sJw60aRYoWNWuX/I5+SvYxt4owb/YXMaT51bBhQ3NY4507d4q/kWRBbYdlaokTGomBe5r8kvuhbv168PU1blykxs/VxgzpM8h7nCjFJ/rbb/I88eXEzLIfP3kirgJqOVwc0PYyab7LlStXyiQspwpkQo6W9nHDsLubu2y9yMeLIUy33yhCegUCGqgvWxnRBPZFWZi/szizpGklfF5bfUu4sGDphLbcLGZZl4TlynEy7RzZs9N2L21ZwjLi5aedCzGRbbw6WOStHWF7UX2NZ/GMTl7Lo24JK/Sidhjfe3WyxPbZ0UKL83MWk4WG9ctylPqbzvBZPmMZ9vY5vEx1lHpoR2kszgG+riytfUZ5MBb/0nfkGdNV7Bo2FmfHXoavcdXUmLllefGO/pjyNRZhLOOFKd4Rzvh5vqqnLPN8aT1NGbyuzxMjUb1TDSkxAqDqrBBQCFgPAoqQrKcvVE0UAh89AoqQPnoRUAAoBKwHAUVI1tMXqiYKgY8eAUVIH70IKAAUAtaDgCIk6+kLVROFwEePgCKkj14EFAAKAetBQBGS9fSFqolC4KNHQBHSRy8CCgCFgPUg8MEJiWd4li9fLjthv/nmG9g7PDvD9CFh4Y5YntA+euwYAgICUa9eXTl5zpQUQ4N+SGw/dFmMjMkonZ9+mldiHnGndVBgoJypu3v3DipVqSLhbubNnSsHdXnIOGGEgX9T54Q7thmKZtasWRKPqXGTxvEiXv6bcj6Gdz84IT15/Bjly5WXQ7YHDh00nwn70CQQFBSMTowMePy4nLWaO3ce3D3cP4Y+T3Jt/PGHHzFi+HA5E0aZ4qTHSAuM4pA7d26JvnD65Cn0799fogeMHT9ODly/i8QD4r/u3SuHwsuUKycTLWNrfdP8GzmXyDhXH9vNIf8G1w9OSDwkyaBtPH3FeDeWQf7/TUPe9l2GtG3WpAny5suHwUOHSLjV/6oub1t39Xx8BHhSnzGQMmXKjFKlSuH8hfMS/dLezhYTJ0+Rm0oYgZGHvvPkziOhU96VhnT61Gm0/vZbORy+9PulUjFGfWDMK4amLV+hvEQrUOnNEHjnhETNh/GNeAI+RfLkcjXR4aNHJKZzvfr1JVTHujVrxSxioHZ2HMOW1K5T23zlC09ic9ajCcVwHqnSpIb/06cSvuL2nTvIkC4datWpYzzVr9NJvOo1q1fLYUeekGacHYYWZXCtUqVLPXcI8tatW5g1c6bcbMLYTVSrGZKE5VHd3rF9u8TxTp02DapWrSqn5Jl4ip4BshjXqEqVqjh9+hTSpk0nAq4l1oEhVRncjTdL8BaMdevWy2HQWrVrI3v27PLoo4cPJZIh4zIx0uH6detQs2YtZMhoLIvxfPbs2SOn8o3ByIqbTUnGjb5w7rzEQQqPCEfJkl+i2OfFzINMTr8f4unw3yS0CONCFyxcSE62M7FuHEi5cuWUeN+7duyEq5urRALQbrNgOzh5cPZnX7q5uaNypYrIyTvnLMxa9h3bwSB2jG5Yu25d6RfLSxB4SHTX9h0SA4nkwPhSTKzn3j17JfJn8ZLF8UmeT0S72bhhowTo8/H2kRC+1DQ0DXrd2nUSKYL9ysBsgQGBgv9v+34T+WG86wXzvhO3AImAMZooEyyLGhNjSDEECgmJnzE0DKNKuDi7SNQExtdioECJSqHXY9++3+R7Rmqo16A+fv/9Ei7/cUXiZjOaAjUzRpTgSf4GDRsib768yJE9O1avXgNvby+Jm82449BDwrEwWBtDmHACZBhikhaxYrxtRgDg3zQrN2/cJBEJSpctI3W2TB/amngzKnk3T71TQmIUPsYMZnAzhj5lvBqG6WBMoutXr2Ljls0S1oGB6hkLaNPmzZgzZ7YELRsydIjc9sGBwGBhvLWC6vbceXMl9AIj7bEjGPaVZp+3tw+GDBsq/gAGYqv5VQ0w5IWfry9Cw0LB2DmcFWvVqoXhI4bHC4JFlZpBxLRY3Tly5sSSpUtEwIcOHoI//7wBH59kCAkNkZtTunbrKkH1GWKibes2cvkjhebo0aOSN8PzWhLS7FmzMWXSJCEkxsZmcDEGbWdwut59eks7GeCtbp06EgsnJjYWt/+6hZWrV0ucJd6SQS0yOS8SZHTDhw9RqXIlDBg0CKlTpcLkyZPlFg3ee8dz6QyT0rpNa4lCSCHmNUo7tu9A8uTJERsbIxcT8uJJaoIMmsegcKwjBxQDsjGa5t+P/5a8R40eI+R3995dCbbH8BmM+kiiYEzwb7/9Fp06G+/M27xp07N+8fKU2EwMg8K45AzBoV1DRELiJNGpY0e5tGDkqJHyHG/w6NGtu9yOwgiaJDfGumK/cIBT02B7uvfsIXexMbwJZYexkhiyhEHhGAWzatUqGDxosMgL+6Nf374SVoVkzOfGTxiPwMAgNGvWVPyWjInECJEjTTjR3GKoEJbFyKA9e/WS38ePGydkw1AijK3t5uoKb59kuHjhPOYvWCBha0qVLClhYOgLJSGSlBg18quvvpKy58+fjxQpU0hM8enTpsuNJBwbnGA5GfKKLBI0ib93r15wsHeQSTsiPAL+gf4SfICRJRlPW5tQFCG9AfkxsNiiBQswdeo0pEiRHB06dpJYLr/u2YNVq1aLU3HT1i1CSHVr1zES0pbNuHjhgsS/zpw5kwxI5kPyoZOyU6dOMhA7d+psvKZm8CBkyZIVl69cxpjRYyTCIuNOMzAXCYlaWMtWrVCqTGncvXMX06dPk2BW8+bNk5tGmLRYTAwwRi2Jsys7nA7RJo0ay+AwRvIrhhvXr0ukwSdPn2DR4iVIly6t3EzBsLkMes/YPPRJMKCalihwc0hIk43hennDSOYsWSQm0dxZs+UmlslTpsgMTUKSW3lLl5YohJzJqR0weBnjKjEuEQmJURFJDIzB/HXzr+VmUwYR69WntzhO586ZI0LOaJskMmLD20QaNGooN53whl9GROQlCbz9d+qUqZgze7bcOtK5SxekSZsGe3bvxvdLl0p8ntFjxmDenLlgSOKvatSQ2zzu3bsv+TxkeNxZs+CdzAddOnWSfhk4yNgvDDZHMmXM5ylTnl11xLAeERHhqFSxEmx1OsxftFBil+/cvh29e/Yyxq6eOMF8swcJoVChghL3iYHlSOS8qeSL4sWFkBhVk1cz8RKD/AUKmH1GefLkkUsiGLmUkRk9PD0l5Cw1DGq8zZo1wzffNBdC+mH5CiEcBspjvC4SMmOP37p5E5MmT5bLDiiH7J8ePXrAN7kfDh04iBUrlsvE+N38+fiyVCmJYMlAcuzj/v37Scx2kokQUtasUh9q6zTrkqdIiVbfthJN8uD+A1ixYoXEW+IlA7wjr3fPnhIdlfcV8l451nnSxImitVHOGYgvqad3piFxVYPB/BnUi5H6aAZx0NHMqValqlyH/CJCkuD4vfuIFsRg8px5u3ftJpcW7t67R+JtM/QsZ/M2bdvIrMd7t2bPni2awU8//yxmDgmJMyrDkXKmIrExqD/Nnt69e6N12zbx+pIzH2ckhsllFMU/fv9DgrSX/LKk3ADCGZoq/ZhRo0X9Z3C3tu3biYbEgTd5ymRRx1nfhDGYREOaPFkiDY4eO0YiQdL8adWiBY4dOy7hZnPnziOExFsqeDElZ0tiMaD/ADEZGZBeC8B/8+YtiU7JiwUZO5uETr8JBwRvYaHTlNoDTSXmyYBgTZs2lYB2nGJpcm1YvwHZc2THho0bpW5zZs9BlapVMXXaVOknBlJjPzG87i8rV6JO7doS8ZJxvZk/SeHpk6dyHZWXtw+2b9uKEcNHCKm1bddW8qC5Tm2X/cKbShI6cxk6d/533wm5VK5aFePGjMHSxUuwbMUKKZexxKmpUIuk2cTJgxMTtR3eFsx7/UhIvAVmwMCBckU7tQb6hgYPHAQSEu/cI/l269pVHM2UB2LDAc/8GbKXhMR42iQKXobAELqUF2poDPbv6Owskwfvn+Mtx2wfJ1AGaOOlDLyKiBoSr3jiVe7s10/z5cPyFctFxhj+1lJDIvmTJDkZ9OrdW2RGLmvo3VuuRNqwcYNol5RHTq68MontosyUK1NW6jZ1+jSruYn4fZLiOyMkXoLICyEZd3j1mjVye6iWmjf7WgKmv4iQCPzc2XMwY8YMsfd5wSI7hn6VZcuXSexnCrKYa15e8bCgkGg3iDC4PdO6DevNKygc3Ax126VrF9EELFNCQqIQt2vbVvw8DFvKVRgOCA5chmylz2LI0KFCSDQ1WA4HwHMB0wwGMYc46Ek8zb/5xqyZcQAuWLBQ4o0XKlgI9evVE0Lkqg9XiEgKJGf6LEgumpNdIzxGZmSecuXTsGG4dOl3IXwKMbUlxvHmHV7Mh74IS7JkALjUKVNJfGhNQ2rStIlMHkwMt0oMqRHw5hDmQw1v8ZLFyJgpU7x2ss0MnD9h/HjpF2oilj4jasMMJfyJyfehBWtjlEneKEIiHTthPGrXqCl15FVFJD9ezMD2aBEURaOFMQgarztq16G9XPbAyzepUVFDZeLdZ29LSGVKGZf+58ydIw5prR+1aJI03ekbI8ExyqTWPsb63r17VzxC4q3JXBx5GSHxphn2KS8hJSmxDJnABw0Sn9LCRQuljbyYgD681WvXmCe5GtW/kv6cNn26+AmTenpnhERBGjpkqDieebsD7X6SzZ3bd+QSxv+zdxVQVS7fd4OFjd3dHdjd2K1gd4OIgI2SJpJ2K3ZgY2J3t2K3YiuomPzXPvDdd+GhP59/nvJwZi0WcO/3zZw5M2fPPmfq+fNn2OTvH9ll27QRiYwS49ixo3K3Gu+7qle3rtwQQarLc5PXr18vcR0yJN69xdGOt1zw6FgGC3m1Dzs1GRITb2LQrib+J4B05/Yd8D4snntM9kNaTcbF867J+giWPEReAOnaVTn+taDejSB/iyFNniyumPcUH3GnOPp26tgRt27ekhhK7tx5hIXw5g4ysvBzmoMlhsI6Dxs2TI56Zbp46RJev3wFxrrIcniFUZIkiSVGw0sFeEkAXTMaNlkqz+fmyK6N/Ddv3MCzp8+QI1dOOUrWfbK7uGzfAiSCLS+rJBOcOXuWHKnLGNLJEyfw7NlzlChZQlxQykqGxEsu2S48kvXcufMCkDxbWv8CRBrc0ydP5bJNMhwCSr9+/eXgfV5fFfTosdwMTGBk2zMPxqwIYkyMs+TLn18YEt1qumKc8PhZQOKNKnSJ6D5zJozMjEfXPn78SK7Z4mWTjP/wPj3GxDjhwYsBWH5Q0GMdIHECo0f3HuK2k63rM6T8+fJh5qyZWLhgobj+PCp3pP0oiUkxDsbblQmuW7dtk4A33Ve6ogQkDSDZr1mul7e3AqR/gsZU4MoVK+Di7CJA1LhxYwmGMvZB9yueIWNI/hJo1QW1N2+SjkwqrF2OmDp1KglYs1HIUuia8J53xofM2rWTM7p5djIXvfEmD+2yPR1DWrcWyZInlxEmEiBZDox0zitn5cjE6tSthylTpwgl792rl9zAyjOZGa84d+4sdm7fIQfZ88pj3gvfp3c4Q9qw8X8DEtkGz7YuULAAzp05i50BAciXNw88vL0lzkD3ilcsE5DI/qhDMjrqkFdh0yWhq7R82XKRj7ewEhzosvFONgbsc+bMATe3yRLop84CL1+RyxDI3jhzyBkpxpXoRtE948yjx2R3cXnp1jk4OUZiSLxlY+2G9TJr6ezkJDe5cqaLMTneL/YuJARLli1DipQp5GYQgoN5O3N5jnERBvFZJ8a7oq71YV24OJFXZTGWxttICCwMTL97/x6Txk8QF41xnZo1a+Hy5UtyNjv7DEGPg4RZ6zYyW0dA46TB9wCJM4ib/TcLADD+wxiS5rLxhhWyUV6M0LatmYDM5k2b5cKChb6+4Rc0DB8uwW26X1myZZUbkjmRwRlTxpDosnFygsyafZjsp1z58nLutS6GNGe2BNDbtmkroMalLqwHZxfpSpMhc9DiedlRAYl1IyAphvRPkEjvWfq8ZEm8V0s7arhwocJIYZwSx44clSA2Z47aaEFt/826g+E5C0Fqy1kFXitEoCEDYNJuVeUNE8yYhlugQH6hsfkLFpQruZs3aRrOkNav+4shDRuuc9ksrKwinTstgGRjK6Mj70kneJDNDRw4UA6E19yktGnTwNPHBxXKl5fLBcMZ0jUBJDIWpm/FkHi/PGeiaGyUmaDs4RUeCzp96pQAC0GVLpvmjjJewOvDZ8sNvobh7t7Xr+jao7uwJspJF2XYkKEIDX0vz7B8sp0hQ4YIeDKOo7vrnuXGjy9gxrgUgc1j8mRxKzmj5KDnstGF4mwRGRLBgwFquraMDfGMag4eE9wmoVGj8Jt/L1w4j+5dusrsJmVgQJ/LGtguBOGouuH/vNXDdvBguXiT4Ojl7YUMmTJKuzOuQgbFm14pJ3WWyCgRpk6bJuuLmASQyJAmTULtuhGAtIEu0Jz40wAAIABJREFU20gUKVoEi5culeUQWgyJrJyAxOl9iSF16SpXITHvyW5uEshmXVk/AsZoRwew3fiZp4cnZkybpjvjnHE+XmnNm1BmzJ6lu6yAU//r/NbKgMdJFQ4UdLUIdjNmzZL4GAGIdXvz5rXceEz74CwdGRrjlTLLZmMry0BWrlmtux+wRdNmePT4ETy9veXWnrg8wyb9JUz/NPafBCLtNZkafv9eKDldE7Id+vm8v+zgwQNYv2GjUFKyJiqW7hY7Hv+WiwV37RLQID3Plj37X359xGKzfXv24unTJ8iQPoPMmtEV4gu8jmb37t3yPEdbmR4NCxNmxvUdnMngzSb6iZ8zIMlrdcg6tIamm8ZR8M6t2wKeXLPCmUH2IN6iQoPiM5SdrmHUDkIZtBgSrybi7BmNgc9VrVZNbvhgXi+fv8CevXukfMbNuERCy4uGzcsuT504IYBTtHgxmVHUEsvgHWe8UpvT+kWKFEWRYkXlSil+R2O6eOGi3ELLZQu8VZUAoema0+V0x3LnyiW3VzDJmqPdu+UZspN48cKXA3CF86XLlySeRINg+4mcvCABYXJ9eHi7PJXZ1fB2SSb6jw6QyCQ4gcH7xbJmy4IyZcvJDKwAb1iYuE68IYUuNK954horLm/QEpkEXUPWie4iE1k025ouInXMNV7HT5yQO9XYTowVkfEwXy6z4AwWlztwuQWZ69lzZwVseWsMZ/8ojwawHDjYn8n2mBeXJLDvMJ5HIOFzrBPdaC57yZM3TzgD2rVL+gfvXWMogtrgxA77FtdO5c2bR66p0m405rucPeS1TGTo2sDLmCzzp2ycrNG/gOD/aa6x8vUYBSQuTmMgMFvWrHIHFhuEa3s6degoo9TCRQuRPWKRYazURgwIFRWQmrVo/j9vBImBYlUWSgNxQgMxCkgMsDLew9GSIzJX2jJoR8rJhV10KQhMcTnpr0NizIbreKJjCnFZB6puSgM/q4EYBSQKwYv9uJjtzt27sl6IdJlUV1vEF9fpAhnSvLnzJHjr5OwsCzsVIP1s91Tv/WkaiHFA0mIYd+/ckdtJU6VOJT51XA/GaR2HsQLO1HB2K3269OH7mFRSGlAa+CENxDgg/VCp6iGlAaUBpYFoNKAASXULpQGlgVijAQVIsaYplCBKA0oDCpBUH1AaUBqINRpQgBRrmkIJojSgNKAASfUBpQGlgVijAQVIsaYplCBKA0oDCpBUH1AaUBqINRpQgBRrmkIJojSgNKAASfUBpQGlgVijAQVIsaYplCBKA0oDCpBUH1AaUBqINRpQgBRrmkIJojSgNKAASfUBpQGlgVijAQVIsaYplCBKA0oDCpBUH1AaUBqINRpQgBRrmkIJojSgNKAASfUBpQGlgVijAQVIsaYplCBKA0oDCpBUH1AaUBqINRpQgBRrmkIJojSgNKAASfUBpQGlgVijAQVIsaYplCBKA0oDCpBUH1AaUBqINRpQgBRrmkIJojSgNKAASfUBpQGlgVijAQVIsaYplCBKA0oDCpBUH1AaUBqINRr41wApLCwsUiUNDAzkf+1z7f9fqQmWrV9u1P9/Vpb/bz7/3/d/Vm71ntJAbNNAjAHS169fcevWLcSLFw85c+bUAQ8rrIHA69ev8e7dO2TMmDESMPybStE39g8fPuD58+cwMjJCypQpYWhoiLdv34Kfa4nfJU2a9B+J9PnzZ6l7smTJkClTpn/07u8G6X8srHpBaeBf1ECMAdKXL19w9epVAaQcOXLgwIEDInaCBAmQOnVq5M2bF9evX8eDBw9Qr149ASwCgn4iqDFpn+uzLA1Y9BlO1Oej05OWB8HwyJEjIh8BhKBZoEABnDt3Dg8fPhQ5mfh5vnz5dFlFlSGqbJTn06dPCAwMRPLkyaXulIufR5VZ+1z7Tvv+0qVLeP/+PUqXLq2re3R14/P8nDJExzC1d7T8NVn189KXgZX8ER3+i/1PZa00EEkDMQZI7NiPHz8WQ0mVKhX27duH3LlzI3HixLhy5YoYOtnRvXv3ULhwYTHAFClSIHPmzCIQmcvTp0/FiNOmTSs/wcHB8hkNi8+T1WTIkEHA48WLFwgKChKDSpMmjXwe1Uj12RHz4fMExtu3b+PZs2eoVKmSAFL8+PGRLl06ASvKlDBhQh3D4zshISHyXWhoqIBrokSJJC+WR/lZR4JakiRJhF3dvXtX8qTM/Eyr440bN5A1a1Ypg/K8evVKyj179qzknT9/fnn25cuXog/WO3369FLmx48fpQwyOpaRJUsW0YMGPsxL0z/LJEjmypVL8r1//76AMPXHNmAZzOPJkyeiB+ZBOajH3+FKK5tUGtA0EGOAxA5P46bhknns378fxYsXFzeGzCRbtmziGt25c0dYBA2MBlG2bFmRhe/S8GgQNMZixYqJMZ0/f17epXGSXZUoUUKM6cSJE2JgNEoaKp/XXEGyNQ0M+J4+y7l8+bLkT2CgHAQD/k+5+ZMnTx4xWM3QL1y4IDLTuJknwYIAROMlKBG8ypQpgzNnzoj8BFKyQ8pCxnTz5k0BGhr87t27Ua5cOXHrCNIEZ9afZRAoCNRMlJEyEFQINHyHuiKw8F0CKllc9uzZ5XkC5unTpwUEjY2NBZjYHrVr15bPCewENsr+5s0bmJiYiE4uXrwo9eCzLIe6pfwqpqUA4ndpIEYBieBBACAgBQQESEdnInDQCGjYBJU6derIdzt27BDDIoCQMVSvXl3+Pn78uACCZnw0eBo+gY2GzndplDRIfk6jp8GVLFlSx7YIWBUqVJCy9RONn0BCQCJQ0PgJlEWKFBG3i8ZdqlQpiTMx8XmCQa1atcSYKRuBTHNB+X7dunV1gEqD5jN0v2jsx44dE9AkQyRr1AckMqmaNWvKu2Q+VatWlfIePXok7JKARNDi32Rl/I51Zl76cS7Wh3lUrlxZwJLxLLKxGjVqiI45MLC+rBsHCuqT7jOBp2LFilJPthdZJoFdAdLvMkdV7r8CSDR0dnz+poHShSBQ0aD0Y0hbtmwRY2MiINGFogtGMKERE3xotAQz/s/PaeR8hganuS00ZjIQGqsW0yF4EIzIGpjIDshCCHKU4dq1awIGZA80QLIZfk7QJJjQsJkXQZbvVqtWTd4nwBAQ+EPZ+D3z4W8yJAIj5WQeZCsECoIsAYwMieDAd8mo6C4RNPgMwYJlkLWQCfEZvkeWSIaouViUhboigBJkmDRAItjRHSTYELCZ986dO4V5UTdkQUePHhXZqD/Wm+9Qn3v37hXdFC1aVFmF0sBv00CMApK+y0a3hUyDAKKl6ACJLhJBi64TDZpGwgA0DYPGGB0gcSQ/deqUuIMEKj7PkZ0AoI3uUUd5GjnlI4hpMSEaIw2XZbBsGix/FyxYUAdkBBp+TvZCQKJBEyzowpG9UG6yJ9aNsTMC48mTJ/8GSKzP4cOHdTEysiAmggYnAwiELJdMiEFuggOZIF1b6pEsjeWxDD5LvfGHiYBM14wuJ4GVQEd2RbkoH8GZ7UDw5d8EJCbqg58T+Ah0Gqv7bb1RFfzHayDGAImjLBmGFoilG8URnOxIC5TSCGncNDwmsgEaMFkFP6fBMRE0NICgoZAh0NgIHGQKBDAaFkGGxsTnaaj6s3ZRAYnPMVZEw6Y7RoNnXjR6fsbyCXBkZXQDtcT4FGNHNH6CA8GAsmnysc5kgqwb68o8KCcZCcvh+9QNZaRryO+oDwIP8yVzomzMl3XkcwQY5sv/GUti3Vg2Y0OUk6BD3Wozg6wr9aEF0/k986BcWpl8n+BD4KRrSx1SH5SPeqOOya5UUPuPx4TfqoAYA6TfWgtV+Dc1QLZFgCWwEczIxsi4osbWlAqVBmKDBhQgxYZW+BdlIHNjvIiJTIxMiOyN7ItJMaJ/Ufkq63+sAQVI/1hl/50X6Mrxh64hXTaCEN1UzbVVYPTfacs/RVIFSH9KS6t6Kg38BzSgAOk/0EhKRKWBP0UDCpD+lJZW9VQa+A9o4F8BpB9Z6RvdM7o1RFRcxPEl341z8IST8FNNok3fWpP0v9pFX7YfqYt+fv/k3UjPRtT5d8Z1vqVO+TwMCEPk41v+lx5/5HttW8+vqnfU9oGBwfe60N+q8E/7w4/oIKae0Q78+Y5JxFRR/1o+MQ5I3wOacJv765yk6DbD8pmoZydpn0XNO2pe3+os0QHTz8qhL1/U+nzvu+gM7nty/SoD1XqWFvzm/0kSJ2Yj6NoqlMezhIXJ2imub2JQPEniJDAw/PmuHxsM+2dk+Jl3/jXrjZJxbJbtR3UQs4DE4zHCwnDl8pWIRYufYWycCoWLFJZ1L1QYFyKePnVKVhJHTUWKFtWtj+HMELdXyMZXw3jInTsX8hcooJsh4oK/y5cu4cGDh0iQMIGsnOY2FJnO5uwSIAsFuY2CK76TJ0uGAgULyn4tysGpcC66lAf1EvPi/joucuTKbO5Ve/zoEYwSJ5ZFjJwy1zbssg6XLl6SxYWcUs+UOZMsOtS2q3CV95vXr/9Wz4yZMslqb23qnVs/WM7bkLdIliwpChcpIgtGf2Vi2WPHuiLsaxjsx4xGYqPE+PDpIw7s24+9e/Ygc5YsskVmio8PUhqnhIWFBViPn0nU287tO5AsRXLZ0MsFmb8iaYMQ+8T1a9elDQoWKvjDSx/4Ptv67JmzyJ8/H/LkzfvD7/6K+p0+dVoWz1asVFF2LfwXU4wCEo1y3tx5WLN6teyv4v9cNVypciUMsraOOFrjFTp16BAOBmRMdAMQPhpPnTYNpU1Ky1aQMaNH4/ix4/I3DZfrZ/r064vGjRvLez7ePli3dq3s6yIA5MiZA4MH26Bqtary/f59+zFt6lQBpI8fPiBxkiTSAUeOGoniJUpI/nt279G1mTa6pE6dCuMnTpSV2ZPd3OC/2V9Akewgd57cGDlqlIAOAXGxry+WLV0mK725GpurnynfYFsbAa0B/frLlg4dC4nwMFu2aoUBFgNkv9zVwKtwd3fHqZMnEfr+vciZN18+uI51FXmjJpGT+opwn6K6PN9yGQV3o5yYGf5RuBv24vlzmNYzlTbbu3+frDg/dOgQhg8dJp28fYf2ss1lQP8BApZTpk5B0WLFwsWLAPUwg+g9aCHF9PlEciAkOASVK1USgB83fpwMND+SpK4RJ48yn0iMIIq/GR2b1ljnjOnTMX3adHTq1Am2Q+wiFf0tFq69679pM4YPH44BAwagV5/e8m74yRA60cJVEqHXaFlLxIApeX7HFf5eHaLTl62NDQJ27sQiX18UK178R1Qa656JUUAiQg/o319AxHKgJfLly4+xrq64d/8e7IYMQY8ePeQco/qm9WFsnFJ2p8uamIgO3aVbV9lJT1CbMH48smfPBksrK5w5fRoL5i9AxUqVMNljMh7efwjztm2RK3du9OzVC3fv3MH06dNlc+7MWbNk3c3wYcNkY2n79u1Rv0EDLFu2DNu3bUPZcmWxcNEi+K1ZgwsXLv5lTQA2bdgI41SpMGPmTAGZbl27ysbUXr16yf40X19f1KlbBzNnzsLZs2cw0HIggh4/xhhHB7x7+w6zZs3Cq5cvsWL1KgGtdmbm8lz1GjWRMUOGiB4bJkeO1KlbVzqyj5c3pk6dKltB6tSri8MHDyEw8Arq12+AKdOn6UBE38WkVWsgLsYQATYR1qGLv4nx6sXidGRQs56I77T3AwOvwtDAAPkK5IchDDBz5gxMdpuMxk0aY8LEiTIwEGATJUwkrJcumyZHdPEL7QgX7beGGdxTV6J4cRQsUBAenh4oWKhQtMCrD+SUK5IOvmVKmm70AJisXedcGgDeXt7w9vRE9+7dMdLe/m+AFF3WGiCtX7ce1oMGwXrwYBlU9F3raEMQUdtA/2hnAVdBJF3SdBW1LXXtHDGoabrQx2GLARbYvnUrVvutQYmIky9iHeL8D4FiFJC2bt2KEcOGCxPasGkjDAwNwRHF0sICvXr3go2trbgwDUzro0bNmnBwchR3StsUqp2EuHrVKhw7egx16tVB3Xr1EPo+FCWKFUehQoXg7ukhLsSSxUsEjMzamePd27cwa9sWL1+8xJZtW2UEJjDSZTt+6qQYGd2/Lp27IHOmTFi2YrkAT8RQJk1M0Gvbpg1atWqFkfajsHDBAmxYt15GUMrw4P59dOvaTZjRvgP75TyjRQsWyuhOIP386RO6d+uGw4cOY8asmXLECgGJDM3LxxtFChfBx08fhTEm4tEmYWGyCbZ3z16yj21nQABSpU6FC+cvoHfPnggzMMDSZUt1pyFQVm6UXb9unbiTlpYDkTBR+J67A/sPYIu/P2rXqY1atWvLgHDk0GHs2r0Lr1+9Rs5cOUWekqVKIUH8BHIkyZ7du2UUZV7c32ZlPQgzpk2HoaEBBlhYyBYTsiPuNyxcuBCat2ghx8MsWbJUBpPOXbrIHjsy3T179giQcj8d98/VM60n7jH32tE9u3D+PDZt2oQH9x8gf4H8wrRat279TUD6/OmzsLOdO3YIOyMTK1asqBw/Q7Y72tERz548xayZM2VAK1O2DE6dOi3tXbxEcTRs2FD2BBoaGOLZ82fYFRAgp0/w2Zo1a0md5s2d801AOn3mDPbs2oWbN24iWfLkaNCgPsqWKye60gCpe48eKFS4EE4cO47Pnz/JoFOrdi3dKREceAN27MCBAwcFSGvUrIEkSZJi39690k4cPNdv2CDuX5u2bWSzuMawuYiV/X/XrgA8evgIWbLSXa6FChUrCFNnfrdv3Ya/vz8uXbwo7lnTZk0xb948YUir/fx0R/H80YDETtyvT19xPdzcJyNtunSYPXMWtm/fDvvRo9GiZQthSA3qmSJ/wYIoVLCgsCcquWLFSmhr1lYXV6EiOZKeO3tWRmVPD080a9ZM2Ajz4L4ssgo2Iv9u3rQZEsSPjzXr1kqDOTs5YYv/Fri5uaFg4ULYtmUrvLy80LRZM7iMdZVnNUpMo+nfrx9OHD8hrlKDhg3lTCGWT8bGBudm4U4dOsI4ZUps2uIfaWSkofB7GvTXL1+EITHm0t7MHJcuX0bTpk0R/OaNnDKQL39+tG7TWoCGINe0SVM5n2jWnNnSd+gytW7ZSk4hcPfwQM1aNXVysowunTpLbGvO3LkoVbqUvNOnV28xuHnz56NkqZKYOmUqFixYgAzp08vGZR61QmMcMnQIWrVuDY/J7sLKuMH4/bt3SJEyJfzWrkWrli1hGM8QGzZuFIAebD0YT4KCJI869eqJoffq2VPqNnfuXKROkxr2I0dh27ZtElvjhmOCW/oM6eHs7ILyFcoLWI62txfQZXtR59QnQYHnZukzJM0lW792LVxdXRH8OlhY8rv372VQefb8OeLHM8S5ixclBmje1kz0miVrVnExCfBktvXr18fY8eOEvdHtXrFihe50Twbl2d/u3r0TLSAxltezR08BPg6A1B3bZIzDGOkXGzdsFIbEQZcDKWOjt2/fwqdPn2FrZ4vuPXviXchb2NvbY9OGDeKCc8M2ZWO92a+srKzQtXs3jLEfjQ0bNsCkdGmcOXcO3bp1kzZa4rsYPj4+SJI0qfS/Wzdu4H1oKPoP6I8ePXuKm0+d8iictGnSIGmyZDKwG8aLh6DHjxQgaSjMhtuxfTsGWlgiFY96NTISl4YGSSBhp3n+7Bnq1zNFyNsQxI+fALlz5catWzeFtY4eMxpt2rYNJy4Azp89i149eiE4+A1y5MyJadOny2iv74rwWY6UbpPc0KlTRwwdMRwJEyQUpmE1cKCAFYOmcmpA1qxY4LsIadKmjRRPOXniBHr27IlsWbPBd8niSBtPNWrMjj1z+gxYDhwIy0EDI6Ih4bGCiuUrCEtj55s+czpKliwtBtTO3FwOa+Ou/2zZswlbYcekC+TAUf7pU9SrWw+t27TB+AnjdYNZj27dpbM5OTsLiId7H+HnadMYtm/bLoymX79+CH4TjIoVKgiLYQwu5O1btGjeHHnz5MVEt0mic7IXJycnJE+RHKtWr4bvIl+Jr5HhkGVWrlJZwKJVi5YCXMJuDQwwccJELJw/H526dJZ609jbtGot7GPOvLkC4EOHDJHRnqySxnlw/wExRsYNfaZMgZ2NrbCjDh07okeP7sKY6AZykIoOkAi2NapXlwB/3359ZQAh8/Jwd8fePXuRLGmSSIBE95yuE5+j2zzQ0lKMnnUgm21v3k70P4UAnDkTzp87L8b86tXLaAGJzNjR0UmYsq2tbfhAM306atetA3NzcxnkBllZoXChQvDy8UHiJImFtU6bOg3p0qcXMN+/fx8GDbSSWNuIkYxZFhe2NXzoUDwOChJA6ta9u8hBQCLosKwSpUqKDmtWryEDrbOLi/T3SxcuwtnZWeKym7f4Y926dZji7SMTOZMmT0LKlMYySTB27FgxjTV+fsplo9HwOBC6IOwQJUqWQOrUaXCUZwABcHRyEkN8+eIF2pm3EyNbvHSJHInB4LSjoyMypM+Ardu36dgHjyNh8PrMmdO4c/sO2rVvh2HDh8uMF10eAuC2rVulEzIOMcnNTUY1dmoa04rly5Ezdy4UyF8AFy9ckM5FV2OU/SjdTBhn/Rjn8l24CMNHjZSOoj+ZTQNav3Ydhg4dCpMyJnCbPFkC7Pq+vv0oe1y9GiidPUeO7Fi2fDmMU6cWtsgzhwiUvXr3FkAxNzOTEW6T/2bRgWndemjWvBkmTpqkA6RuXbrixMmT0sGaNG0SiXUzWN+lc2eYmppi/MQJ2LRxI0bbj4aFpQUsLC2xjrIOGSLxOZ6YyUSGsXz5cnErp8+YjiNHjgogMY41bcZ0qe+r16/RWg+QaMSeHh6i/379+8voT7bQsnkLHSB5untg/fr1MqujlfXq5SsxGDKMQ0ePiHtOZhiwe5du5ufc2XMCmtEBEgeHtm3aipvm6eUpRkddr127VhgFwr5GAiSeZDB33jwUKFhA9Dtp4iQZoBgHDAp6jDGjx6BHzx4yGaENLhYDBmDrli3RAhJdp66du0h0vnr1GmjZogVKli4lgxoZEcHHepC1gKWtnZ3E0S5fvCzMkX1l9Zo1WLRoEebPm4eGjRrB28db5OfSCbcJE8Wt0gck6o/eRMuWLaWtCLp0/Xm+F2c16fZ++PgRmzdtErsiczx0+BA2b9oMD09PNG3eTBcnbNSgofRDykD3/L+YYjSGxNFlwvgJYiwcnekWMXbTqmUrNGrUCM6uLjJiP336DEZGiWQ0IK2+cOE8+vXthw+hodi1d4+wGjKObDxTKHFioeVNGjWWYzRI8YsWLYbQD6HgiZMTx0+QUX2UvT1MG9QXZkLDoWuTKVNGLFm2DEaJEuH2nTtiTCx/5qyZKBRxfjWfJet4FvQU/tu3CrPTAIn0ngY+aeIEpEuXXqbDeVAbOxhlFHcmQwYxNFLmYUOGYtOmjXAZOxZmZmbCBr+EhSGVsTES8IylsDC4OLtIZ924aaMwlJYtWspsE8GZ6f37ULRp1RKPHj2G9xQfARb9xE5PI2eg1t3DHWNGjUbQkyBMmDRRYjyLFi6EwxgH5MyZQ/Sno5sGkPgGWVVAwC4BJAb8HV2cwwHp5UtpJ40h8VmyEgISXQUaH11yfUCaMHYctmzdKiM8GaB+4lINbx8f1KldW1wkMha6hiyL7htZQFRA4vuHDhxEx44dUdrEBN7e3sJqqG+6hSOHj8DHD6GRAInA6bvYV2YkqRMuS6B7z7J50sE4V1dY29gIWAvvNjAQZrJ08eJvxpAOHjgokx43bt6Q5QGs39Dhw1ClShVs2rhJ+stgm8HobzFA4lRkPxwkyMhWrFyJ+fPnYbHvYpmZdHF1lXb/9Pmz6NzL0+tvDIkxzfLly4v6OKtLwKSbx1nd8GUsfy0Abt2qtcSOqA9OzmizynyXbPDYsaMKkLSOSNrq5ekpHX20o4N8/PjxI1SpWFkCmRPd3BAvniGGDR0qBs4peIIMA7KMRWTImFE6rrubm5w/PcDSEg0aNMSXL5/FCBmb8vDyRCkTE4lNLZg/X0YuunoVKlYMbzwDyDooBpTJ0hYsXCidkBS9bq06Uh4NnXEbxnuWr1gBJ0dHMdSBVlbhzAcQNkFjXLJ4scjl4OAgSxK0Mrg+hzOBjRo3Rt9+/WR0psGsWrUKQ4YMQe++feDs6CSHzrXv2EHqTzbWtUtXnD93Dhs3bxLZra0GCRuaN3+eyMQA7FC7IUieMiVWrlop8ZuoafasWcIEOnXuJO4XZ/QYSGcMh65eB/N2qF2njkwaUF6CLpkH607XadbMWWIcNHw+w0SA1XfZfgSQ1vn5iYGRxdnY2QnwsKwjh49I7Ie6IdtgDHDipIlo1ry5sFrNxY4OkB49fIhqVatJXZxcnOW8coI9+9WCefORKFHCSIBEORdFABIZkI+3Nzw8PCUGQxe1e9duKF6sGBYu9pUJBY3Fk0lEN8t2YP9+YdKcIWYsLPDKFZlNZdDYyckZAQE7MchqEGxsbST4z/6ixfY0QGKQ39XZWdaTsa8R0Lg8xXKAhbjwUV02tnOZiMsuCNZ1atWW0zsdnRwlvMC1T4cOHhQ9tO/QQZYs+C5aJAxswsQJMtBw4qBTx04ICQlWLptmMLt27YKdrZ0YM6f4M2XJjHlz5uBa4FX06tcX1tbWcgyGnY0NduzYiQIF8iNnrtxiLGwwTi23at0KCxcsFGqa2thY3AqensiOQhrq7uUJv1WrJSjLzs3TJ9PxpowIITiSsTOzEzEwS7+fszCcAQzYvgN5CxbA0qWcKTKWEY0GQyMiQMgljxHrQlxdXEQOghbdBwaztTJoKIxrWFkOlM7CIGq8+PGxOyAAwW9DZHkAg/T87TBmtHSqMqVNcO/+fVkA2aBhA7iOHStHgSxcuBDjx45DfAZIjY3xJviNzCpyjcuwYcOiZd2cCGjaqIm4pmRMgwYNgqXVQAHe169eyQwjZ2nqmZoiX7682LZ1mxhNixYtMG7CeHi4e8QIIHH9F+OBBGPT+qbIkjkL1qxyBNmOAAAgAElEQVRZI3Ey6ogzadQhXWLWr1LlyvLssePHRfaC0QW1AQyxtYOfn5+0UfUa1WWm7dTJU9J3osaQogOkcIbkjbLly6Nfnz4yk5U1SxaYlC0rLvTtW7cQFvY1WkBasXwF7EeNkthN27Ztce/uPXHBOBM2xsFBZv7ospEhRQtIq1bKKvZ6detKPC93rlxyIB7PWecsIOv/LUBi/wr7+lWAizE2xvboCu/csVPObCc75+RHwM4AWdbC2VSe0c4FqocPHhS3mwx3jZr2D7ebzxz9ZswEp+0ZRKbyOVXKdTecPtdiLwQAjniXL1/Bp08fxTAbNWqsW9fBjuc+2V1uwngXEiKGRqYw0GogataqhXGuY+U7LemvxaDrUqp0aZnWJsO5d/eudGRSe86M0O0i06GrGHglED179JBpaju7ITBKHH7TCCn2qFGjZKSPLjHuwoWTmzduwpy5c/Di+QsBxxTJk6ONmZnELLQY0/Sp07B582YEhwQjQbz4skyAi0Q5/U335cXLlxIQ5VIGAiQnAsqVLyeBYe3mk6gycPbPxclZdxnnwkULZTGlFiNhLIvuVuDVQJn9SRrRBgSJxEZGmD17jrh2LVq2FMNiIsAy/sdZtnnz5osuZs+aLbN1nbt0Rp8+fQTU+AzdCbrkBHACxfhx42TQIAOkS0xmxGUeZICcESVroRExAM3vOdO3bOlS5MmTG6PHOCBvvryR2jIkOBijRo7EyRMnRSeMM5YuXUqMkixhR0CAxBQJvBLr8vJE1mzZxJjnz5+PuXPmwsnZCTVr1xZD5ewqn2c/yp8vn4DN7l27YWbWVta56Se2IweInQE7JbBOV5vu6ODBg6Ufc9LG0cFR6tela1dp57t37oobx1jPtOnTZMaRsjs5OSLocZAsYs2RPYeECbjkomeP7tJPJk9yk/8Z1+NiXa39yOIYijhz9oy48EkSG6F48RJwcXWRQYsyMjzCRblstwQJ4gvDYp/mejmyZV4C8V9MMRpDCrflMLlO6Mb1GzJ6E0g4y8COqL/ylJ3z/r37ePvuLdKnSydukbaVQlMk11o8Dnosfnqu3Ll02ynk8sbgkGj1zZgDQZBlsWG5tePdu7eyhYVyaJcO8HvGGOhSESi1K7C1xW38jrM20SWuC9HAgqM3yyHoZc2SFdlzRMRtIl6UK56ePJEZksSJk0hAOGmyyFd105AJnG+Cg4WJcRpb234SXfkE+vv37glzoJHRUKIuymNw+cqVy3j37r24HlwfpF0sSb0/fPRQlgVw9lIGk8+fZSqe+RQtUkSmkFmvhw8eIFPmzKIjshrqk24T80uUyEiM7fmz57h27aqABUdrxsS0876ZNz/nNp8XL14iQ8YMsuSBLgZnJQns2g0vugEmLEz2zHGtF2cms2bLKv3ozu3bIqdJmTK6PCknWTLbg21KYOQPZdDamm3J+Jcs+syfX+I5jx48kD5HdypqYr/l+jG+lzxZctkFoLnOZH83eeNN1qzSlkzsy+zzBESCjtY3ngQ9kUWuHDApI9uNLhnfI6hzaQd3AXDxLd1J/cT+zTwZamA9KLd2Pr0GXFz6wP7Lz7nQ9P79B3jxIjw/rp/6L6Z/BZD0Z6D0V+tqgPWtzbP6CtRtE9Db7qBbjh/BYr6l8KgrhPXLi7QS9jtHuEZa/fydlo2ad9Q6hMek/lqNGxU49I0w6srq73Uo/a0J2nPRrhSO+DK6774ny7dWBkdtu+jamkXq5/0jskatq9b+UbfvRrsVI+o2kojMIvUXrc/o7e7XDDs6PXyzHD1BNdmi2+Kh6UD/u2if09sKE60Ooumj+nJ/rw4KkKJo4FuNqg9M33vmRwwyumd+Jk99o/keyPxop/kbuOp35IhOqA9GPwqUmu6idvi/1TmaPVLfM46Y6LzavsT/paP/ZUTfa4vo2lbLT7/cb4JtBDBFHShjpP7f278WBSR/pLzoAOyb4Bm+n+g/n2KcIf3nNaIqoDSgNPDbNKAA6bepXhWsNKA0EFUDCpBUn1AaUBqINRpQgBRrmkIJojSgNKAASfUBpQGlgVijAQVIsaYplCBKA0oDCpBUH1AaUBqINRpQgBRrmkIJojSgNKAASfUBpQGlgVijAQVIsaYplCBKA0oDCpBUH1AaUBqINRpQgBRrmkIJojSgNKAASfUBpQGlgVijAQVIsaYplCBKA0oDCpBUH1AaUBqINRpQgBRrmkIJojSgNKAASfUBpQGlgVijAQVIsaYplCBKA0oDCpBUH1AaUBqINRpQgBRrmkIJojSgNKAASfUBpQGlgVijAQVIsaYplCBKA0oDCpBUH1AaUBqINRpQgBRrmkIJojSgNKAASfUBpQGlgVijAQVIsaYplCBKA0oDCpBUH1AaUBqINRpQgBRrmkIJojSgNKAASfUBpQGlgVijAQVIsaYplCBKA0oDCpBUH1AaUBqINRr41wApLCxMKmlgYIA3b94gODgYGTJkQPz48XWV5zP8PrqkfaefD//+9OkTDA0NES9ePF3+7969w6tXr3T/8ztjY2MkTJgQX79+xdOnT6Xc1KlT/608/XL+lyyanFHl/l4eUb+Lrs7R1TXW9BAliNLAL9RAjAPSly9fwB8CAH8THO7fv4979+6hdOnS8r/2w3rSGLV3EiRIIGBDENHyIEh8/vxZVMLPz58/j8SJEyN//vySD79/9uwZbt68Kc+8f/8eHz9+RLly5ZAyZUp55+zZswJOBQoUkPIoG9/j3/xh/voyaeXxOf3vtef5LPOlrJSTf/NZ/h8VcD58+KADYa1sykkZ+Tzl0N7X/uZ3zE8fdH9hn1BFKQ38Ng3EKCCFhITg6tWrIGNJnjy5sJmcOXPi7du3uHXrFlKkSCGAkSxZMuTLlw9JkiTBy5cvcf36ddBw+XnBggXl+WvXrqFEiRICPoGBgfJ9xowZcerUKTFk/l2sWDGdQRNEaNAEH5ZbtmxZMWoa+5kzZxAaGioGzv+zZMmCrFmzyt+XL18WBsdnKRNZ1MWLF+VZysI6Xbp0Sb5jHo8fPxZwo+xGRka4e/euAFr69OmRK1cuHfgwb+ri+fPnUgfKRrmLFy+OBw8eCEDzf37H9wnWzP/GjRuiE5bB/NKmTftNFvnbeo0qWGngX9JAjAESjercuXPCVgoXLoygoCBhRiYmJsIiCAoEJxo8AYaAUqhQIezatQtp0qQRd46GTwNMly4dTp8+jRo1agiwHT9+XECuTJkyOHnypAABGRLdMv1E8Ni3bx9KliyJTJky6cCKIEVgKFKkiMhHF46ARTnoSubJkwcPHz4U8ClfvrzUg2yNz9AVPHLkiAAGgfLChQtSbvbs2QWckiZNKjITfAigmkwEYAJb7ty5BdzI4Ag+lI31YZ1ZT75H/dStW1eep3wEP+qPsrFc6kAlpYE/QQMxBkg01hMnTgjo5MiRQwyZ4EE3iWyBIz+NnUZJRkQAIAMhWBBoCFQ0YjIHgsmVK1dQvXp1McZjx44JQ6pYsaLkSSZVtGjRSO1Dd4jGTfbB98g+NJeQZRBgCICU8+jRo2Lohw4dEvkIAHSTAgIChHWR9fB5un1kK4cPHxZg5busR506daROLI/AQUAiwKZKlUrAh7KwTDKvatWqybMskwyI5RF4K1euLMBKoGK9mefu3btFd2RGZJIHDhwQkCNYq6Q08CdoIMYAiQZEsKBRkiE9efJEjJJ/0yDJRsg4CDBkAmQjBAgaKlkDXR5+/vr1a2EfZCkEDbIIMhQaeaVKlQT0CGo0VP1EBkV3ju/yR4vl6MeQWB6f08ok0NF1o4wvXryQvCkLQZHyEdjIgsjuCJoEJIIVmRtZDetIoGTdCUylSpWSuBXLZl34bpUqVeR/5k0WSRlYN+bHZ+ky8jkC0v79+wXcyP4IhGSJzJOfqaQ08CdoIMYAiYbP0Z7sh4BBg6Xx08D5Nw00UaJEEmOhEdMwGcuhcdKF4nd8nuBARnDw4EF5jyyCrgtZUdWqVQXkHj16JCyKoKTNjJEZsewKFSpIXlrSYkj8jIyMZRCICHZafIhlkL3Q8BnjIUAQDOh+EURYPvMlIBGsCFT8nGBCF4v1Zb5kUYyTUSYCCsvRgtP8ns+R5TFvls1yCWZkcwQkurhkhpRVk4duJuNJKikN/AkaiDFAorJo/DRmGjBjJDQ2GjUZAj+joTGWw8/IfGiIDEDzHRo7P9Om5glaBB6+w3yZBwGMQMDP+S7/12bLCAx8hqCiuWuay0bA42eUSXufZREQyIz4LmNBmTNn1s2U8TPKTICh60WQ5Lv8m6yKif9TdtaTDI+MR5OH3xN06JqyvqwDn+e7/FwLjtNVJBDVrFlTntHkYdCc8mgziX9CZ1R1VBqIUUDSAIC/NeairSPSVK0ZbNQ1P/rrjbR89I1bv6n089bP51vrmn5krVHUrhBVbn35o6vnt2SOWk8yJTIruq4EOzIuxqs0tqdf7rfqqbqt0kBc1UCMA1JcVVRM1YtuKNkRgYh/kwlxlo/gpJLSwJ+uAQVIv6EHkAVpbqi2OFKfVf4GkVSRSgOxQgMKkH5TM+i7l1Hd1d8kkipWaeC3a0AB0m9vAiWA0oDSgC5GG/at6K3SkdKA0oDSwC/WgGJIv1jhqjilAaWBb2tAAZLqHUoDSgOxRgMxCkjaUSL79uzFufPn8enjR2TOkhm169RBhowZYAADWUS4YcMGfAj9wMNHIiminqmp7Alj4l64zRs34fadO0iQID7KlSuPKtWqIj73igF4GxKC3bt24dLFSzBKkli2pfCHa3q0WaxzZ8/h0OFDCOFCzbRpZYV13nz5pNwjh4/gwf37kSSgfImMEsl2D+NUxnj18hV2BeySbS8pUqZAxUoVUaJ4Cd2Ofq4p2hUQIHvTPn0K3xbSuEljJEiYEDzlaevWrXgSFBReTb1jnwoUKAiTMibhx4sYGOD6tWtSlxcvXiJt2jSoXbsOcubK+cO7/LmYcuOGjXj29Cls7Gx/a+daOH8B3oeGonWb1rJI9Vtrw2JCSK5m9/byRtasWdCocWPdKvmfydvPzw83b9xAj549ZfuTSr9HAzEKSFx1bT9qFDasW49Pnz+JHcaPFx8FCxXExEmTZI8WV0A3adRYViRHTb6LfVGufHl5pp2ZuazV0Y4V4Xqd/gP6o1fv3rKa2nrQIGzdslX3PbeWjLK3R/MWzaXctWvWYOKEiXj18iW+hoWJ8ScyMoK3txeq16wBaytrbN2yJVyECLAwCIMY0YzZs2TD7UALC+zdsxefPn+WMrlWyM19suxle//uPcaNG4c1q1fLxlwaHsGwcpXKmDlrljzfuWMn2T4SNXXo2AFDhgyBUeLEOH78BEYOH47bt2+LnIYGBkiRPDkWLvaV0wl+JHHLjrXVIFwNvILLV69GAH30B9/9SH7/n2eaNm4i+xHnzJ2LvPny/jCo/kyZLKdMaROUKWOCSW5uyJI160+X16d3b+zZvRvbd+6UDc4q/R4NxCggHT1yBFaWA/Hx0yeMcRiDHDlyws3NDUcPH4b14MHo06+vAET9eqbIki0rGjduEmmbR4OGDZEpY0bMmDEdU3ymoGixYhg4cCCuXLkMF2cX2ZDq7umBa1evomePnrIbv0/fvsJ0xo4dK3vVFvouEhZmZ2ODgwcPwc7ODpWrVoHfmjVYvMgXRYsXw5KlS3HwwAHZZc/Ewy3J5mbMmIFs2bLBZ+oUXL50SepSo2ZN9OjVE2dPn4GXl5fsV/NdshhnTp+G9SBrASNnF2fZezZp4iTZBrJ02TKULV8O7c3Ncf7cebRq3TpSJyeTIpv7/OUzJowbj0ULF6JmrVqoWq0qDh44iD179sjeubnz5wnIRU1cw8S9cqHvQ2GU2EjYpNVAKwGkwGvXIq2S53PUB/fUceTX9sXxc4I9V4xzC83Xr2F49Sr8M26xIYBzgKHRM6VIHr6FJl78eLKvkGVyYSdBmoNFuB7DZLDhd/MWzJcBSGPNLI/bgbgViHLonxzKd6k/PsPn+b120ijzZnlMLI9bjygXP+OzpUuWQtmyJpjs4anbSsQ2oQz8ndjICCmNjf9W3utXrxHyNkT0Qfbcp1cv7Nm1Czt37UKOnDl/jzWqUhGjgLRjxw4MGzJUNr5u2LQRBgaG2OK/GRYDLNC3b18MGmyN4DdvBJCq16yJ0aPtEfTkCYwSJUIm7tviSY4ADh86pDugrXiJkggJCZaOV7RYUQEkultb/bfAzNwcDRo2kI2t5mZmePb0GbZu3yb74iwHWAjgHD91AoYG8XDmzGl06dRZOu3ylStk35mW2LEpu0X//ujcuQtsh9hh2dKl2Ld3H3r17oWKlSrJsSbdu3UTZrT/4AH5f/eu3ciSNYswJhpbj+7dcezoMcyZOwfVa9QQlscNvx6eHtLJ6WZmzpJFtyqbJwR07dIFb9++g7+/P5IlT4bbt26hU8dOkt/CRQtRqHDhSG4PjXGtnx927tgpm5LTpU8Hk9ImoMtx+9ZNBF6/LtUKfhOMtWvXyiZlnkqQhGcxlSqFlq1ayhlNs2bOxLFjx0G2VqtWLdm3N3LESAGFkSNHokDBArIheuaMmeJGtmjRQv5OkTIlcuXKKUe3fPzwUUCnfccO8pupccNGOkAiyyTbXb9uHQ7sP4DXr17BOFUqlClbFu06tEMq43DguXPnDnwXLZLTQL9++SIDUd68ecXlbdy4sbQzAWb9uvXiIr8JDkaO7NnRoFFD9O3TF2XLloG7h4e0bVDQE2GtR48ewZvXb4TxVqxcCe3btxfg/fL1C3YH7MbGDRtw/8EDAWRT03rw998iA+fOXQEKkH4jMMYoIHEjac/uPWRrxIhRI+UYEA93d9y4fgOuY11Ru25dvHj+HA1MTYVeJ0qYSOIeHHUrV6mKESNH6GJA1AmNY8f27dKZ2Tk7dOiAYSOGI/RDqIyoHLU5gnLUbNSgoYzsy1etRDxDQ3HXli9bBkurgXL2kN8aP/m/d5/esLaxkWe0ROMneJDduE12Q9Vq1fDy1SthTQQuduSrgVfRvl075MiRHavXrg2nVRFpnd9aObht3bq1SJsmLVauWY2UKVKinbm5fF7apDSCHgfh44cPyJY9O6wGWaFk6dLC7GjAZEY+U6dKngRHysK4FWWpU7duJOBcvmw5xo0bKzG4/AXyiwE/uP8AHz5+xJfPn3D1xg1hEN5eXpg3d54wAxo4XcInQY8lPmU/ZjROnzwFKysr9OvfD1aDBsnZTs2bNhOGZGtnh/4WA7BqxQo4Ozqhe88ewgwHWw8W8MyQIb3E4s7zQL7nz9G0aROMcXCQTcT6gMRznSZNnIglixcjSZKkcpIDy3n58oUwT08vLwHefn364tjRo/J+nnx5cf1aOKiy/fv27SPttdh3sfSld2/fCkiT9XEgYl8rEwFImTNlgoODI1atXIl8+fNLTO/EieN4/OgxzMzMpN4H9u8X4H308KG0BQeBO7dui96ZpwKk34hGjJ7E5DokxkCOHTkiI3zYVx7gD3z+8gWdO3XCqDGjBWw4YtY3NcXLFy9ldz87qXZSovVga1hYWoYHmsPCcOr0KbRray5GUrRoEcydP193pKsWLOV3Lk7OWLx4sbxrYWkhTIsByv59+0nnNowXfvZ1qRIlsHj5MjkGRD+R6VhZWqJg4UJYvGSJyCkbWyOC0TTwEcOGY926dbAfPRqdu3QOd1Ei5CyQL79sBeFovHLVKmTNlhWGBoYCYDzcLWmyZChZooQYGIGGjMvbxxvPXzyHaZ16aGtmhrHjxupcLYI6z2xycHQQd09bKkbm17J5C9y5fRu9+vTGQCsrkZWu5BRvHxgaQBgSQXDwIGvcvHULy5YvE/eQJwy0btlKgIlxMB53QmbFQD/LXrliBTw9PKUsxq5WrFqJSZMmYc7sOfDf4i+AOtg6nOFuY5wlZw5hc6Z164mbSxZYvESJSIBE9lGrRk1hzEuXL5MTE7ix2LL/ADx4+BAeXp7CsoYPGyanPHj7+KBU6VIS3G9nZiYsuV+/vujctasw3lMnT8LJxQXtO7QXIGPcbOu2rShXtiwme7gjfvwEqFalKkqVKikAT4CjLmxtbHDnzl1s2eKP+fPmY8WKFVLvKdOmyikPW/z9MdByoPQ5BUhxCJAILOw47PxNmjYRdrF/3z5cuRKIIUOHwryduYxCLs7O4poNHzlSntm2dRtGjBiBlClSYPvOHeEsCcDTJ0+EpjOeQ5emYcOGMsoxxkDDoYH6+vrCbeIkVK5SRWI5DEi+fPkKDmPGYPeuADAulT17Dlw4fx4BO3eiQaNGwtbYEbXYhaODA1avWo3J7pPRrHlzHQAQUd+8fo3Zs2dj5vQZqGdaD2McHJE+fbpwNhPRdvPnz8fdO3exdesWJEyQEAsXLUKu3LlkRL954ybq1auHho0bSb4a2GzcvEnq2cC0vridbpMn6wCJwXCe+zR+wniRPxz3wuSspB7duktsZP7CBXK6JRP13rd3HwQ9fiSAtH3bdgwdMkRO71y3Yb0OPJf4+mK0/WgMGDAAVtaD0LdPH9y7ew+z587BULshElRnYnxs05bNmDzJTdgt24TtSIbEQWTLtq06N5KAxDgTXaZKlStFAqTAK1ckttWzZ09xg7X4FT/bvHmzuPEE/hnTp6NO3TqYPmOG6DTs61dMmzoN7pMnC0Nq3bYtzNuaSfyJ7rKWeJYWWZ0WWzxz+gwGWlrKhATde8bBqCvG5TiJ4uTshB3bd8gxx4zP8cgXTbdNGjdB4OXLCpB+Lx7FLEOi4bITE3hGjbZHPMN4csJi7Zq1ZEQeN2G8BCPpGiVLxrOo00mHZOyAbIaj3u69e3DzxnVxw0qWKg3jlMZ4H/oerVq0FDDjSMxYCGMedEkWzJ+HjBkzYdz4cShRsqSok25Bh/YdULRIYcyeO1fcFuZH42ennjptGkqULCFGxbI5Y0c51m/YIEClMRK6lzNnzhSXg6zB0dlZAudMpPxXrwaiQMFCslSBTG3M6NFYsXwFRguL6oL7D+5LsDh9hvQSJ2NydnLGgvnzsdnfX8DYrE0bpE2fHn5r/XSBXDIZGtDU6dPk2F+NDV6+dFniWGRs+oDEpQ8El8ePHgogEeAJSDxFwG/dWl0Xmzd3LpydXTBgQH+ZZGCcbKyLK6ZOnw5LCwu0pixp08DLyxt2drYyEcBY2LDhw3WARMBf7bdG8qTOCAh01Rnb43IJncs2f75MRgyyGoRevXqJG5ggYfiSjAH9B4gr3qdvnwhAmiH9Y/rMvwCJIOU2yS0SICVMlBAHDh7U1Yfsh7N6Akge7jgdAUg8ZI+skExZXGuDcFl54ij7jAZIdBu1uUjmw4FPMaTfi0gx6rLNmD5DWEGLli0wbsIE6Qy3b91G7Vq1UKt2LZn6pyvXpnVroe8cpRifWb1qlcyiMdi6Zq2fTIOTEQ0dOhQdOnWSaffaNWrKCO7p5SnHutqPHCXBXbp802bOkAPSNCMhk2hv3k4CrctWrpBOx8Aug+mclfKZMkViInSz5s6ZgwnjJ8DJ2VlcAS0RHMkaSOdLm5jIO2nSptGVwaCy7WAbNGvRDA5OThLLsbWxxYb16zFk6BD07tMHPbt3x5XAQFhbD0ar1q0ESAg2BOT1GzcIIA0fOkyM09PHG6amphLrcnZyRIb0GYTd0N3TEpmnuGx37sjyh4FWA4V1kE1Q7wYIkxgSj9yly8ZlE9QnDZSzSm3btBGXjVPkZLBcp0WAK16sGI4eOyYMk4Hh7t26S/yFDIfsqULFiti/b7+4bAQk5qmlbwPSPHGN68iaqlxYsnSJuLQXL1yApYVlOIh5eODTp48YMXwEUqVOJTouVbKUzPYxCB14+YqAVpdu3WDRf4AcUezs6iLfkfnY2dpJcJpB7cnudNnio1rVatK2Xj7e4rJxjdimjZvw4UOogPCkCROxcuVKAVq6zRwgA3YGoH+/ftKGCpDiECDxNg07G1sJNDZr1gzpM2SQUZYdzMraGt27dxejHDd2nMQsGITmCYoEENJrxgFq1KyBTRs2CdvgWiZO7TN+wdhD7dq1pUPOmTUbc+bMkVGPBpI0SRLd2kOXcWPFqEaNGCmH9pOWFyteXIKZPDqWx+B6T/GRjsh4SDvzdrJwcs26tbrTKjmKM2a0fPlyKSNvnjxi+Nr6RoIHgXXY0KFi/GQxlJ8GwyA7p7zpTm3ZsgUjhw0X9lSgYEHRC2fG2rVvD7shdgLGnIEia+IsEt9lsN4okRHshtqhS9euf+sdSxcvwbixYwWkCxfhDBxw4/o1fPz4CV+/fBaGRDDlEgQyO+qmeMkSuHb1mpRPfTg4OYqOCAo21oMloJzSOCWWr1wpp1TWqFZdGFq+vHkxa+4cmZzQXLacOcmQwgGJemrZrLnEg8hQqlSpisaN/pplY9s4OzmJO8y2LlykiLjOzJvrtchUCSy9evbEqRMnkSp16nAgDAyUCYDXb96gb9/esLa1w6IFCyTGxUA2mfD7d+/CT9d88gQmDGp7eiBTpswYYz8aq1evloGK698OHTyEoCdBaN+uvbj7e/fulbYNevwYufPkRkrjVLhy+ZLo8UNoqAKk34tHMeuyMXDM0Z7Trjdv3hLwYcyB08ptzc2QLm06MPLy+NEjmabmCP3u/bvwZ2rXRqNGjQQAaMBkGrt27UZQ0GP5jHEB83bt5LYRujycXtctaBRuEJ7IGnizx8ULF7HY11cAg52YbITne3fr0V2YGBNHTydHR5l56tqtKxIm5Jqf8Askp0+bJu6clriKO7yMMAwfMUKA9MTxE/DzWyOMhYCQJUtmNGnSVOIhWiLDYtCcU/xkZ0WLFEWrNq3F8Jm4FGDzZn/s27cXIW+CZVq9fIXyMtUd3Rqkz58+y2zhzh078PT5MwFRgixBnW7k0uXLJV8G0JctW4ajh49I8DxpkqQoXqK4BNCpS+qUM3ULFswX4CZjJctgma4urjh39qzIQabHmaizZ85iio+PuKcurtzDdHIAACAASURBVK46t5bs5vmzp7AYOBDFihfDMLshCA4JwfDhIyS4z+OGOfhwqQbXMZEJmZiUEX1TduqarI1MlbGwr1++CtCyDcmSmzdrhvYdO0p9Vq9chYBdAbKkgauzGfDnwEQ3mhMa7EcEXc5Eck0cyyMrY2yre48eMqiwj27dtg0b1q7Dg4cPkCxpMmkvgvPli5fg4e2l2y3wm23zjyw+Rl02bdTkTBo7EBufMRl2Yi2gqcVntPOpCVp8hj80Em12K8wAsm6FsSJ+xkB2eHwHePc2RABAS3+FlyHrSrTtI+yQT588FabFGE6GjBn/WsTHM6+DgyUgSxDg6mj9xHL5ngEFERj6a5qfiwG1W2UZWOd6F9Y1ecoUEphn0o6fpZvJZwg88RMkkHL0gUa7rZZykNmQNTF//XPBNb1qebIs6phAy+dTp0kjDIu6zJoliy7m9IXXiD95Is8lTJBAYlWJEnFbS0SdwsKEhVAPbB8atHZBAWWmvuWeOQGvULx88ULconTp0+vYItkHQYTtw/gcGSDlIxBoix/Jgigv65fYKLG4vvr9gWVSRu1cdLKpcDleIXnyZLo1Y2SF3IrDfKijVKmMZUo/oW6xJa9XN0Dohw94HlEeWSeXYnBpSUTDyC/GB9k/KAf7pyw0DQ2Vv6Mu2vwjkeE3VTrGAek31UMVqzSgNBAHNKAAKQ40oqqC0kBc0YACpLjSkqoeSgNxQAMKkOJAI6oqKA3EFQ0oQIorLanqoTQQBzSgACkONKKqgtJAXNGAAqS40pKqHkoDcUADCpDiQCOqKigNxBUNKECKKy2p6qE0EAc0oAApDjSiqoLSQFzRgAKkuNKSqh5KA3FAAwqQ4kAjqiooDcQVDShAiistqeqhNBAHNKAAKQ40oqqC0kBc0YACpLjSkqoeSgNxQAMKkOJAI6oqKA3EFQ0oQIorLanqoTQQBzSgACkONKKqgtJAXNGAAqS40pKqHkoDcUADCpDiQCOqKigNxBUNKECKKy2p6qE0EAc0oAApDjSiqoLSQFzRgAKkuNKSqh5KA3FAAwqQ4kAjqiooDcQVDShAiistqeqhNBAHNKAAKQ40oqqC0kBc0YACpLjSkqoeSgNxQAMKkOJAI6oqKA3EFQ0oQIorLanqoTQQBzSgACkONKKqgtJAXNGAAqS40pKqHkoDcUAD/yoghYWFwcDAANrv36GvqDJ8S5aon/N/JsqvktKA0sCv0UCMAtLnz5/FgOPFiycgpJ/4+devX+VzQ0PDX27oWtmUg+XrJ30w+vLli+57BUa/phOqUpQGNA3EGCDRkAMDAwWM8ubNiydPnujAJ0mSJEiePDkePnyIly9fokiRIr8UkAg4Dx48wJs3b5AiRQpkzZo12h4QGhqKW7duIXv27KDMCpCUoSgN/FoNxBggkYE8e/ZM2EWyZMmwb98+MX7+/+HDBxQsWBBBQUECDHXq1AHZVKJEiSLVloBA8DAyMpLPmSeBjiDHPPi5xm743MePH+WZxIkTR8t4NJamAdKFCxeQLl06lClTJtLzzJuJ+R09elS+NzY2lrL5GeXk30xangkTJtS9wz+0//k9f5gnP9P+jx8/vgAcP9dYJHWQIEECHfC9f/8efE7L69d2BVWa0sDv10CMARINlgavMaT9+/ejZMmSSJ06NQ4fPow0adLg06dPuHv3LlKmTIng4GCkSpUK5cqVE4O8fPkybt++LX9ny5YNhQsXxuPHj4V1EXRoyGnTpkXx4sUFmG7cuIGrV6+KwWfMmFHK0sBKn9nou467d+8WkCTgaJ+zjPPnz4tslJEsijKR0R0/fhzPnz8XtkSgoLwEzdevX6NWrVoCqqwnyy9UqJDITlkvXbok9aQ8rD9/Fy1aVAD54sWL8hzLog7Kli0rgHfkyBGEhIRIOSVKlECGDBkUQ/v99qEk+MUaiDFAonGeO3dOAKlAgQLCkHLnzi3GduXKFeTLl08M7s6dOyhWrJgwDgIYgYTgQEAiCGnglCdPHjFOGjCNmUzi7Nmz8gwB6cSJE7r8+QzL5DsaC3n69CnSp08fiW3s2rVLB0jUM2WmnATIHDlyCCDyvYoVK+L+/fsCiMyXz7EMPkOAOXnypDxDEGOdK1euLKyQiaBz+vRpqS+BjHUkCObMmVPYF38TbAi0BDeC3/Xr1wWcqBe6utRRtWrVdHn+4j6hilMa+G0aiFFAItMgG6ARk43Q0GmUNMgsWbLg2rVr4rLVrVtXmMTWrVsl3kRwYmypSpUq8jfBhiCVOXNmYRomJiYCSMeOHROQIRAQPMhMCFp8l+yJYMVE42ZZdBNZvpaiAhIBYc+ePShVqpSAxKtXrwQ0ypcvjzNnziBp0qTCpghye/fuFTBingQx/s3PCVb6LiABiPJozIc6effunbArAjOZFdnXzZs3RUayIYIT9UNdkH2RLZFxMZalktLAn6SBfwWQ8ufPj4MHD8qIT8PV4ic0VgJSvXr1RMf+/v7Ccgg2DCZXrVpVDJwMhO8xjqMPSAQqujqMsZBRMTjO+NG9e/cEUDJlyqSL8xC0WK7+jFpUQOIz/IzMinIQJMhWKlSoIO4g3cTSpUsLONI1YzCcZbI8umVkgwQjyqol1oN58D0C8aFDh4QlUjYyJ4IfwYeAR3eQYEugoqwEMQb+ybooA+uqktLAn6SBGAUkLYZEd4WGyNFf36jo9tDgGNSmkW/btk2AgK4QQYgMhayDDIIshe4LAYnGTdA6deqUGH+uXLkkvsPnmQ+NmQZMt+l7a5/Ihpg3QYCJLE2LRRG4CDD8TZAh6BFUCVpMLJ+gQkDiezt37hTAYV76QWgyPMbMyHSY6F6yTMa+yJbo0rEMvkPwpevHwDnZn7Zmi/XTYlJ/UmdUdVUaiDFAIhDQCGlUBAaO/mQ4+rNIDBjTfaGrxfTo0SNxi2jYNErGb/g+QYeGzGc1d4dGTFeIhsx3aMyc1SM40F2LOmMXXdMS4Ahe+oyG+bx48UJcRbqYjHNpcvNvykxA4XMELMrKZw8cOCAuFWNCUdc10RVknpSJP6wbdUL9ME+6kfxNMGT8ifXh/6wf6035WJZKSgN/mgZiDJD+JMXR7aRLR+ZGEPuRREBjbIiASMBjwJxARIYVFdB+JD/1jNJAXNSAAqR/2Kpkgowfkalps3o/soCS75HtMb709u1bYVqMtekzyH8oinpcaSDOaUAB0k826T/dn/dPn/9JsdRrSgP/aQ0oQPpPN58SXmkgbmlAAVLcak9VG6WB/7QGFCD9p5tPCa80ELc08K8A0o/ES6J75nvvyd4znk0UccZSdM3wT84w0j3LjCLOPIq6himqPP+rXt96/ntro1i8Vjft5KWo///uLqdfL92hMt9ph/+vvPr7D39kwuD/W556P/Zo4JcCkr5hfk8F+oe6RQWZSMYRzZlL38r3W2Cib2Dau5oR6BtG1Hw1GcPxzACSTxQj/ZthaaAajZD67/8v4PvV3UerB9d9HT92HCVKlpBtPf8mWPyTweVX60OV9+9pIEYBiZ2I621WLl8he7/eh4YiX9686NSls6yuZnobEoIpU6bgbcjbv9WqW/fuyJU7/DkurJziMwXXrl5FqtSpYW5ujkqVK8nWk9WrVutWUOtnwhXWVatVlbU+WuLCyaNHjuDWjRvInC0bqlevHum4j/nz5uP4sWOywLJM2TJoa2Ym21BYj5kzZ+Ld23d/k5PG2KFjB92WkpUrVuLVy5coULAgLCwtZN+alrhAct6cubKynOuNmjRtihYtW+iOTGG5B/bvx5pVq/H0+XNkzpwJrVu3QYWKFf69Vv+JnImlrs7OWLVyJSpUqoRp06f9a4s3qXtPD09cOH8eHl6ekfT5E6KrV/5DGohRQOJq48GDrGV/GLeMcJUyV0dzZba7hztKlS4tQFO/nqmsTObCwDDhFuGu2Kw5s2FSpgyuBQaifbv2sl4ndepUsln206fPcHR2Qp7ceTDQ0hI8O4guDt/++OmjAEevXr1gO8RO1vZoifvCOnfsJKuk69Stg9lz5shXBIr25u1w89ZNpE2bDvEMDRH0JAgmJmUwyW2SnJvUqGFDvHj+QpcXV1yz3DImJli6YjmWLlmK8ePGyZok7ql7/uIFUiRPDr91a2XfG8s0a9NWdu9z9TXBh5/17dcP/fr3E4Nevmw5Jowfh3jx4iNFiuR4/fqN1NfRyUlA728sRKeu8OOBtRSdWxiVtX3PTY7KBqNjP7NnzcJi38WoXacO7Efb68qPzlXV3OuorFNaLMxAmjycVEauBz+jnvv07o0D+/bjwOFDMkCo9GdoIEYBibvgbawHCyC4e3rIzvxZM2Zi9erVwhwsLC1l/1l90/ooUCA/OnfujHhkM+J6GaC0SWlZxezs5ATfRb4wb2eO9h06YP++fZgwfgJq1qyJUfb2uHnzhmzfCIuAJL/Vq7Fv336MdhgDMzMz3cpnsqnevXrh5s1bCPv6FVWrVcPsObMFxFatWIFhQ4fJnrkRo0bKlo2JEyZg7569mDptKmrVro39+/aLcTB9+foVO7Ztw8YNG2A5cCBat20Dm8E2OHP6NNzcJyN7tuzw9PDA7j27YW09WOo7a+ZMuE1yQ8NGDdGzd298+vgRLs4uePP6NZYsXYqEiRLCetAgHDl8GO4eHihWvDh2BQRgsttk0d3a9etk24o+2HBvH3VIkKcOuN2G++SYuPWEG4Q/fvgg7+fmcSw8LjjcmxT4JmjeunkLnz59RIaMGZEje3ZpAw3aCJjXb9zA+3fvZFDhXkMCLgHq3t17OHHiuMiZOlUqPHj4UHStHRtDOSnbndt3kCp1Ktlaw/cIsLIgNOQt0qRJjVw8lsbISFcm36PcQY+DkDxFcuTNkwf9+/dXgPRnYFCkWsYoIJEZ2dnaIlPGTNiwaaN0Rv9Nm4XR9B8wAFbWg8S1aWBaH9Vr1sSwYcNw48Z1JEmaFPkLFEDCBAnEFVu2dKmshu7Zqxfy5ssrHbxWjZqyG55Ap8Uv2JFD3r5F/br1YJzKWIyaR58wkcmMGT0a69etR8OGDWXDKw2XLIysjCO9w+gxaNO2DcaOGyeGNX3aNAGQqdOnwdTUVILdmqGSUQ2xtZNd+jt27hB3dNmSpcJ6bIbYyXPeXl7w8vRCx44d4OTiAov+/bF37z44ODqgZevWggo+3t7w8fbBmrV+wqIsLSxx6cIFnDh9SmTgBuWe3XsIQG7cvElWdOuzoHGuY+XIFG4mvnP3DsK+hmHBooU4fOiwyE/AostDtlW5ShXY2NrK3jnq6uSJE3Cf7C5nPRHMCP7NW7RAh04dkdjICJcvXYK3tzeuXL4iJx1w/12ZsmUxctRI+XvhggVYtGgRGjdqjBq1amKsi6s8N3fePKRLn07K4DML5i/AAIsBaN2mDa4GXhW9cGM1wZ2suLSJCUbZjxKwZXsTuDdu2Cj7BglUlSpWlK05BHvFkP4sVIpRQOLo2q1rVwReCUS/fv2QN18+jHV1xdewMExyc0PFihXw/NkzcdmMU6WS/Vxv370VFl+lalVhLwl5rK0ejWcn37hxIwYNtEKdunUx2X2yGIfmUixdsgT2o+zRvkN7ODg66i4Y8PPzg+MYBznuo9+AAbCxtpad+gQkpmdPn6K+qSkSGyUWsEyWPBmcHZ2QNXt2eHp5IhvPItK7NYVA1M7MHO3atcMYR4dIvUSLnVkNtMK2rVsxdNhQ9OrdGyOHj8Ca1asxwNJSXDQDQwMMtRuKtX5+Ano8F2runDkCEnQPm7VoLs/zFITBNrbo3af331w2usRr166FIcHS0FDOZ/Ke4iP6odE3bNRIjjfx37xZjknp07cPhg4bJq5z3dp1BEC4oZcAvn3bdgEJxoMqVKyI/v364eCBg6hRsyaKFi2CHdt3yFlNBHSW4e3ljSk+PjAzN8ew4cPErb5+7RomTpqIxo0bI8zAAC2aNhMXdfGSxcLQmCdZJ2N3PIxv544dMtjUNTXF9BnT4bdmjbTfl8+fUbhIEWFIR48cxUceH2NoqADpz8IjxCggsbPT2EaNHAWjxImRKGHCcBetvilGOzhILIAzNRJDCg5GtRo1kD9fPhw7ehSnz5yRmAlBRYst8DdHSrqBdBecXJzQrHlznQvz6tVL9OrRC1euXMacefPE/WLiwWd2NrYIfvMGS5cvFyZhbTUoEiCRQTEmQraSNFky8B4Ssp6uXbtigKVFpNMaCTiDrAbJmUgzZs6QUx71ExnJpk2bhDFw1F+02Df8zKPTp9CnT198CP0g7O7T5884ffIkgkNC4OntJUZ8+tQpDB86DHfu3hU2FBIcgsxZMmHKtGlyBEnUOAsBaf369XJsyUj7UXKo2+ZNm2FrYyPAYTfETtxfBtGHDR0qJ1fOnD0Lq1auEjCh/pycnYSp7ArYJYfkcTIgf4H8aNO6NSpVqowxY8YgQcIECLxyBaNH2ePd+/dY7bcGWzb7w4eAZGYGl7GuMung6e4uAOXg5Ch1IFutWasmxo0fjydBT9CsaVOUK18OYxwcpE9wksLBfjRevHwJ3yWLMXfOXGzx90eHDh2kPow7Msjfr28/fAgNVYCkAOnnNcDR1c7OVlgHYyhkMoyJrFu3Hv3695fRmi6On1/4CN+seTMJBtPQCSCMVewI2CmdkgyIrgVZC0+f7Nu3L/pbDNBdAEApt27ZgpEjRqJQ4UKYO3++ACDBYeiQIdjqv0WYSYOGDXD+3DmMdR0rm2HHT5wg8ZcN6zdg1MiRMCldGu06dED8BPGFnRw7egyuY13RqFEj3fokHqDWumUrYRZjx4/728FpNCAHBwcBE5+pU8JPkJSAcxh27tiJLf5b5BwknqfE2MucOXOEqfE5urinTpzEIJvByJI5Cy5evIA5s2Yjf8ECmDZ9ugTX9RMBadPmTbCwsJBYFvXEmNPUKVOQK1dOpE1H1wkSr2JAn+eTk/FNnTpNYnGDbWyEeenWOkUEyZcsJtMcJe4wfyg/WQvrzjRl6lTRowCSuTlcXF1w985d1KtbV9jUZA8PLFu6DAsWzIf14MHo2bMn1qxeI6CYKVNGZM6SVXfC5tXAQGmnESNHyiF9PKVzxYoVKFuurDzD41vMzcxw8fwFBUg/b47/yTdjlCHRKBhDYUCS8SJ2Ls6mlSpeQqbjJ02ejOTJkknQ1DilMTJmyijPMG7Sv28/CcbuP3RQgImzcfyMrhKD3zZ2tkhklAiM6tCY3r19CxcXVwlOL/T1lSUBTASxOjVrhcdIUqUSF46dn/EJLgcoWqwovLy84ezsJAzBxdUVrdu0lnxPnjops2Lm7dqJwWnsxHawjTAJumKdOnWWGSLNZdy+dRtGjhghBuzo5IgGDRvqOgLLZKCW8SDGdOInTIj1a9dhtL29xIfIppo0aoxy5cuL+2IYLx4+hoaiccNGeP7yhRh/pcqVJT+tPALSli1bYGNrIzE26oLMx8PdQ9xJkzLhh89pk5dkQmXLlcMY+9HYvn07LAdawcJygE7GiPkEcGLA1sYWpvXrywF6hoZ/zeBRb2SFXN5AmbgEw9nVRQaXvn364sTx43AdOxauLuE685niIzOqG9avF2ZZu3Zt1DM1Rbx4f92Hx3bJniMH3Ce54cDBg5g1exbq1KsHgzAg9OMHNG3UGLdu3lSA9J+ElZ8XOkYBad7ceZg0caLMhjmPdUWC+PFx7txZdO7YGQ0aNIDruLECFM2aNIGRUWJMnTENyZMllzjC9GnTpdPPnT9PAMpigAUePXyIxk2aoH//fhL4Zicmw0gQcYRtn1698X/tXQd4VMUW/nfTe0JooYMgHRXpTVSsoFTBhyK9CYL0TijS0ScIPKULCEoT6Yj0DtKbAtJ7SSc92ff9Z/cum5gAgQ3ZZWc+Mcnu3Jkz/9z57zlnzpybPTAQy39bYV6wzEjZuUPHBwtOB0RGRIo/hYuzWrWqYhZ+8/XXoqlxUXfo1AF6vRNWr1yJwYOHoFOnjujbv7+0wac5wwPoAJ49dw4KFCgoyg/NU8bkjBkzVrQ9aivUxrRskNzmpyna4tMWQsYDBg2Cj5eX7OzR8bzol58Fi6aNm8DX3x9zf5wLD09PXL1yRZza4uydMR0vv/JKCj/SA0LqjXbt24mMjPnq0qmzEBs1OBLIhvUbRCMqVboUOnbqJKb0oEGDULVKFQwJDkZAQDb8/PMi/LLoZzRp0gSNGjfGh/XqoViJ4uLT8vL2El8OyY85n+jYnvHD9BSERDJkoro2rVpLXic+PKjl0MnNhwrnjzuqNCsZSsEHBGO+1qxZCy8vTwwYOBDjx47Dz4sWifN85FdfiS9v9apVGCu4Ajv37FHb/k++vu3uSqsSEv09/fr2w6mTJ2Vx+Pv7Yfeu3bKgBgwaiAYNGiApMQmzZs3CjOk/QK/TIzB7dgl2pJlAh3WhQoXRq2dPSRFLAtLimfjIpzkyZOhQcY5qu1U0r5o0bWra2k75tlxtNmjy0enLnSn6U1joY+FnEldUsQJcXVxlcWULDMTEryfKAqNmNWXyd+L0JbEMNsXecCFyjN2/6IbzFy5ImIPla4vKvVQOI0aOFJOV2/pbNm8R04m2FMfavmMHdOhoNF9JjDSXmBuJ2+EkQG6R05xlG6nfOZeakDhibhTQbCPpvFC0KHx8vHHq5Cnpn1obNwMioyLRr3dfMX8LFMgPT08vcVgzEHX8hAlCGtRw5879EUG5cyNX7lw4feq0zF3ffv1Ei/xu0uQUhEQcqQU2a9pM5CYuY8aNRdOmTQVj4jdtylTMNu3C0SSlQ5uld58+aPZxUxw5fERImmOmKe3p4SFtMlQp5O49pSHZHaU8ncBWJSQuMJISd7joF6EvgCle6UilSaW9DZY3HNX8g38eRFh4GAoVLISq1aqhdJnScs3aNWtlpyZFMRjg7eMjjtu8+fJi/LjxiIuLld0s3sgPO8bARTB/3jxZrG3btpW6lPXwocOyiKmR8W/u8jRs2EDMDT7hKSf9InSad+/+JQoVLmQW6cb1G1izZjUiwiOMn5nO2ZEZ8+bNhw8+/EDGy90tmobHjx0VLYxb3q/Vfs2cRpffc7wbN/6O0JBQ5MiZU0wcxi4xNW/qsmDBAhw7clR202q/XttonRkM0g+Jb+eO7UKyHOu7774nxzy0V5fTj/X7hg3Yu2evOKq5Q1e3Xl35qb29Zce27RLYys0Izh2DSTk3bIMmH6+vUqWqhEtopEMM9+zmg0cvAZPUhLTCnVdqaps2bUZoSIjkT3+zzptiirJP4s4XNqz6bSX+PnNGNN4PG9QXf9X5c/9gyLDgx87K+XRLQV1tCwhYlZC0xaENLDVJpBnRa+EfedjZsbTAepyzVI/Tp+XZtfTaTC/KOb1JTOs8Xnq4aJ8/zhm2tCKyLa83cqPRz2b5M3Wd1HKnjvpOS9Y0o8EtzhOmPt9n7kOrYxFZbtl/eufWHgcPW1hESgbrIWBVQkp9Y6V3A6d1eNXyZn7Y8FJcq2klFqSW+lqzDMYDKuY31qa1eB62ANIjpPTkTovY0lt4GpGLG9mCTFIvWvPYTV88cDs/qPm4Y7Cs96iFn6KuRd8Pw/ZxCCetudII1Xq3uGrJnhCwKiHZ08CVrAoBhYDtIaAIyfbmREmkEHBYBBQhOezUq4ErBGwPAUVItjcnSiKFgMMioAjJYadeDVwhYHsIKEKyvTlREikEHBYBRUgOO/Vq4AoB20NAEZLtzYmSSCHgsAgoQnLYqVcDVwjYHgKKkGxvTpRECgGHRUARksNOvRq4QsD2EFCEZHtzoiRSCDgsAoqQHHbq1cAVAraHgCIk25sTJZFCwGERUITksFOvBq4QsD0EFCHZ3pwoiRQCDouAIiSHnXo1cIWA7SGgCMn25kRJpBBwWAQUITns1KuBKwRsDwFFSLY3J0oihYDDIqAIyWGnXg1cIWB7CChCsr05URIpBBwWAUVIDjv1auAKAdtDQBGS7c2Jkkgh4LAIKEJy2KlXA1cI2B4CipBsb06URAoBh0VAEZLDTr0auELA9hBQhGR7c6IkUgg4LAKKkBx26tXAFQK2h4AiJNubEyWRQsBhEVCE5LBTrwauELA9BKxGSAaDAVFRUdDpdPD29k5zpPHx8UhKSoKHh8czRyIxMVH61uv1cHFxSbP/5ORkxMXFwc3NTeqpohBQCDxbBKxGSFzsp0+fhpOTE4oWLYp//vlHCMDZ2Rn+/v7IkSMHLl68iDt37qBSpUpCXCQx/mSx/N3y70fV0eDS2uPfWptaO2yD8ty7dw/ZsmXDiy++aO7T8vro6GicOnUKJUqUgJeXV7ozYdlX6kqWfWv9pyVTenJT1tT1n+0toXpTCGQdAlYjJC6k+/fvCxmQlLZt24bAwEDRNO7evYtSpUohLCwMV69eRZ06dUBtiZqS5QImIZDESAb8XNNqSGr8ztPTU9rWSkxMjNSnRvYwQmJ9ktHBgwdFpgoVKqRAnO1Qfva3f/9++d7Pz0/ajo2NlX4pL/ugFsWf1KL4k9da/s2GWYfyuru7y+/8p9Xn58SEY2KbrKPJTg3T1dXVXDfrbgvVs0IgaxCwGiFxMR8/flwWW/HixbFz5068/PLLCAgIwO7du5E9e3YkJCTg0qVL8hkXHxdjtWrVZOS8ltoTFydJo1y5crh165ZoXTSxeC3rv/LKK0Jk/Pz69etyrY+PD8qXL29eyCQXkgBlsSSqLVu2wNfXVwiHdfjv8uXL+Pvvv6UeiYeEUbFiRenrwIEDQjgkCdbVxkA5SaocM4m3UKFCMmYWfnbkyBEZC0mH7VB+jodjP3/+vLTHvohBlSpV5DoSoSYTNczChQsrszFr1oTqNQsRyDRC2rp1K3LlyiWLksRCDSkkJEQIgIRA7YMLnguV5MGFSgLjojx58iRy584tmtJff/0ldbioDx06hGLFikmbx44dk0XLxU1C4e80tVioqbEffkZC0MrmzZvNhMTPSHIklDx58iBfvnyivfG6ypUr48KFC4iIqUZYKgAAIABJREFUiECZMmWEZA4fPix1OKZ9+/bh1VdflespX61atcx+MY3gSpYsKfIfPXpUZOC1lJ+f03ylzKGhoUJ+Z8+elXETI2qTZ86cEaIicauiEHAkBDKVkEgqNH20f9RquOjffvttWYDr1q0TfxPJieYctSWS059//ik/uYipVXDxk5D4ObUUmjokDJIDTThqMfxc8w2RkNhPwYIF0yUk9k9zjIRE7YokER4eLmRDQiIBUfNi3yw7duwQgiCh7Nmzx6yN0RQjYWqFmh7bIdHwuxMnTogmxGtJXm+++aaYmPSn8e+XXnpJCIhjfeGFF+TavXv3CrlSflUUAo6EQKYREk02mlc0v7TCxXnt2jUhJJa1a9fKIqSWw0VZo0YN0Tpo8lBroVlDjcOSkNgeTTa2RSKhFkINg/VJKqmd45aTmVpDIhH+8ccfsvBJjJSB/VE7IeGRJNkHyXHXrl1Sr3Tp0rh9+7Zod9TUatasafZ5sa8rV66IY5xEQ2c+cSABkXDowyKhsR3+HhkZKcRFYqIWVrVqVemff1evXl2uV0Uh4EgIWI2QuLhphtBvQ58KzROaIJaLisRB842LjYXaSYECBWSxchHS78LrqU3QVKL5QgLj71z8JCG2lz9/fqnP70kWJCXWeVQ4ATUPkgPrspC8qElxB05zTHMcZcuWFe2GWhJ9SiRMykUypMnI60hulIWkS9m0QnloTtI8pfZGc43/qPGQ5Oj3YltskyahphVybNT8NPyIoSoKAUdDwGqExEVK04mFC5BPf2o4ljE//J6Ljo5lEgA1EC581icR8BoWkgavY0wQ62tb8CQHzVGs1We/Wv2HaUdslwRAkrDc0mc7NPFIJCQ09snvSQz8nTJr8vEzbceNmg+1KpJp6pglank00zgGykvth7+TjNg/TVgSM802alhsn31RDtbjeFQclKMtRTVeImA1QtLgTC+eyPJ76dgUh6T9nt71aU1TWn2kbie969Kr9zAySx0LRQc8NSs651PHK6UXR0TCox+KZEXCoUObZib9T6ljl9StqRBwVASsTkiOACRNT2o1NB0fpZVZ4kFNiWYbNSE6zIsUKSJfK0JyhLtGjfFxEFCE9Dgomepo2o92yZMQiWUbT3J9BsRVVRUCdoeAIqQMTFla2lBGNCR2pY6GZABwVdXhEFCE5HBTrgasELBdBBQh2e7cKMkUAg6HgCIkh5tyNWCFgO0ikGmEZOkrkYQalqlGLP5O1wfDi4yZSWDxq8kHo5PvTF/L9yz8O7WPJj0nstZvuk5mU6MGpJ8i5XGn1VJ+7Zp/jYlpWB6SjiW9vlK0Y4GBzTjMmU5FC/GQOdNm7XHRU/UcCQGrEhKDDHn8Yup3UySSmlvbDRo1ROPGjc3HK65dv47Zs2Zh985dEgxZvUZ1fNaypRynYDCgdr5szuw5uHzpEnJkz46mH3+MRo0bSeCiFoC5ds1aLF+2DDdu3ECOnDnRuHEjvF+3rjk5HIMsly5ZipW//SZHPV4oWhRdPu+MipUrSz/zfpyHI0cOP5hrIQRj5gAelv11+XIzyY0cPUqisrdv346fFy1CYkKimfhYiRHcPXr2QO6gILmGqU6WLV2KNatWI/J+FMqWKYvWbdrgpZdfMvd38+ZNzJ0zB7t27pKgyKIvFkOrVq3kqAqDKTNCKEsWL8aMH6ajZ69eeOe9d41ym/JMZdXNzHliUGvw0GAcPnQIi5cuga+fryKkrJoQO+nXqoR0+NBhdO/eHWFhoXJy/9q167hw4Tzat2+PXr17y8Jr+VlLnDxxAvny55eF98+5cxKtPH7iBFnY69auQ/DQoXK0gkdPGLfD811cbJ0/7wxDsgHjx4/DrBkzUahwYSGaixcuyCHcL7p9gfYdOghhTJ06FTNnTEehQoURlCcIf/31N6IiIjBj1ixUqlwJY0aPwc4dO1JoYBfOnxcZOnbuhOk/TJejKQnx8di5Zzdy5c6NnxcuwogRI+Dv5yeJ3rSSM2dOjBz1lURtMwBy7JgxmDtnLnIH5YaPt4/Ixvo/LVyI/AXyS8R2t65fSMoVkpSfr5+kH/Hy9sbYcWNRo2ZNIZTH0SW48GfOmIkxo0dj3Lix+KhZswzFRmXmfcoo904dO2L3rl3Yd+BACswys1/Vtv0iYDVC4kKc9O23mDZ1Gtp3aI+WLVtKGpFOHTvJKfzvp0/H/v370LtnLznLRoJy93DHxPET5ODqtP9NQ/UaNTB50mSs+PVXDBg4AFWqVAXTmIweNUrOt23cvAn3I6Pweu3aouUEDx+GalWryRGMNq1bS06imbNnSRR0l86f497du5g1Zw6yBWbDpo1/CJm89VYdfDt5smhWUaajKjR7Qu7dQ+uWrVC5alUMDR4qx1pGDh8h5+d27t4l6VCoHY0YPgKt27RGgwYNzbPu7OKMvHnzConyDNtbb9aRg75DhwUjMFsgfvnlZyyYNx+ftGiB4GHBWL9+Pfr37Yeg3Lnxw4wZ8PL2wvx58/Hd5Mno1r0bPu/aFS4W5+PYESO8eebu1ImTgF4nhM/0KiSuGdNnCCGRzCpVrozjx44JPiR6H18/WkzmXEtsgxoLj7BUq15dxnnxwkWULFUCQUF5cOTwEYSE3EPFSpWESBmJrqV14VnD/fv2ITQsDAXy50eFChXh6eVpInWDaJh/HvgT586dlfFTli+6dMXu3YqQ7Jcinq3kViMkyS20dStOnj6Nxo0aibZATeCN19+Qm3fqtGmYNOlbbNq0GYMHD0bzT5rLYtq+bRvatG6DNm3aYMCggeYMi04ms2Xjhg0Y0H+ALL6ly5eJllWzWnW4e3jgu6lT5OgFzTOSABfOtB++x/Vr1/DZpy1EwyJBsfC4R+OGjRAUlBtLli1LkfebWsakbyfhf/+bhl69eqFd+/ZiTrZp1VpSjaQmpL79+qJ69RpilhYpUhilSpc2m0nr1q5Fl8+7oOsXXfFFt26iBXKR9urZU+Q8fPQINm/ahJ49e+GFIkWwZNlSwWHlypXo8WUP9OnTGx06dkyRGZONU2P77zffCDGxBGQLwIQJE1H79dpmQqrzxpsiK00lFqZkoamUv0AB8U/9+uuvGDJosJjF7LNQwYKi+e3bvw9DBg/Ge3Xrokf3LyX9SYvPWmDJkiXo0aMH2rZrhwP7D6B/v36irWomIQ8pz/5xrmiM8QkJ6NenD1avXgODZNWEHDyOT0jEqZMnlIb0bNe13fZmNUIiApYOYmpMS5cuxeCBgyStxpRpU9GuTVv8dfo0/jt5Mt5443UBjWZLyxafoWatWpg0eZLZ98FMAMuWLJUcSE5Oenw7aRLKV6ggZgx9JqNHjUbZsmVQo2Yt7Ny5A3//9TeCg4Px7vvvSYYAakjUgn6YOQOBAQHYtGkTJoyfIOfH5v+0QH5qhQddGzdsCGdnF/wwY7podDzmkZqQFi1aJFoT/V3Xrl4VZ3r0/fv4oH59DB4yWAhg5vQZGDt2LIaPHI5PPvlUuqBW0rVLF5w9cxZHjx0DHeUD+vfH5k2b8WH9D5E7dxDmzZuHggUKYMzYsShewph9UsOTP8u//Iocyu30eWeEhYaBspQrWxaTvpuM2bNmi4bk5+8v/jpqk+vXrcOpUyfxYf0GmDBxAk6fOo2PmjSBm6urYF28ZAns3b0Hfx48iIS4ONEK369XD92/6IZ9e/fCPyAAhYsUQevWrcXPRywuXbyIph83wwsvFMXWrVtE/lcrVMCMmTOwYP58TJwwUXxtb9apI5rVju3bcObMWZk/ZbLZLUc8U8GtS0hcovKfAcePHseggQNFM5n83WS5Set/8AEuXrwkmg0dx3xK0yRq9VlLceZOnznDrP7TIf3D/74XUin6wgv4avQolDUlQtuwfgOCBw9GTFwc6L9hHfpohgwdIv3Ex8Vj9uzZ4kfy9fFBnqAghIWHi5O8QMGC+HH+PDGxtDJ/3jzxKdVvUB+jRo8W7YSayL8ISXxIw+Hl6Ylu3b+Et7cXfpz7oxDOwMGD0Lx5czFbp3w3BSO+GomP//MfIVD6wbp+3kXSs+w7sF9Mu8nfTsLcuXNFbjrrqXmQuIeNGG5OcaJpItTWqlSqDA9PD7Rq3QavvloekRER0Ds5yTWaD4mbA8HDhsm+5JrVq0XjKlW6FObMnSsy/Th3LurWrSv+LpIbTbXevXpJbqZgS0Latw9dunZF27Zt4OvnJxoTNU6mSunc5XPJSHDl8hWMHzdOshrQ3KbPjCmCe/TqiU6dOhnTxRw/jlYtWyEiIlwR0jNd1vbbmVUJSajIAEmt8WX37jj450Ehif80by43MTUh5kma8PVEvPuucTeIydhafPIp6tarhzFjx5iR5AFU+jd2bN+BCePHS46lXxYvxt17d9GkcRMxC4YNG4bSZUqDO3d8sufMlRMLfvpJdspoHu3auRNbN2+Bq5sbXnu9Nvr07IXAHNmxcNEi8XGw0C/Sr28/MTdXrVktZh5LWoR09+49MUPd3VxRtFgxIdSlS5bI9SQDaknU3gYPGoShwcH47LOW0Ol1QkR0YpOYTp4+hbVr1sjuE3MrjRozGh7uHli7ejUmfv012rRtKzt2lql3qSFxt3DCuPFCrNRCSpQsIY5+yqv5kEaPGS0kyPonT5wU05l9zJg5Ux4OzG1OE4xOexaabiNHjMSihQsxdOiQBxrSvn1YvGQxKlSsKG0tmL9ANhqYekXLbsDP6avjvPbp0wdr1q7FoYMHsWLlb+YHR2xMDD5r0QJHDh9WhGS/HPFMJbcqIfFJfuH8BXzeqZOQRLv27dCte3dzbp/hw4Zj4U8/oUPHDviyRw/RRHizDxs6FH369ZWt8RXLl4vTtGWrVuL0vnb1mmhQdFCvWbcWFy5eRPu27VC8+Iv4ZckSuLi6gjd+z+5film2Z/8+ISSSAE0b7qiRkKgdNfiwvhDbkqVLQUc0FxV9WD179JTdrlmzZ5tNxrQIiW1QGypQsICYLbye2/t9+/RF23ZtMWDgQCHcZh81lTAFaitcxBvWr8eQwUPEpFv/+wZx5H///ffo3ac3OnXuLO3EJ8SjTIlSqFX7NSEmml1arBTNRxJsbFwsjh45ilWrVmHLps1CNst+XQ6GSGhO7abNmskNdOrkKTRs0EByNs2YNRPfTPwaK1asQPNPPhHzjBrMvbv3MHDgAGz8feO/COm3VSslUR1lWL92Hbp27YoPPvgAH//nY5k3+qmio2Ogd9Ijf758smHAEIZv/vsNGjRsKDhyl7JRg4a4ceO6IqRnuqzttzOrERLJaOf2HRg+fDguX7osRMDF4ePjDWcXF3E4M/aGi5XmEp/k3l5emD79B7mx58ydgyI0zUaMxOLFi+Wp+8qr5SVJ/rQpU+XJvHrNGty5c1s0JC8vTwwaMkTavXTxkjzBuXio5fCpzQW66KeF+KJ7N9nt2fTHH6Bp1rZtOyE/LhiSzohhw4VUZs6ejWrVjW9ASU9DYkgCNQ3uuHX/8ktpg2YhwwW440f/DdvkIqRjvVWbNsiRMwdWrVyJfXv3iS+nYaNGIsfY0WPwSvny6Nu/Pzw9PbBty1aMGjUKzT5uhsFDhqTIs0TcqAGSCD9q2hR6nU52++gr27t/n5hLGiHxe5bTp0hIDUWTmzFjBk6cOI6uXbqK7HRSc0eSO2Y0bZm4TjSkuvXQvVs3ySv+28qVKFuurLR16+ZNfNTkI9Ha6NBn3Be1z+3btstmw5DgobIpMGvmTJmPzp07w9vHG2vXrhMNUq/XKUKyX454ppJbjZCYzZGLmyYLHSeeHp6ivdCHQj8EfSyvv/46pkz+ThaI7AQZDHBzdxdNijtL9KX8eeAAgoOH4eL583LjM+k9HeTUNho3aSzOZmoXUyd/h4Bs2cT0otlFX0bXbl/Ibh2f4NRUBg8cKH6SbIGBYl6UKlUS302dKouSheZX/Q8+RIkSxTHt++/h6+tjDg83a0i7d2PHnl0Iyh0kJuTUKVOEAEimOr1eNBdqDTSf/AP8xYe2ZvUajB71FW7fug3uFnKc79V9XxzWHh7uuHHjJvr16Yu9e/agQKFCcHdzE1LjeOnDqlqtaoqMkST7oUOGSjgEzVIS7rUrV4Xcho8cIYGmY0aNxtjx4+QhQGIWQqrfQLSo6bNmiq+KTv35836ULJ30ITHSiRrc2XPnMHQod9nq4ctu3cWp/duqVShT1pjql/0vXbwEX3/9tURd+/n6ysOFGt+EiRNRsVJFCRHo27uPbEIwIyhllMybOj0uX74kvjPOgyoKgYchYDVC0t7LxkyKlscyqEVo7yXjzhbr0exhIGByYhIqValsfrURr+M/ktCGDRtw/p/zssjpb6Kpxdgafk+CYizNL7/8ItoYAx+pGVATcja9SJL1SBYbN27ETTrGixWTuBwuQC1bJUmLjli+XEB7m64W4cxFuHzZcly6fAkdO3aAt48vdAa+dy1BzEZqEZSDW9slSpY0RlebkOa1dLQzvopESdOH/yxfCklCZjQ4XzIQEx2D0mXL4NNPP0X+/PmEFFNHWjPIcM/uPWKWurg4o0aNmqhStYoEU5LEuSv5zjvvmM0sRqf/9NNPyB4YKCYUzVj2SQf17xt+lzlp8lET3L51S3KH165dG8VLlBRn+JWrV0QWvtVF5DAASclJOPfPP1i5YgVu374joQ5169VFTpMvTvNJ0dd18OAh5M2bR7Tgbdu348qlS2KaUhN8cOBHLUyFwL8RsBohaU2neYYt9cEzU6Ce8eMH8chmImNjPNfFnzwHJbl2jbt35tS3pkjm9M7CWZ5vMzb34Eya/G3RJvt43Khorf80j2ZoMoIyp+zPEp/UbaQ+f5fWjZr67J20oeGkvY481d/pjVt2HrQ0wqZrtL+N2JhOyKXCTGsvZd0HZwg1mcxnCrU5MsslV6p1qBBIFwGrE5LCWiGgEFAIPCkCipCeFDl1nUJAIWB1BBQhWR1S1aBCQCHwpAgoQnpS5NR1CgGFgNURUIRkdUhVgwoBhcCTIqAI6UmRU9cpBBQCVkdAEZLVIVUNKgQUAk+KgCKkJ0VOXacQUAhYHQFFSFaHVDWoEFAIPCkCipCeFDl1nUJAIWB1BBQhWR1S1aBCQCHwpAgoQnpS5NR1CgGFgNURUIRkdUhVgwoBhcCTIqALDQ3VDsY/aRvqOoWAQkAhYBUElIZkFRhVIwoBhYA1EFCEZA0UVRsKAYWAVRBQhGQVGFUjCgGFgDUQUIRkDRRVGwoBhYBVEFCEZBUYVSMKAYWANRBQhGQNFFUbCgGFgFUQUIRkFRhVIwoBhYA1EFCEZA0UVRsKAYWAVRBQhGQVGFUjCgGFgDUQUIRkDRRVGwoBhYBVEFCEZBUYVSMKAYWANRB4bghJ3uxqeiOtGRh5M668BJcvp+W7ZI1/mArfV5veG2atAa5qQyGgEMgYAs8PIXHcGtkYDEiKDUdi6FUkhV2FISYKOld36P1ywzmgAJy9sgF65wfEZHoVdcagU7UVAgoBayPwXBCSITEOiVH3kHj7DKLP7ETclUNIDr8F0ZosyEb7W+fhC9d85eBZrAZc85aDk3d26N081XvnrX13qfYUAhlEwO4IiQaXTv4HJMfHIv76CcSe342Yf/YgKeQqDIZkMdMet+i9s8G9cCW4v1AdbgUrwsndx3ipmHhGk08VhYBC4NkgYH+EJFoPkBB2HZF7FyD2/F4kR9wRX5CUVFpRejBq2pKRdHQQrSlPKfhUbg63fC8BOr04nhQhPZsbUfWiEBA9wMCVaUeFxBN3+TBCfgtGUtQ9M2kYB6HRy6MHpNXXKEf+Nhigd/OCX+1O8CrfEDroH92QqqEQUAhYDQGbJyShS9po/C8uClHHViFi23QgKcFqIKTVkGf5BvCt8hmcfHKatup0opmpohBQCGQeAjZPSCY7DHRcR+yZj/sHlyE5NjLzENFa1ungUfIN+NbqABf/vMqblPmIqx4UAvZhstGqjNg7D1G758GQEGs2zTJv/kzubL0zPErXQcBbvaB35S6cKgoBhUBmImCzGpLR6Wz069w/uQGhq7/Ksl0v7+ot4Ve9LXR6p3+FEmTm5Ki2FQKOhoANE5J4mRF/4xRCV49AYsiVLDObdM4u8K83GJ7F3zTJkDK+ydFuGjVehUBmIWCzhEQySo6JRNiWKYg+vg4wJGcWBo9u12CAS66iyFZ/BFwCC5qOoigP96OBUzUUAhlDwGYJiSZb/NWjuLu0Lwxx9zM2qsyorXeGT7UW8K3WCjqLYyeZ0ZW12nzeAjslQkWeA/+OD7OMXrGMzrcWlqqdZ4OA7RJScjJCVgUj5vTmp0TCdID2KVvh5S65iyPbh8PgHJA/xZEUKzSdoSYSw66LL0uKTgcX/zxpHpOR75PikRh1V8ImuJYZZ6X39M9Qf7ZSmWPWSDY16ShCspVZejo5bJaQEkIu4tacNkBC3FONkOfUXIJKIO7CfhgS45+qLTg5I+D9AfAs9U6WEtLtBZ0eHCTW6ZDz0/+l61+Lv3UGYRv/azZ53YvVgG+VFk+HQxZezaNBCXf+QfL9ELMUejcfuOQoAp2LexZKprq2BgI2S0hhW6ciau/CpxqjS0A+ZGswAnqvQETsnov7R1YCyUlP0aYB7sVfQ/aGY56ijae/9Oq4GnDJXhhuBV4RDcm/Tg+zhmQOuzdpUElh1xD15xLZIIg6uBxeL9VDwHv9n16IrGohOQmhv09EzJntZglcg0oi4J3ecPLNnVVSZVq/1PySIm4i7tpx6N294V6wInROzqZDCc+fH9MmCSk5KR43f/gIyRF3n3CidXANehEB7w+Gc/bCxmRIiQkI2zIJ0cfWmWKZnqxppjEJ+mI19C4eT9aAFa66OrY6vF5pAJegkki8ez5FOITf610Rf/0kYv7eIj1ph2m8K/4HN6c1hFe5unZPSCGrhiP69KYHhJS3DLJ9EAxn/zxWQNdGmjCeZUL0uR0IWzcOydFh8rdroQoIeLc/nP2CRNDnzV9mk4REM+POgs5PTBzuRSrD97WOcMn5oum4h87oczEYEHlgIaIOLEYyz8FlsEgyN+gQ2GwiPApXzeDV1qt+e147eLz4GuKunUBi+E24BZVEUuQdxF4+jDw9f8f9o6twf98i0aAMCTGIvXwIOZp9i9B1Y+FerCZ8q7W0njDPuqXkJDgKISVG3sLtuW1MZGR6uHBzpUpz+FZrDTi7PneHv22SkKIZCLl2DJIT4x/5BNDcnJry6lHmHfjVaGfxtLTYayInJcUh+vQfCN/2wxOREtefT5VP4Ve787Neiub+Eu5dgt7dB2Hrx8MpsCD8XuuEuIsHELJqBHJ3XYHoo6sQf/kwAj4YisSIWxLHFfB2H7mB9a5ecPIOzDLZM96xNn8GY7iFIRn3Vg1HTFoaErUG04FDLYOoPR9AjD6zBSG/DpaIF2PGU+PGhHux6gh4bwCcPPzN4804rrZ5hU0SEo+JRGyfmTF/j04Pr/IN4Fe7C/TpODe16G/+jLu0H3eX9DMd0s2YLc4bInvj8Vk2o1pmgpDl/eGUvTD8anVE3KUDCFlpQUhXjiCgnomQVg1HwLt94Zy9iN2lVBHNNjkRsRf/RMKtv0XTjflrMxLvnDfj7+SbCx4lXheS5mFoj+KvQefiaXdjtbyh5B69chB3FnaXRMukIo2QPEvVgd/bvR/k7sqyO9H6HdskIYVu/Br3D/2aIv91WkPXTCi4uMH75QbGGCF3n3S1qgdb5cZIFvpaQtaNRuLdyxkKvNRny4s8HRZbfzYy2GLoujGIvXDgwVPSYECuTosRc/oPRGyfbrHzZkD2j/4L5+wF7VLF57xxZy3sj/8i7vIRo+8kDayc/IMQ8F4/uBesYMxmLDnVM/awyeAUZGp1+lJDlg9A3MWDZmuBCQX93ugKr5JvGR0Iz1kKCpskpJCVwxB9auNjTzafjB4l68A1b2l4lnzLuAvB8pDIwLjrpxB7Zivor4q7dChD2pjO1QN5e/7x2PJZv6JxLy3h7gUkR0ekWJ2u+V5C0v17SAq9mqJbl1wv2v0B4fg7/yD8j2+N85WqcHz+b/eAW95y1of7GbaoPWQ1LTgp8jbuH1uFhFtnoXf1kMymDN3QObs/d2QkDxpbTNBGXwj9SBktnKjAD4cDzm7GS7XXkJh+Wj5Noo7+hrB1T2Z26dy8kbdHxuXL6HjSr2/MDxVzfg8YJGkerA7werkBEu9dFP+YW8HyuH9yI9wLV4Szd6DJJW89KZ51S7IFHnlbnPOMK9OKS86i8H+7N1zzlnkuFqkWkW7U7XQSP5ccHw2dkxN0Ll5mjdioHNmvBpjW/WOThBS2eTKiDizJkBnFwWmEpAXIRR1ZgbANEwCDThyBgR8Og860Xf80hOScswhyt5n/rNejRX9GB++9X/sj/uJB6Fy9YEhOQHJMBPL22SraZdzlg/Cp1koya/rUaAuPwhWNb1qRV0LZ500sGxgGIDHsqpGULh+RzYuAugPglu8V4/K107FRdm18NDNprjHVTlLEddHikyPvAK7ucPLLC9ecL8LJw0/uZZ3++cpqapOEFHngF4RvmQZDcmKG+P9fhHTYREgkq6LVEVh/+FMRkqZOe5SqY9TEsrQYcG8ZndqF4Ferk8mpPRy5u/4GQ2wkYv7agujja+Fbsz3uH1stieacA/LZ9YKVRWvKmR5/+6wEu3qXbwj3AhVkJlK/ZSZLp+cJOjcmRzUg/tZfEmcVe36fxJmZ08Wb9CG6KOiecH/xNXgUrQEnvtbrOSk2SUjRf29ByMrhcg4rIyppmhrS+gkyVdYhJKM0PrXaw69aqyy7BWLObIWzXx5E7Jwl2/4km7hLB2XbP6jLCsSe3S5hADTfwrdMgVf5xnAvUg2x5/fA2T8IrrmKZ5nsGe3Y8sxear0uKToMek+/fzmuTTGFonPYm8aUGHIZd5cPFLPb8qWmqXGTh6OTK7zLN4JvjbbQuXra3VjtxmRLDL+OWzM/M9rNGVDBM52QTG/AzdnVTmRRAAAFM0lEQVRmjqjNWVWuff0GvF76AIkRNxF7bh90Lq7ilKevIU+fLUBysuy0hW+eiuzNJyP8j0nwf6sHbv/YFp5l3pdjFvZShFwSYhBzdieSwm8+eD6ZWce0HW5iK727rzx8eFzIHk24yP0LEbZ56sMtA9NmDX+45iwqUeo8y/c8FJvUkAzJSbg9tzXib53LECG55i8nQZE6k1M7+ux2RO39SeaJL4b0q5n2d487kfTbOPkEIujz5VmaguTKuBrwKv0O3Aq+iqSIW8YXEZiKZ9n3oNPpxdkdd/Uo3ItUld1EOnxvzW5lOjoy4HGHbBP1eGwijLtrV7jlr+lJqUNijaI6B+SFf50v4ZyzqJGQbGIEjycER8Rzh1H7Fj3eBcxAEVgAfnW+lLONz0OxSUIisJEHlyB847c2hrEBXq80RMA7fbJUrqvjqsPJKzucs+WT98dl/3hyusRNh2j4pskiL18fZTxca2eElJSAxLsXxDf2qMINDefshWQ3Sqe9UfRRF9nQ94nhN5AUdsMUs/JowejY5nifl5zvNktIyTHhuDH9YxhiIh49K8+oBm/2bA1GwuOFas+ox7S7Cdkwwfj2Xu7L6ICAt/satQELdcB42N+AxNAriDrws8kxqoNr/rLwKv1ulsqfsc6NO4rG8T2evqP5nR63fsbkyczalmN9PP3uwQtPjecs7b3YKCEZJyZ86xRE7fvZZjB2K1wRAe8PhLNPjiw3BsxbxDzjlMaCTZmwTNy7Rievnd202jgzSkgkI/vMmJm2KfqwRWCMW7K3mU17RDZKSMYHesKtM7i3YhASQ69n6TKiLIySlZD9lz4UH40qCgGFgPURsF1CYrrSxDhE7pmHqP0LkZyYkIWkZAC1o2z1gqH3DMiQ+WD9KVMtKgSeXwRskpCMqSN4MtKApKh7uLusLxJu/J1ls8CkbDlbzoRLYCGJ+pYYkMf0Z2SZ0KpjhYAdImCThJQCRwMQe/UIQlYMkTzKz8ovYHTLGKB385YYHq/S79nXHrId3oxKZIWAzROS5pyNObcd4Zu+Q2LYjWdiuonfyN0H3pWbw6diM4mKVVqRWjAKgcxFwE4IiSloExF7dptEHyeG38pUUhItTK+Hb43W8Hr1I+hdfezyGELm3jqqdYWA9RGweUJKab4ZEHNxP0JXDpOT7ZlV+Ops3zrd4f1SA6UVZRbIql2FQBoI2BchmeJXGbUbsWu2HCBNjo0QR/NTF50BOr2rBA56V/oE7kWqZKoW9tTyqgYUAs8hAvZHSKYowOTYSMSe3437x9Yg/tLBpw5UdM5RGF7l6sGjWC3j+724i2bnKVCfw/tVDek5R8DuCMlyPvgW0+S4aMRfP4GovfMRd/WEJCrTYlYtjxCkfguFMR5WD5fAfPCu0ExeK6T38M3SQ7PP+b2mhqcQeCQCdk5Ixs15OSaQnITE0MuIObcLcVePISn0OsDUn0lx0CUnw6DTg74hnZMb9N4BcMtbRtJUuOQqAZ2Ti8X5C/tODP/IGVcVFAI2jMBzQUhGVrJI6i/nTqKReD8UhpgwGOJjoeNL9Tx8JbseU76CqT8fvPLrwRQpM82Gb1cl2vOOgF0T0vM+OWp8CgFHQ0ARkqPNuBqvQsCGEVCEZMOTo0RTCDgaAoqQHG3G1XgVAjaMgCIkG54cJZpCwNEQUITkaDOuxqsQsGEEFCHZ8OQo0RQCjoaAIiRHm3E1XoWADSOgCMmGJ0eJphBwNAQUITnajKvxKgRsGAFFSDY8OUo0hYCjIaAIydFmXI1XIWDDCPwfg/KEQBfG/L4AAAAASUVORK5CYII=;" vertex="1" parent="1">
          <mxGeometry x="130" y="50" width="202.16" height="360" as="geometry" />
        </mxCell>
        <mxCell id="GTF7l4me_JHWdmGWO52q-3" value="" style="shape=image;verticalLabelPosition=bottom;labelBackgroundColor=default;verticalAlign=top;aspect=fixed;imageAspect=0;image=data:image/png,iVBORw0KGgoAAAANSUhEUgAAAPAAAAIICAYAAABQC2PPAAAAAXNSR0IArs4c6QAAIABJREFUeF7sXQVYlUkXfukQELHXtbu7CxWw27XX7m5du111jbV27W6xsEXFjjV27V67FZDO+z/vgXsXWVwQLv8FnXkeHuDe+WbOvN+8c87MnJljpNFoNFBJIaAQSJYIGCkCJ8v3poRWCAgCisCqIygEkjECisDJ+OUp0RUCisCqDygEkjECisDJ+OUp0RUCisCqDygEkjECisDJ+OUp0RUCisCqDygEkjECeiUwfUKMjIx0cGh9RKJ+pv3yv75Lxngq0b9yBD7Xb6P3/aj9PKb+HxWmqM9+rpzPwap3An+2os8QWxH5K+/xX1nztATz9PSEt7c30qRJgxQpUnyiuNhk5gsPD8e7d+8QFBQUKwomJiaws7ODra1trHmjZtA7gUePHo39+/dLHWxEQEAALl26BGNjY1hZWcnnmzdvxpAhQ6SBo0aNQq9evSSvo6MjPn78qAPD3d0dDg4OX9QglVkhkFgIkLQ7duzA/PnzcePGDem/pqamqFSpEvr164fatWvDzMxMqg8NDcWJEycQGBiIsLAw+Tx79uySP6bE/K9evUKuXLmQKVOmODdBrwTWklZrMrABJOfRo0eRJUsWPHv2TBrNhty9excpU6bE999/j9OnTyN//vz47rvv8PLlS53wsZkecW6lyqgQSCACVDBFixbFzZs3kTNnTvTp0wfZsmXD1atXhdBv3rxB06ZNsXXrVqmJZLx27Rrq1auH4OBg+WzTpk1o0aLFZyVhHVeuXEHx4sX/pdH/LyZ01EqoSXPkyIEtW7agcuXKOH78OKpWrYq1a9di4cKFopWZatWqhbJly2Ls2LEoUqQI+vfvL4QeOXIk8ubNm0DY1eMKAf0gQA05adIkuLi4iFU4c+ZMPH78GCVLlsTgwYOxZ88e0bTdunWTCl+8eCFaum7duggJCZHP5s6dK/37c4kEJi+o5MqUKRMnwfWugbW1btiwAWPGjMH169d1pjO/Y8P37t0LDw8PycoRKXXq1NK4ggULonfv3vD19cXs2bNx4cIFMSlUUgjoC4GYFomiH8jTWn4x5WW/rVGjhliO/CFJmdhX8+TJoxPz+fPn8h01cFwJzIdJ4L///lu0OVNsVmiiEJjzXmrTNWvWoHz58mJCUOv27NkTrq6umDFjBv766y+Z9zo5OQkgHMU4x8iQIYPkpzm9fPlyNGzYUF/vTpWjEBAE2L+oUbkmwwUmajxra2tZr2Gf5Of8m4l/RyWRn58fJk6ciIEDB4J/29jYSJ9m346aLz4E1mrgtGnTImvWrCKLQQhM7cmFqvPnzwsI1Kg0ozknpkCZM2eWxYD06dOLqXDnzh0Bitr23LlzMvEvXbq0mNI0UVRSCOgTgQcPHsDLywsFChQQM5hEZD/jnJXkpvKh5Uhi8/OYiFSzZk2xIjkXnjVr1r/E4+ozy+jQoYPUwQGCfbtw4cL/2ZQ///wTxYoVi3NzE0UDDx8+HNWrVwcbGVMikTnn5SjIvPXr1xeQ1q1bh99++01WrDlXoBnBv1VSCOgTAS44UalQkZBoVBhcWH369KnMY/n5kydPRNlwoSomAr99+xacJnLKF31lmfn5QwJzoGA/j+3eDPZzbiVx8LC3t49zcxOFwDHV/qUb3XExH+LcSpVRIfAfCMTkixCbc4X2+9j6aWzlJPTF/N8InFBB1fMKAYXAvxFQBFa9QiGQjBFQBE7GL0+JrhBQBFZ9QCGQjBFQBE7GL0+JrhBQBFZ9QCGQjBFQBE7GL0+JrhBQBFZ9QCGQjBFQBE7GL0+JrhBQBFZ9QCGQjBFQBE7GL0+JrhBQBFZ9QCGQjBFQBE7GL0+JrhBQBFZ9QCGQjBFQBE7GL0+JrhBQBFZ9QCGQjBGIP4E1Gvhdc4Pv5R1I23w2jKzsY72/JxnjlIxE1/AqtGQk77clasibe/A6sQQhL28jPMAbRiZmMLHLAKt8VWFXsROMjE15oTpvs4sTMPEmcOCTK/B2n4OQN/dhV6U7UhRrCBPruF8FEifpVKY4I6C9RJ+XsfFKFl7PolLSQiDg4Tl82DEKFjnLIujhH7Ap1Qz+1w/CxD4Dwn3fwSRlBjg0nAxjS7s4D8FfTGB2FP8bB+C5Z/In6JhnKoS0bRcBMFaaWM/9hper5cyZGwcPHkDu3LkE33v37sHFpRZu3boBU1MTLF++ErNnz5GL2Hhv8fr1a+UCctdtrhg9ZgwOHTqELFky6yRzcnJGvnz5MW/eXFSqVEUuJue9TNoLzLdt26LnVnzbxYW8+xuvlv8Ih1pDYWyVCl7uc5Cx1w58PLMKgQ/PIXXTGXi94kdY5aqEVC5D42xEfTGBw0MC8XppK4R9fPOvN5LSZSBsijdVBNZzXyUps2bNjsOHDyNfvoi7hxnZokZ1Z9y7fwfbt+/AiBEjsH27K77/PhP27NmHGTNm4sCBfbh48RIGDx4i3/fu3VOeJfmdnFxQt24dLFgwH+XKVUDjxo3QunUr+d7CwkKu91VJfwh4HpoJ3z93wzzV9wgP/IiwIH+Y2n8HTWiQcMnUITM0gT4I8/dCug7LYJ7unzum/0uKLydwkB9ezqsLTVjEbfNRk3nmIkjbepEisP7eu5TEmxKzZcvxbwLXcMa9e3dQt249NGjQEP3795X8NKPLlCkrN36am5tj2rTpsLK0xGH3g3K9aaNGTeT6VN64uGjRApQtWx6dOnZEj57d5fnYLmrTc/O+ieJe/t4M1gWcYWKdCr6XtsEsXS5YZI64Ptbn/AZYZi8Ds3S54Xt5O6wL14Zd+XZxwuXLCRzogxdza8VYuIn9d8jYg6ZX3CbgcZJQZRKzmBqY5OPcVnttKe8zvnv3DgoUKAg3t90oVKigDq1q1WrItb45cmTHb7/9LlHvevbqgUIFC6JqlWpo07YN3r9/h4ULIwjMa1Z5STlT27Zt0K9fxGCgkn4QeP6LI74beAhGJuZ4s6YbUhRrgBRF6knhb9b2gE3xBrAuVAfvd4yCcQoHpHIZHKeKv5jAYYE+ePkZApvaZ0L6HpthpAgcJ/DjmumzJrRo4LsoX74CJk2aiHr16uo0dsmSpdG9ezcJW7N06VIMHToEu3btlgiQDKDF2/9pSmsJ3KlTR/ToEaGBVdI/As/n1UG6Notg5pAFbzf0gVVeR9iUbCYVvV7VCbYV2sE6jyPebh4E84x5kbJqxHQntvTFBA7/Dw0sBO6+WZnQsaH+hd/HRGCSr3p1JzGh5879FVu2bMORI4dkBfrMmTNo26YdXLdvxf37D7BkyVIcOnQANWvWRmhoCHbu3IEVK1Z+SmAxoSMCc0UkZUV94Wv6z+zvdo5C4G0PwNgImnBu9UWJexR120ijQZqWc2CZLRGCm3GC/X7nSAQ9/jNGkhqZmiNVwwmwzl1Fn23/5sv6LwLThPb390WfPv2FkOnSpcOjR4/Rq1d39O7dC1u3ugqB3d0PYdKkyRLeY88eNyF9VA3s6+OLFDYpBGsGmVu1asU3j7s+AQh8dAHvXX9CmpZzEfL2AXwvbkX6zuvgf+sQfE6vRLoOq+C5dxLC/b2RttU8wChuEUnirIE5ZgQ9OAvv47/r2qWBJso4/c+Inb7jyjgLoE+QvvWyGJOWoUIYY8rS0vJbhyNJtZ/8+XhqKXzOrIW9y2DZRkrddDo+HlsIswx5xakj+Nk1pP1xiaxIx9X+iTOBtWiQtJI0wOvlbaAJ8keq+mNhnplBibXGV1yrT1IYJ2thosbeiS2iXbJuaHIVnmYyNPC/fQSeB2ZCE+wP0OsqPExmK2YZ8iFNs5kRzlD/D08s4hjy9iFCPvwNq5yVYGRqkVyhVXIrBP6vCIT5eyLk9T2E+3sCJmYwTZUJ5ulyx8tq/WIN/H9tqapMIaAQ+E8EFIFVB1EIJGMEFIGT8ctToisEFIFVH1AIJGMEFIGT8ctToisEFIFVH1AIJGMEjLy9fSI3dpNxK5ToCoFvFAGj4CDZYVZJIaAQSIYIKAInw5emRFYIaBFQBFZ9QSGQjBFQBE7GL0+JrhBQBFZ9QCGQjBFQBE7GL0+JrhBQBDZoH9BuAEQcv4w4X63/o5hRL6nT24V1mkh543gBuUFh/oorVwQ29MuVs58R56vjehv/F4sceRZVEx4OI7nwXR+DhIoA8cXvIREeSBIEDvN+DiMLW7mRPmoK93sn19ea2GVMhKYnhSI10r6Ql7eEU0ZmljBJkQbGKVLrXbiPx3+VGxFtKvZI8J1lIW9uw+/CGtjXm6KnwUDvzf1mCkwCBNbgg+sAIDQIDs1/B4z+8SvxdB0II3NrpKw/BUYa9vCI70ShGBnB6AtuLkiqbzTU5xW8d4+EVfHGCPd9j4BLW5Gy4TSYf1ck8n7mCO0szY+hEf9AoFXjWnwi4Yo0cTXBAVKGsalVZCmRml+r/KP8jgkr3VvRGCHk5VX4Hp8Ph5ZLEs9qSKovLInJZXACc97n5ToAoe8eIFXz32CaKrP0wDDfN/iwvhPMvisC2+qD4HtiHlLWmSgjPp/x3jMKdi6jYGxunay1AAns6zEf9vUZqsZINFt4kA9sKvcCLRCfo3MQ7vsWRuYpYFO5B8zS5RNCB94/Br/LvIM7HKapssDOeTiMjEwR6v0cvicWItz/PWBigRSl28I8S2kE3NgNYxNzGNtnQsDNA0hZY5hQNtzfC977x8O+4QyEvLkDvzPLER7sDxPbtLCp0humKTMhPNgXPh7zEPb2PowsbWGevRyC7hyDQ8vFisAGJrTBCcz2e7r2h1XxHxD65i5synUUAnvuGg4TaweEBX5Eyjrj8X5lK9g3nAazdHkR8vYu/C9vQcqaoz6vmgwMbFyr1xKYVgbCguF9aCrM0ueFVeGG+LCqNVJU6QOrPNUR/OJPeG0fhtQdNwqhvXYOg0OrJTC2TQe/86vAaYhdzbHw2j4AFvmcYVWgDkJeXMXHI7Pg0Hop/C+slWuPLPPXxLtlTZG2+24YWzsg4I47Ql7eQIoybeG5pQ/sao+TsB7+N/bC/8o2pGm7Al77JoA3jnKQYFgQ790/iXWQutXSuDZT5UskBAxPYJJ1+wDYN5yJD+s7IFWL36EJCcD7Td1gV6kXAu95IGX9qaKBjcysYVOhC96v6wDb6kNgnrFQstcAJDAHJ1oSYQHecjlgqoYzEer5GJ4buyNls1mAEaMxGMH30GRpd+ibewgP9oFNhR7/LIBRn/q/x4ctfWBbc0SkVaKB38UNsC7cAKEvbwsJU5T5EZ6u/WBdojUsspXDuzVtkarZPAT9fRaBN/YiRZXuMijSNPfZPw5pOmzBu5Utkbr9WhibpZD6gh6chN8fayM0sF4WxBKpd38DxRqewJEa2L7RL/A7v1JIqtGEw5SXfAX7I/C2O+wbTIMm2A8fNveAfYPpeL+2HdL22PtVXKRHAvscmQ07p+H4sLk77OtNhln6fAh+fQtem3pGkJF3BEcu+ppnKo6Am/uA0BDYVOis+5yEC/d7iw9besOmYtdPuq55xiIIuL4nksDtEOb7Gh+PzoZNmfbw3j8RqduvQ8CNvQi8thtWJVtEPMspsrExLHJVw7vlTZG64yYYm1hEEPjvc/KuUrVYnOAFsW+AY4naxCRFYE1oIDx3DJIobanbrkLQw9M6ArNHee0ZIz3LIkdFMRG/hhR1Dhz84jo+HpoKB5qmmnC847Sh/mSYfV9cTOSPBybLgl7o+4fwOTwdDq2Xy5w04MY+hDy7jJQuo/Bha2+kKNcJ5llKIfzja/gc/xUp606C7/mVQsAUZdqJ+UsrxixtTphlKgLrwg0R+vGlmOWpGs+CsW16BD+9iICru5Cy9nh47R4B0zTZYVuxJzRhQfByGwVG6EjdasnX8AqSdRuSBIG990+AnctIiVbue2aJ3JWbomIPBP99Rkhs5zRMOl3QvaOyqMP5W1xvrk/qbyfM9y38zq+GXY3B0ISHwWv3cFjlqwXLfM4I9XwC733jATMzuX/btkIXmOeoKsvLfhdWI/D2YRiZ24hmJfG4TRTy5i4+Hp4GI3MraIJ8YVWsKawLNYDf5c3yvXXRJgKJ7/lVCLp7DKnb8hJ+rmAbIfDBCfie/B3GKeyhCQmEXfVBME1fEOEBH+C9ZxzCA70kNIhlLkeEvr2PlPWnJVsDWhMWCiMT06TePWKVz/AElv2JcGgiO5FReLh0qH/cBCL9k4wA/6vbEfT3BaRq+PNXMveKuCbfSMP2G0d4YWnCIy3YCJ8saT0/oxkdGW5D502lCYvcajL5Zy1APKTCI7fYWBSfi9yKikRVLn6Xelg7v+f/kVt0umf/qU+kCKeXGJ/hXhRNerGxY+1gBskQiYEmOBDGFtyliNh7DA8LgZGRMTTBPmLdpG63FiY2af8tokDB9unD4SVxETA8gSPB1S2GcK83cp9X26UiOjbgua03bB37wzRNnq9i7SSCiNppbASJ/tnvjSSVdKKoXk8Rf0cQP6KTRf+W5XzyWJQ99IjuFLXMz3hU6T6O/EO74awlumzLf2ZzOnH7bOylaxh04A48N/VEur5HdH3F5/h8mKTJBev8Lgh6dgXmmYqJ1RdT8tozElb5a8EiZ9KO85U0CBz7K5FI5pzH2VbsEYfcKsu3jgD3tEngtH3ddZaC7/F5ME2bE5Z5neBzbDZsqjAGsjEC/tqOkNc3YWL3HaxLtJB5vueW3jBJmQnm3xdFivLdEO7zEv5/bkeY13MYp8yIFMWbw8QuA0LeP0TIq5sI93oOWKRAmOcT2DkOhJGZlUwFPx6dJSv/ieVNmGwIHKlyvhLT+VunV+K3X0vgNF1cI6cIgO+ZZTD7rgAscjvi3eJGSNNpk6zoc/EwVf1p8D23FOGBfrCrNgCeO4fCsmBdWOWqJoR+v7oNrMt1gHWBOgi4fUhW4R3arEbIi2vw2jkUdjUGwTxnRXxY3QH2TWfBLG0ehHk9xbt1nZCuhxuMTBMn2FzyIXDiv3NVw1eEAAn8fn1nmGXIEzkHBsJ93oiHm2VuR7z5vSHSdNqM4KcX4HdmBVLWGQvTtHnFmYZebySlZcE6sMxdTbSs36nfkbLBzxHbZhojfNjWRxYEuQtAhxeuy3CVIOj+MQQ/ugBbp+Hwv7JZiMtV/sRKisCJhawq16AIRDWhuXDFRHdQ03S5IjUwCbwFxtb2CH52GYEPziDk1XVYF/sBVnmdohDYEcEvriLg+l6kdBkZuWhoBM8dQ2CZxzFiy+3eSdjWGBSxVhYaiHerWsOh+ULZfkvVconsEiTGMVFZzVC3Uhq0n6nKEwkBLYF1i1j0LDu+AKbpcn5C4OBnl0RzWuapLq6nfmdXIlXTufDaMwqWOavAMp+L+KZz39yhxSKY2GZAmM8b8WazbzgdYT6vEXT/pGy5CYFhBO89o6EJD5FFPnFC4sGbRGpnkiGwbKhoVz51K/iJ1exEQtMQxUY7kaVO6UZsGYW8uydeael7HdJtB/mcWADTNLlgkauK+IOn7rBe4vR+2NITJnbpEfb+GWyq9YF1gXoIenweXrt+gnnmYrLH7n91B3w9FsI4ZVqEe78S/3yLnFUR9PQSgh6ehJ3jAN36TJjXM3E/dWizLOLwSSImwxOYWydhQeIWqQkLgyY8VEYrno1VKTYEIgY9rtATL2InDgrc3UmkRZPYJEoa37NPhSLc/wNMbNOL2SvbbYE+4rzBvhbm+w4mNmkituRCAxDu9wEws4JJCgfdNlu4n6foVJ7PpoLRBHghPNAXRhY2EYG4xWQOhiYkCMZWtjoCh374Gx/dZ8Kh+aJEh8PgBObplg8bush8xO/iOgRc2yPzFIlgDsC6+A8wz1Yuigny6b5noiOUxCuICT+zdLkQHhwgklsVbwaLbOUjdo51W+zKskmM1xrhdKOB195xMM9cAtZFGydGNZ+UmcQIvB5hfh9gV6WPCElXQq9dQ5Gq+SK5qSL46WUEPToDEws7WBVpBKNoN3gkOlpJsILoBKbWsInEL8zriSzGCH7WqRH8/AqC/j4D40j8ot+AkgSbl6xEEk0fFgKvnUNgV2e8HIdN7JTECLwO7IC2VbnBHpECru1G0LOLsC7SBL6nFyNl3YkIfnIBgXc8kKrRjG9+XzgmAv+DnwYB19x0+PmcXoxUdSYh8MkFBN07JscWVUoEBLSur4lQdPQikzyBg/4+jY8nF8C+1nh4H5gIO+efYJ6xIELe/w0zh+zJwl81Md9jbAQOengGPqcWImWtcfA+MAkpnYfDLGNhhL7/G6apsyemaKrs/wMCSYzA62UxIboGDnx0Dvb1pyDowSkE3tgnp2KsS7aSZf4Ip/pvd0733wSOtGAen4N9vamyWsr9zPBAb1iXbAnLnFX/D11MVZGYCCQtAv+xXlYObatyDqxBeIBPxCH3hjOgCfRGeEiA3O9E0vKQedou2yOxUQTWLgJGTEEi8Qv0wYeN3WDfiPh9jMAvc2lZEHy7oinSdHJVB/ITk13/h7KTGIHXyX6bqUNmhPm8l6t17Bz7wyJXZYT7e8JzW3+5A4rL+aaZisJOnNG/7RRdA/v/tROmDt8LfggJgK1jP5jnqIzwAC94ufaHsV06aPy9I/GLWCxUKfkiYHAC8xB76Nt7co0MD7eHf3wVgaa5JUzts0S5NkcjF6rxNgojEwuYpssDI+PkfyA7oV2He79h7x7AlM7zfu/EyUBULPFLmRlGZha6hT6azqHvHsqesWma3F/FgfaE4pfcnzc4gQlg5LH2iAtjI12J5AroT+a2UcOQKH8jwY3nfvk7hiPD4nQvrm1M2ilG1Fju0R9K7l3525Q/SRD424RetVohkHAEFIETjqEqQSFgMAQUgQ0GvapYIZBwBBSBE46hKkEhYDAEFIENBr2qWCGQcAQUgROOoSpBIWAwBBSBDQa9qpgIvJ5dUQGRAAQUgRMAnnpUIWBoBBSBDf0GVP0KgQQgoAicAPDUowoBQyOgCGzoN6DqVwgkAAFF4ASApx5VCBgaAUVgQ78BVb9CIAEIKAInADz1qELA0AgoAhv6Daj6FQIJQEAROAHgqUcVAoZGQBHY0G9A1a8QSAACisAJAE89qhAwNAKKwIZ+A6p+hUACEFAETgB46lGFgKERUAQ29BtQ9SsEEoCAInACwFOPKgQMjYAisKHfgKpfIZAABBSBEwCeelQhYGgEFIEN/QZU/QqBBCCgCJwA8NSjCgFDI2CkkbDiKikEFALJEQFF4OT41pTMCoFIBBSBVVdQCCRjBBSBk/HLU6IrBBSBVR9QCCRjBBSBk/HLU6IrBBSBVR9QCCRjBBSBk/HLU6IrBBSBVR9QCCRjBBSBk/HLU6IrBBSBVR9QCCRjBOJN4GfPniFFihRIlSoV6I1pZGQkMHz8+BGmpqawtrb+BJaoebRfRP8spjxRCwkMDERAQADs7e119cWGfdQytV6jISEh8PPz05UT1ZtU2w7tZ/z/S+WkTNpnopZ9584d5MuXT0T+HB78LiYZPodZbJ9/rq7YcFPfJw8EEkRgkvTPP/+Eubm5dLrMmTPD09MTtra2+P7772FmZiafs7OSNCYmJjA2NkZ4eLigExoaKnn4GVNQUJDk4QAQUwd/+vQpnjx5gooVKyIsLEyet7CwkLwsk59RFm3Z/EwrA/8+ceIESpYsCQ4Et2/fRvny5aVu/kSVkXkpB8vn76jlal8rZWXZ/I6/mbQysCy2gW0PDg7WyXj37l3kyZNHh4VWPpbBZ7R1Up6LFy+iaNGiume15WgJzvz8oYxavLTPawcNbduYh7J8Dtfk0VWVlDEhEG8C//XXX6J9SYQSJUpIp7x27RrSpUsnJNaSq1KlSnj48CEePHggnZ2kefPmDV69eiXP2NnZoXTp0rh37x4eP34sZCpXrpxocHY6PsOOyaQlMEl4+vRpIUymTJmQM2dOnDp1Sv7Pnz8/UqZMiXPnzsnzzEs53717hzNnzsDKykryUFYSjzJUrVpVSH3+/HkhDGWvXLkyjh8/DktLSxlYihcvLm0jOV6+fImrV6+KBUKLwMXFRSff9evXdYNS6tSp8fr1a3mOZHR3d0f16tVx8OBB2NjYwN/fH8SH1gzrLFCgAI4cOYKsWbOCZKesxIJl0rKhbBUqVBAiMj/lIz7MxzZmy5ZN2sjvSfhixYrJ75s3b4rcxIKyqPT1IKAXApMETOwwJAo7FDvT/v37pcOSGI6OjtLZSfy0adNKx8ubNy+OHTsm5CABSSx2VBKGWpaEZId2dnb+hMD8hwSnpqdZyk594cIFIUCGDBnw/v176fT8nx1Wq3kOHTokxCRxbty4IeShpkuTJo0MDuzglP3o0aM6ArNsyk3CUg7KpG0XBxbKV7t2bZ18jx49EnnOnj2L7777Tn6Yp0aNGjh58qSOwE5OTkJuDmYcCKISmDhqLYTnz5/j77//FuuGA2GhQoWQMWNGIT2f5cBADIinj4+PtJfYc7Dgdxyo+A6I6R9//CHvQaWvB4EEE/jWrVsoUqSIkJJEIUGpVdmJ3NzcpMOQwNRyJBa1LLUFO3+uXLnErC1YsKB0bmpikovlZM+eXVDm/9r5tFYDU3OSaA4ODvjw4QOyZMkCLy8vmddyAODAwN++vr6ihTkw8Dc1X5UqVSQf5SaZKS/LIhmoySkbBxXKTQ1HuUlgDhA1a9YUmVgONSOtBVoCUQmsNfFJYFoHJBvJxHKYV6uB+QzxICk5gPBvDmTMW6pUKSFwmTJl8PbtW9y/f18GI5I5R44cgi/Jz88pB9tATCgnNXvu3LmlHA4EHMjYZm9vbyE626zS14NAvAnMzkANSI1DAtJsZaLpR41CzUMCkJTajsoOz05F0pHA1CqXLl2Szkmz9MWLF0IK5om+CMayaXbzh/VRc1JraTXOlStXRDuyXhKCmodmIwcJrdlI2fg8CU4ykDA03WmakrgsQzt35bSAslEr0wxledSsHAhIKhKDMlLz8fOo8lHzUWOzXg5sNOdJSq4XEA+SmxYGBx3KQcKxLiat6ctpCAcskphYU7tJ+1VWAAAgAElEQVRSTmKjnXvzGZKWeBN/DhiXL18WGZmf7SMmfJ64Untz0FPp60Eg3gQmBDGt3mo/j756G9NqMPNGzfdfK78xQR41v/b7mFZ/Y5Ilanna76PXEdMK9OfaF7X+6GVHxSqmuqKuOmv/jv5M1Hqjlh/1HXAApMVCi4RWRNmyZWWlPTrOX0/3VS1JEIEVfEkLAVoktDKo2bkLQAsn6oCQtKRV0ugDAUVgfaCYhMqIboEoAiehl5MIoigCJwKoqkiFwP8LAUXg/xfSqh6FQCIgoAicCKCqIhUC/y8E4k1gzrW4n3ru7DnZysieMzsKFizEpWnZ63365Ami3lfL7Q/uXwYGBuH8ubN4++6d7PUWL1EiYqElXCNeRO8/vJc95EKFC4Pe1azn1s2bsl9qnSIFSpYqhZR2dvI/t3O0yQhGyPhdRlmB5WrslctXYG5uhgqVKiFFpF82t6/OnzsnWzVFihaVelg36w2lM0qkP7dDqlRSPxtAebhlFRIcguIlistWzf8rcQto/PjxyJghA3r26pXgarnltW/vXuTNl0+2rmJa8dY65RB8MzNzeQdMsfmpJ1i4JFgA2/zTiJ/EOWjAwAHSr9auWSPbdhkyZMRxDw/8On+ezhX4v5qg3S04euQIbO3sZHtQHyneBCZ569Wti/dv3yGFjY14YE2cNBGtWrfGnNlzsHDBAnEq0Ka169aicJEi6NypE86eOStk5jNTp01Fs2bN0L9/fxxxPyLPcA90w6aNKFW6NHbv3IlBAwYibbp0MlCkTpMah93dMXHCROzauVNXvu9HH/To1ROdunSGU/XqMDIy1vkynzh1EgH+AXB0rApLC0t5hp2Zn3Mvu0Sx4kJqrU9zhYoVsei3ReJmWbtWbTx/9gxm5uYICgiA2949yJM3rz6wj7UMytjux3bIkiUzpv38c6z5Y8tA/ArmL4DBgweiV5++/yIw9+vLliqtK4aYs96qjlXj1Eljqz85ft+kcRPZz/998e/SD+kgM2zEcLx98wYH9h/AgUMH47zSzwHZsUpV5MuXF0uWLdMLHPEmMMnWq0cPHD1+DKlTp8HwoUNx+fIVHD12TMi7b98+bNm6VTt+w8bWVpwkateshY4dO6J+gwZo2KAhsmXPipGjRqG6YzUhTeUqVdCieQvR5Hv27UXbNm3w8sVL7Nm7F9evX0PL5i1w8PBh0bYkHRO9kurWroOt27bK/ufqVatx/OQJ0dItfmiO9RvWw/vjR8yZNRtLli2VQaJMqdIYOXqUyFK8aDEMGz4ctWrXkvJIZOZZtWoVJk+chP0HDsAhtQMaN2yESpUrYcrUqZKPGuzlixfw8DiOOnXr4tjRo2jYqKFo8vNnz+H8+XPIkycvXGq6wDjSn9vH+yM2btwASysr/NDsB1iniDi1FRIaKtqRMtPtkt5t4RoNdu/cJXXTQeXCufOo16C+jOBBgYHYvWs3ChcpLJ5mt2/dwoGDB5E9WzY0aNgwYn+djiFBQXDdtg0fP/qgQcMGqFihIoYMHoTeffv+qwNxQC1dshQGDhwoeTdt2oRlS5dh9x432V9+8vgJypUri/v3H6By1Srw9fHBpo0bYWxsgmY/NItw5tFoEBgUhMOHD8vBk7p164qlQw1Ed05XV1d4fviAps2aiWajD/p21+0oU7aMYHn37j20btNanGQovyYsXFxbb966iVIlS6J8pNOMFnvX7dvFImvStKnOf54No3V2+OAhOLs4y+DPwZA4UHNSdsqwZcsWWJhboGmzpjKQe3l6Yt++/aheo7q8y3r168P9sDvsU9mLc1D/fv3EKhs6bBgyZEgvTkDNW7YUK4UOQjt37oS5iSl+aNlCytNaLizr+vUbqF+/Ptq3a5c0CEz/3Hp16mLU6FEoVryEEJgeTjNm/YJf58wVsCpXqoSnz56iSJGiGDRksM4nmYSjd9LE8RPQpWtXdOzUEQ8e3EeOHDnl8EBNZxc4OKTCpq1bMXP6DGzdsgWr1q7BmVOn8Nui33DqzGmdpxY7RpdOncWc37h5k3QaEpsm4tW/rqJx48bYvGWzeFQxXbp4CRcunMfC+QtkgMiePQeKFysGJ2cnvH3zFhYW5ujcpQtKlymDdj/+iJCQUCmXHbNXj554++4ttm7bpht1Txw/gU4dO8q+KzUcZRsyeAiOuLujdJnSYspTY69YuUI8sbp17oLsOXKIayPl3OW2W6yRH9u0FdlppVw4fx5t2rbF8BHDBWMStGfvXqhTqzYW/rZIDk/QrOfgtGXrFvHsmj1rtgx+9+7dRSr7VNi23VU6bZvWrXHz+g2RgSTk9GbwZwj8/t17lC5VChMmTsCP7drhxvXrMsiuWbsG7u5HsHH9epiamaF+g/oyAHfu2AkFChYQ64bm5cYtm6UPNG/aTP6nayo9w5YuWyrHKOvVqwdrK2ukSZsWly5exMxZv4gXW9nSZWSAksMfr16JnMTlu0yZ0KtnT5w+dVq89Xgog+6sv8yZjd27dmHMqNHi4cY+xinO5q1bpBySm9OlMiVLoUu3rhjx00/i1eZUvQamTJ0i3mh9eveRQZLWHvO6bneFj48v6terJ7LSlfXU6dPSBzjV40AwedJkkK01a9VC6lQO2LVrF86ePyfvetDAQciVOxeCA4Pw8tUrLFm6VAbXgQMGYP++/eICy7ro3lulSmXDa+Cg4GBMHD8erltdkcImBTTh4Vi3cYMAPWdOhAlN8zNN2jTYumWrEJXzCI6qe9x2Y/yYcaKVNm3ZLC9aO8dy3eaKkSNHYsOGDShZqqT4+TZr3AQp7e2FpDWqV8f8RQt1BHrz+o18NnXaNNSrX++Tc8k9unXH8xcvsHffXtGorLtF02a4cfOmuDSyY3GeV7x4MRmJW7ZqJS+DIB/1OIY6NWshc9YsWLxkiWjVn4aPwJ9XrojZpJWXBO7QoQP69euHrt26Sset5VITY8aORbXq1fDwwUN069oVi5csFm32+PEjHDl2THy1Z8+ahUqVK+P9u3eYNnWaYEGXzuXLlmOPmxv+uHRRR+CpP09D1cpVpMPPnjsHXbt0xZ3bt7F95w5UKFcerVq3EozpH80BbeGihdJhxo4Zi+UrV4g/9K6duzBw4AAMGTw4Rg2sJXD5cuWQO28enDlzVjQVNfDSJUtF2y5fsVwGtw7t2osG2rBxowyMtJRIni3btqJIocJiBfTsRfKdQtZs2UTLHjxwQKwyKytL9O3TV4jKNpcpXQYNGzTAnF/nigXiXMMJM3/5BenTp0OH9h3EgipbrpxYKFyvGDJ0KNq0ai1Tt5kzZ4B9sVWLloLN/IULdJpv2NBhOOrujjPnz4n/+oB+/eBx8iQGDxyID+8/YOnyZeJqyrKyZ8+GMWPHCYE56E+YNBE2KWzgVKOGEJiWGy1DYyMjGdCnT/tZCExLr3pVR2TJmhU/T/9Zpl0/tv0RFStVQs+ePeHi4oxevXph0KBB0hfZN8qXL2d4Am/fvgNjRo2SeSRHtBHDhovv87HjHjJfCg0NQ4oU1tLROYo+ffoMu912IzycxwNNERYejqaNGsuzK1atFOJRk3DEo2k55edp8iJoGtva2mDDxg24c+cu6tWug2UrVoiZw7R0yRLMmD4Dl/+8ImYL66PmGdC/v4zc1IhcxJKzuuHhYgXQU6lKpcro0bMnevfpDV9fP5hbmMPM1BTnz51Hq5YtceWvP9G/bz+EhoVi3fr1Il+vnr3w7u1b6aRaAp88QQ3cCYfcD8uLpmZs3uwH3TnkCDtVI2Y3ScrjlNpOprVhuVCyedMm3Vlmfs6Ocu3mjQgCF8iP2XPmYPmyZZj+83Qc8TgKx0pVMP2XmeLr3aRRY2mX9lw1n+/WrZsQxG2PG86dPy8D0EdvbxQrUhRDhgxGrz59/jV3I4Gp0YoUKSwaI3eu3OjWo7uUzTUHEsjjuIeY/zS1qbm06wYaaGBmYioy0+zs37evTAsKFiqEdevXobZLTbx4+VKXX9tGj5MnUK5MWdGMHED5blj20KFDZerAej1OHBftrE3Enu3ggE7ZtIkk3HfggK5dHMA4p+cAxnUZUzNTGUC45qG9eEL7rLmZGTZu3iwE3ua6DSUiLTZqbWJBAjf/oTmMjY2wafNm/Dx1mhD44OFDMq9ledpjr+wrfM8DBg2Ud8P+QguQ5OZUMX/+fIYnMLXEb4sW4fS5s2DjF8xfgFUrVwqBd+7YiUOHDmLN2rXS0UnCTN9/L3PcWs7OGDdhAqo6OoqmePX6Nfbs3SPzzV+mz0Dnrl3Qf8CAiM5oZITSJUvCxdkF1EB8uQR/5KiRom34f6UKFdG7Tx/06NlDXhznVO3atJXDERwYcufJI++IGmD50qXYsHmTrCKSwGXLlRVitGjeXI4Kdu3WDcuWLpWXfe3GdWzZvBnjx43HNldXMY9qVKuGGjWcMHHyJF2nIYE7d+qMQ4cPIVv27Hhw/wGcnZzw8/TpqFmrJu7euSPzQZrEI0f8hAf370uH9Pb+iMmTJqFatWrwD/DHlMlTZN3AIU1qMbnevXsrK89RCUxNww5ZoWIFHPc4LlYCDziww3Mu36dvH9y7d1+0Tfv27cQEHPXTSNHGNWvWkvnn0CFDxIQmgXlGmwOANkUQuCQmTJiIdu3bacceMRsnTpgg8nlEnpFu/2M7cdvkAMG57ZrVa5Avfz44VquGtWvWooZTDZkO0QoqVryYkJvrGFxPsLSyxOqVq8Q6q127DsqWKaMjMKcWpUqUFC1buHAhWcTjAFCufHkxmz2OeWDMuLEyl7SztZMpBYm6ccNGlClTGk6RR08pfFhoGGq6uMj5aioXKpACBQvKOgoHH2rSAH9/kbdQ4UIyhSOBd+zcgaLFikn7YyPwyVMnUc2xmgzeHJjpzrpyxQoULVoMuXLnhouTEzp16oQRI3+SOT6nPxXKlzc8gf9++FA0VapUDuJze+b0aTRq3Fg6N+dyXTp3hucHTxlxOTKtXrMGOXPlRLeu3WRxJ2eOnHKiZ9jwYWJGcn5HAn6XMaMQlwsDe/bvw6oVK7FgwQLp6I+fPIaXp5eMenTSJ8E4LyEhqMk5WAzo1x9ubrtha2sHO2pkQAhernw5tG3dRmQxMzfDu7fvZM7E+c7cOXPw+6LfZLHl8ZMnaPtjW4waPVpGzGZNm+LG9RuiEakFVq5ZrbsWhy+YJnTXzp1lYS1b9mzyAsePHScLGtQ+N2/ckC2DBQsXyAmljh06IHPmLLIARNl27t4l5j0HM867cuXJjet/XUX3nj3Rp19fsTg4B6bZzEQL5dTJU3KyaMeundKe5UuXYcqUKTLn5gCSOUsWbNq8SSyRju074PKlS9KZ+P/9e/cweMggOKRJK+TeuWuXaFxizkWsMjIHnihz4KgpKoEtLC1x+eJFIRE7vfYYJxcRWTc/v33zlmzV8Rjm2HHjZDBrVL8BNEZASruU0lZiQqL8SwOXKImhw4aiQ6dOsvLLaQ1N+vv37qNxk8aYOGmSmOPDhw2XKduz589hZWGBTVu3yPw66tbXjJ+nY8mSxUifIQOOeXiIlUPLrEf37sidJzc+fPBESHCwkPbdu/c6AlN2JprzYkIvX4YWP/wAYyPjT0xozoHZ93v36i3rIMTCz98PK1etkttXRo0cCdet25AlWzZ55zwlVrlyJcMTmGSh2bBq5Sp8eP9eRl7H6o4w0nD1M2LFkeeA2aE5Z6J5q93XpanMVVN2bO63+vn64tq16zLSi8EZGfGU5hxNJI6eR48cRdq0adC6TRvdkTier6UW5kqn9pQPOwZH8ajlcATmuVwuGlEbent5oXqNGvKZ1GVkhCePH8uCC48qcgGMiWVSfsrr7+ePylUq/+uY46uXr3D8xHHUqV1bVoe15V288AcuXvwDOXPlEm1kYmwiK5ieXp7Y7uoKS0srNG7cCFaRN4/Q3Dx04IAsMtE6YcdkWdSmHKyogQgPB71rV6/JUcG8+f7ZzqI2PHLYXQah2nXrRADJK32CgmQwofnMFXLiWLhwYWTNlhVuu93EbNVix3e2c8cOMR/Z+aKarMSGC0FciNJekMBFHy5WmpqayODNgYhlEWdaEa9ev5KFtfyR94Bxddpt1254eXuhUaNGsj0TEBCInTt3yJoE10L47I4dO1C0SBHkL1BABh2PY8dk+lSiZAk5YaVdYX/18qVoZa5+c85tZW2FiKH/n0TtfODAAaRJnRpOvDklsm95enlhp+t2mFtaoFHjRjLfpcI5cPAAnF1ckDry2CWtDvZdnqPmxQysm7sEXJB8/OgRGjRqJFOkV69eY9+ePbCwsIwoL3ILlYP08WMesopes6YLbty4iVT29qK09OGnHu9tpE9QUv8oBBQCBkFAEdggsKtKFQL6QUARWD84qlIUAgZBQBHYILCrShUC+kFAEVg/OKpSFAIGQUAR2CCwq0oVAvpBQBFYPziqUhQCBkFAEdggsKtKFQL6QUARWD84qlIUAgZBQBHYILCrShUC+kFAEVg/OKpSFAIGQUAR2CCwq0oVAvpBQBFYPziqUhQCBkFAEdggsKtKFQL6QUARWD84qlIUAgZBQBHYILCrShUC+kFAEVg/OKpSFAIGQUAR2CCwq0oVAvpBQBFYPziqUhQCBkFAEdggsKtKFQL6QUARWD84qlIUAgZBQBHYILCrShUC+kFAEVg/OKpSFAIGQSDZEfhbjFNrkJ6hKk0WCMSbwNq4NLzpXpu0l3rzNy//1sfF1dFRZLQEXrbOsB0kM//X1hNVls+hz2d4Oz7DV0aNq/Nf+ROjHcmidyghkzwC8SbwtWvXJGIAw4wyHpEEyi5RQkJmMFwmw1HoM5F4DN/J2/EZqIxhLBkNj/GAtalBgwZxGjQYaYERGChnbOnRo0cSHYBRA1RSCCQ1BOJNYIaWJAEYYoJxeqgJGRqSMYpINGpJxhJiXB/G3CGxGbCMJGfwZYa8YGgWBnlmKBN+xjzUrMzDvNE1H6PtsWwOFn/88YfUy9g7JCMDljHEhjYsCz9nGQzVwcGEslHrFitWDBx8+BljFVFrMw/LYn4GRePgcOfOHaRPn17ysE6GgaHMz549k7AZLId5WW5UmVk/y2d4F8rD2FBsH6MWaqMHsi7iw3xMRYsW1QWETmodRMmTtBGIN4FJXJKVpEubNq3EQrKyspLWUmMxRs+pU6ckjgyDebPDM44RSUACsIOT3NSGjOtKTcqYPSQ7A3Yx9g/TrVu3JE4QE8lB050xl0hARk1nvFhqYg4A5cqVEyIz7d+/X+LoMNAa62L9fK5ixYq4cuWK1M3YSozJQ5OaEdZJLGpcDiCXLl1ClixZwGDkHJz4HbU/ZWGMIMZbIpk5mJCYDEHJSIHv378XspLwjNVLa4HPEyvGAqK8jo6OMvBpYzBxMGT8XjW/T9pkSYrSxZvADLxNE5qaih2RmpQE5ufUzCSwm5sbqlatKh2a0QVpavNvdmRqJpqlDFxGUrBjkxTsxNRojBpIDUwCURMykbzUXCzfw8NDOj21IzUry82UKZMuQjvJxsGDAwKJRgJTazNoF7Wqtk7moWanNuSgwfaQfBx0GHqThCQBKY+7u7tEoKPGZns5EDFEJ2Vk+yg3BwISlwMFfzOMJS0NDgBsBweWSpUqibzEhomyMvK8SgqBL0Ug3gSmBmE0eXZ4Bi/WBmCOTmB2bJqZWk3GvNSI1LIkyIkTJySoNAlEMlKTk0AsW6t1taY0tTe1JjUdNRpNTxJZazazLu3C1NGjR1G9enUdgZmXpCGBWRc1MAeNqAQmoUhSyqaVQ0tuBmy+ceOGDCAkMOu6efOmWBSUm1qVAwmfYwREykhLhHJyMOPgwc/4PQlMonP9gBqagwnzqKQQ+FIE4k1gdlptR6fm1RJH+znnliQqTUwmbUR0ai12YiZ2aF9fX+n4JCnz8zn+/7lELU4CsRyariQAy6AM2mjxfJZmMesm4ahB+T3JyDopI7UlNTrzsAzt3JrlMz/bo41tzPKZnzLyb5bB8vgc62G+qDJTPpbHfMzDethmzolPnjwplgNNfT7LJKFXjT4Ni/mlL1Ll/zYRiDeBv0244tdqDky0WEhSEp2mekyLdPErXT31LSOgCPx/ePtaE1+rZdVi1f8B9G+kCkXgb+RFq2Z+nQgoAn+d71W16htB4P9GYK3ZGN2cjIpzTKalNj/zxbbQo3tew8wRJX+uzKhlxWbSRinOMN1CA2iMdE1KsAwasMDY8UxwRaqAREdA7wSOSrjo0sd1DvgPEaWX/YuEUQeB6ASP6TvWG30AiTogfE7mLyG5vt+UVqadO3bIvnmFihVjHcDiLIPBR6Q4S6oyxoJAvAnMPc7Ro0bB/bC7bJHQG2rqz9NkhXXZsmVYuXxFhAaEBkYwwtJlS1GwUCEsnL8A69atky2jDBkzYPr06ShVujTWr1uH33/7XT6nQ8aKVSulzL/+/BPDhw3HixcvZCvHsZojps+Ygek/T8f+ffsi64jQTq1bt0bHzp3QvVt3XLl8WbaC6OU1a85s2U7q07s3rly6jJDQUBQpUgRr1q2VrbBaLjVlm0tLcnpwzZ47RwgzbMhQcE85JDgY+QoUwMJFC8UDLHqKqsWja/TYNLyurCials8Q45ouLsiWNRuWr1wR40CmHZw+sVBEwZKl/2hZlsctsrKly6BP3z7o1r27IsdXgEC8CXz2zFn82LYtpk6bhuIlimPIoMHw8/fDwUOHMH/ePGzduhWjR42O7EZAhYoVxHOrWlVHVKlaBa1atUKnjp1Qukxp/DRyJCqWK4/OXbugdu066NG9OwoUyI+Vq1ajZ48e4ta4bsN6nD51GlMmT8bps2fEEeLpk6fyCrjPOnb0aMz45Rf4+/lhwoQJWLxkCR4/eiR/u27fLh5VI4YPx+SpU2Bhbo7OnTrjl1m/oHGTJihetBiaNG2CkiVLyUiQNk1alCpdSvZsO7bvgIGDBooH1vhx49CufQcMGjxI9+p9fXzEXTNnrlx4/PixOIqQLBxw+ENHDrp9cttIowGCgoNw6+ZNGVzy5ssHM1MzwEiD8LBwPHjwEF5enuLUQfdUJnqE2dna4bvvMuLFy5fi/MK9cu4v3717V/KlTp0GHz68F4cZ7jXTM05LbA4Cd27fQXBwELJmz45SxUtg8OBB6N2371fQfVUT4k1gHhZo1/ZHuB89gtQODhg2dBj+fvgQu/fuwby5v2Lfvn2YMWMGLl+5jHLly4vnk7ZT0VGCGq9p4yaoXLkyBg4ZjL179qBu3brS4Vu3bCW+zYePuKN/v364ef0G3PbuxdWrf+HHtj/i3IXzkk+bpk2ZKvWdOHVSPLNIqnr164M+xnVr18HqtWtEEzPREYPkr+1SE0uXL0dVx6ooUaw4BgwcCHNzM9jZpZTPbFLYoGu3rnjz6jV2ue2WZ9u3aydOJBs2btTVffLESXTp3Fnacf36dZw7f07cJQcPGixEo0NHr1690Ld/Pzn80KBefbFYtCecXHfugJmpKSZOmIAN6zcghbU1AoOC8Ou8eXB2cRb58+XPjw4dO6BJo8YykNEr7MnjJ6hRvTp+X/w7LK2s8GObtrCztUVAYCCcnZ3x6/x5IuO4MWOxceNGsV5odXBAGDJksCLwV8L9eBM4LDwc8+bOxYrlK/45QHDwgLhAzp09BwsWLJDP06ROjWfPn2PmrF/A43407Hbv2IGxY8fJ97vd3JAmbRqdO+S1q1fRtElTzJgxHY2bNpXDBc41nHSnnOrVq4cp06bqzMOP3t5wrFYNffv0QcdOnf6xRjUaTBg/HmtXr8HZC+dlHsnUsEFD3LtzBzWcnTB33jyYGBmjeLFiQqoCBQuIdixSpCg2bNqIOrVqI3PmzFiybKk8O2LYcHHI2H/wgG4+evLECbRv1x7VqlfD4MGDxU/b0bEahg8bhqY/NBNTvkf3Hli/YT3Wr98A98OHsW//Prx+8wZ9e/VG1+7dZMowoP8AbNy0Edlz5MCMn6eL9ueARALnL5AfEyZORPmy5dCmbRuxWCaMn4BNGzfizLmzYtVw0Bk3fgKuXLmM7l26YtOWLXj/4b1YMAMGDETLVi2xZtVqLFq0SGngr4S8MkXS/Neq03809Py5c+jcsRMGDRks5uXi33+HiYkp1m/cIIcFrl29htZtWoup2LpVK4SHhUmnoilJDXj58mVMnTxFfJEnTJooNdEU7dShI9KmS4vVa9eKZurft6+UNWLkSNy7e1c64M5dO5Enb1555sCBA+jTszeOHj8mp4e0aemSJZg9a7aQr1LlyjJHZlMvXbyEO3duY9q0afj1119Rw8kJa9eslcMJTs5OcNvthsGDBuGva1fRoV178ZxatWa1FDugf38ZUHbu2hVFA5+QqQBJTTP6z8tX0LRJE/FvprsnNTbx4Lz9l5kz5VDD0uXLIqYWGo0MBNSSmzZt0p3AovVBLO7cu6sj8Ow5czByxE8yHz9w6CAqlq+Azl06yyGI+vXqy2ELWzs7metz0OjXrx8CgwKxZfMWXP7zitTFQYODgDKhvx4Gx5vASxYvFu178vQp8QVesXw5FsxfgGMnjuPOrVt4+PBvNG/RXDpo29atERYWjmUrlmPShAno3K0bcufKhYEDBuLunTvYu3+fzOdI3mzZsmLZihXia8xOXqJoMbRq3QrDhg8XLVkwfwEMGjwYvXr3kv9dnJ1RongJzPl1ruSnabpw3nxZSGM+mp6U4biHBzyOHcOwESPER7mms4uQjM+tXbMGhYsWkXL27t2Lgf0H4Matm5gzazY2b94spjznlvXq1EWu3Lkxf8H8TwjcpXMXHDx8SOauN2/cRP26dTFh0iSUKFEcXt7eePH8uawid+3cRWTZ6bZbFsWuXL6CjN9lxJ7du7Fs2XKsXLUKlpYWclyRZjStDdZJDUwCcx5P4nbp0kUWBd3dj8gyoWNVRwwcOBDVa1SXqQlPX3Ehbv++/Zg1a5ZMczJ/nxl//HEBLZu3kDm8mgN/HSSON4coOakAACAASURBVIF5Kojz0bp16qBM2bKYM2sWUqVOjYOHDuL8ufNo3+5HWT3l/IxnepcsXSodzLFKVem81WvUgKurK+rWq4tuPXqgppMzjI2MUKx4cZ15unL1KgwZPAQnjh/HyFGjcObMabgfOoyjxz3EtOUZ4h7duuP4yRPIkD6DrLyOGjkSGzdslBXs7zJmFFK3a98eadOmQds2beXkE7UqjzEuWLgAderURaeOHXH27BkhAttVoFAhMWc5nyxdvETEtT3GxqLdFv3+2ydH/2hCRyUwB5XKFSvJ4NKydSts3+YqhxbOnjsrC3yjfvoJzi4uePXylZxu2rtvL9KkTYuqlavIiS4XFxesX78eJUqWFM1fr04dWT8ggWlBcB5MjZ4ubVoxsU3NzNC3dx9ZA+jatSuOHjsm6wcnT51ESHCInHwKCwmBk4uLmOU+Hz+qOfDXwd2IaWR8TehwjQZnT58BTVWeea1cpYqYdNpjgFzQOXTgIELDQmVOWLZcWanw2dOncHXdLgtMPDjftFlTBAUGYvOmzf+CtWu3bggIDMDyZcuFxNy+adehvRzdIzO3bd2Ku/fuinaW01AaDXbvdpPVZ7FQI/05KlaqJCvlf165gl27doPzZpeaNVGrdi3Jx4sGODfl/DZ/vvyoVae27njk3Tt3sXfvHvj7+cO5posMANqbNfgsj1Nyy2zIsKG67SVqQW6LcfU8Z46c6NCpo5joHACOexzH9u2usLSwFILzQgEmHi1ct3oNnjx9Klg2btJYTPA5s2fLYNSqdWvJt3vXbjmCyaOP9RvUl8/8fP2wfcd2HD/mIdOI1m3byGo1E3FesngJfH19ZJuNz9esVRNOzs5fUTf+dpsSbwJHTOE+3WvUfhbVYUNGiShH5T7niRXTVDzqHud/lfM5x47or/VzjiTyPGWMnJNGfy42b7Co89lPno3BYSLGdnKGLtVHzInj5T2mbcNn+nL0suO8N/3tciNZtDxBBNa2UB+dIS6d9nOIJqjjRxYaK0ljGKz+q/0RQ9un7o9xaaPW8eW/MI1t4IwJp/9yNEkWPVUJGSMCeiGwwlYhoBAwDAKKwIbBXdWqENALAorAeoFRFaIQMAwCisCGwV3VqhDQCwKKwHqBURWiEDAMAorAhsFd1aoQ0AsCisB6gVEVohAwDAKKwIbBXdWqENALAorAeoFRFaIQMAwCisCGwV3VqhDQCwKKwHqBURWiEDAMAorAhsFd1aoQ0AsCisB6gVEVohAwDAKKwIbBXdWqENALAorAeoFRFaIQMAwCisCGwV3VqhDQCwKKwHqBURWiEDAMAorAhsFd1aoQ0AsCisB6gVEVohAwDAKKwIbBXdWqENALAorAeoFRFaIQMAwCisCGwV3VqhDQCwKKwHqBURWiEDAMAvEm8M2bNyXeL4NGM/QI4w0x3Alj5DKuESMRMH3uovLPNfdzdzzzc8YMevfunQQBix7YmvUyRQ1wpq0j+gXxWrm03//XPcvRL2KPekm9YV6ZqlUh8A8C8SYww6kw/u2ZM2eEuIyD6+/vD1tbWwl2xt/80ZL89evX8jnDfDIgN6P2MT+DhvGHsYQYtZBxbNOnT68jf1SSsQ7G92H8IC0pSWh+zt8cRBhHiHF4+T1DoDDe0Js3byQ8CQcaT09PkYHfs35+p40imDFjRimH5TH0KdvH34w1RJn5PQcnlRQCSQWBeBP4r7/+kjhIt2/fRtGiRSUqHkNiMn4R/2akvitXrgjZGFSaJCdZGD+XcYyoTQsWLCh5nJyccPDgQSmH5GMeEpHaz9vbWwYBbTp06JAEsGYi4RnPiM9du3ZN4uxykNASlp8x/CYHGcYgYp0cLJiPZGadrIdR/yhzyZIl8ccff0jUQpbL38xHUufIkQNsM2VlHSopBJICAgkmMCMPUqNR01FzktDUvCTwnj17JAjXxYsXUb16dSHD2bNnxbymdsydOzc8PDyEKCQZzV+GByXBaSaTwCyf38dE4Pv374tmJIEZsY/PkbzFihUT0jMIWJkyZfDw4UOpm4SnHNSsJCwjFNauXVsGCQ4k1LAkZ548eSRyIK0BkpdyUWbKyij3bKtKCoGkgECCCEySMDofNZe2U1NLUYOSwG5ubqhWrZqQi5qZUQCptUlMki1nzpxCMhKQmi9r1qzw9fUVDclBIaak1cA0gWnaMlA4BwJG9yPJaOKSqJSHBCdhmRgYm2UyuiCfJaFJSNZFU5qyMVoiNS8Jy/KodZloFZDcjLtbvnx5GQBUUggkBQTiTWBqJnZkdnwSg9qKiZ9Ti9FUJQlIEBKG5ivnqJyL8hl+xjwvXrwQzW1iYiKaktqb5X0uuBfNdJrj2sUkzmmpQRnzl2U4ODjg+fPnouH5w4GDn1PbMuh11Dksw30+evRInqEmp6wkP+fnnJOzTSQzBwrWwQFGkTcpdFslgxaBeBOYBUSPeMfPoq46fy6UaFT4oxM1tmfiGpkvarkkJQeHChUqfPLmo9dN8/3IkSMyiHCQqVKliixiqaQQSKoIJIjASbVR0QcIalcmrjbHlpiXZjw1NYmsto1iQ0x9b0gEvgkCfwkJY7MADPmyVN0KgegIfPUEVq9cIfA1I6AI/DW/XdW2rx6BeBM4uqmp0UKlifjrc2ZrVFfJT/LxMaNY8NZV8u+8//W4PKbR6GTSyfC5KtkGowhh4iLWV99LVAOTLALxJnB4eDhOnTyJOXPmwMvTC1WqVsWAgQNkn9d1myt27tjxSaPHTRiPXLlyyZ7wz1On4dnTp2jQqCF69uyF/Qf244j7kchV7QjWdOjYEWXLldWVwT1bj6NH4FitOhyrVQPrd9u9G8uWLoO/vx/q1KuHbl27wczMFEOHDgW3iLQpbdq0mDBxojiFTJk0GS9evoSLizOGDhsmW0zc+poxfTo8jnmIjGPGjRXnEdaxedNmrFuzBoFBQWj6QzO079ABKaytY32hvXr0hNQ7aWKsefWRgbK2bN4Czi7O6Nqtmz6KVGUkAwTiTWC6KTZu2AgNGjRArdq18dPw4ciSLSu279iBuXPmYu2aNajfoEEEBBqNdKrvv/8e5cqUQe48eVC/fn2MGzsWvfv2RY6cOXD61GnJ6uPjgz1ublizZg0qVaksn3FV2LFKVXx4/wEDBw1E3/79cNzjODp37Ij2HTuIc8awocNQt25dIczUKVMRFhZB4EMHD4kTxtLly1CpQkXZSqJzx4QJE9CpcyeMGj0aPbp3x8U/LmLKlClYsWKFeGntP3gA+/buRd8+fdGrd2/kyZMbw4cOQ9fu3UWG2FLjRo3FseS333+LLatevieBK1eshEaNGmLIsGFq9VwvqCb9QuJNYDpGdOvSFZf/vCJOFCOGDRef5yPHjmLBvPniZ7xp8ybcvXsXefPlky0ZXx8fjBo1WghAMjtVryE+yjNn/aLrcKtXrcKihYtw1OOYlEuPqXY/toONTQrcvnUbLVq0EAJv2bRZSHj1+jVx2GjdqjVsbVJgybJluv3p16/foGrlypgxcwYKFCiIhQsXYPSYMeK40bRxE3HYcNu7B1UqVUa9+vUwbMQI3Lh2DY0aNsKlK5exedMmacuf167Km6xTqxbKlC2LiZMm6cxrby8vDB82HA8fPBAnj5atWuLHdu3QuFEjIFwDu5Qp8eTpU+TIkR0zfvkFqR0ccP/efYwdM0YsgSyZM8PWLuIAyNxffxXr5M7dO8ibNy+ePH6CeQsXYPLEiTh16pTUWb58BYwaMxoW5ubYuGED1q9fj6DAIPHR3r59O374oRmGDh+e9HueklAvCMSbwDyx07ljJwQEBoh/8N49e/HLrF9QtVo1zJ0zB8uXLpMpLV0mLSwtsWbtGtG82rnl61evUNPZBX379UXnLl2EwNQi9erUlfKmTf9ZPlu3di2m/zwdh9wPo3XLVmjSpIkQmFqZJqN9Kntky5YdBw8cwOIlS1CiZAkdMCTgmNFjcObsWfHI0iBiHkyvsFouNdGzdy/07t0bzZo0RbhGg0mTJuHAgf0ygOxy2y1eWE0aNRa3UHqLubu7Y83atciXP5+OwHvd3DB40GBMnzEDV65cxrWr17BtuyuaNmmKB/fvo2/fvlL2/Hnz0KhRI4yfMAF169SBr68P2rXvAOKwfsMGFCyQH647d6J/n77iQ05f8KrVHOH78SNcXV0xZGiEVqWp36JlC7Rr1w5ONZzEDbVm7Vo4dOCg+Jn37NlDEVgv1EgehcSbwHRXJAGpSXPlzgWPo8dkHvrz9J+xfNlybNiwHrvd3ESLkiwZv8sonZ+LQn6+vmhYvz6CgoJx8NAhpLCJ8HY6sH8/BvQfgLPnz8lc+uGDh6hdq5Z0+qZNm8LF2RkNGzVC/wH9xc+ZJjwPHtBUPXbsGPr07Ys+fftIWdSuFcpXQOPGjTFq9KhIS14jn//Yti18PvqImcwFLWq3Af36y3cs788/r8Btzx6EhYejxQ/NUahQIaRycIDH0aMYP3GiaFntIt3ZM2fQqWMnFCpcGD16dkeZMmVha2MrGpj+2MtWLJc62rZpI3P7JUuXokzp0hg6fBg6dOgg3/3Q7AeEh4Vh+84d6Nenr/iH07Lhd3Vq1YapmSlq1aolbdixfQfsU6VCy5YtMGL4CBw8fEh8wTn4FS9aDG3btlEETh7c04uU8SbwsqVLsWzZMnicOCE+ziuWLRPNdey4h/gVBwYEIHuOHNIJOcd89eo1du7aKZqzXdsf5eD/nn17xTeaifmoCdOnT4eFv/0mBOnTuzf279svc1j+T5dIujauWLkCGzdsBC8VoAnM74YNGYKbN25iz/598v/OHTvFTD199oyY7yyfhxaotT98eI/NW7Yg0/ffS94Xz1/Az89XiMELCjjf/uvaVfTo3gMhwcHYuHkTjI2M0KZ1Gyln/cYNOgKTOPTnppyrV6+GpaUFDh0+LBo4Y4YMWBQ5B+7Qvj2Cg4KxdBkJXEYW0Np3aC/lNG/2gyy6aQnMhT6PE8flszq1a8PO1g4/tGiuW6TnYOL54cO/CFyiWHG0adNaEVgv1EgehcSbwDxpNHTwEEyaPFkWoWbN/EVIyTnwHrc9Qp7efXrDzNQMCxYsQK9evdC6bRs0a9IET588RbsOHURzpkplj0aNG+MN56tVqmDBwoWo4VRD0OPK87Onz3RITpsyBeUrVMDkqVOw3XU7Fv/2G6ZOny6HH0aPHClm8roN64UUbVu3kW0pan0xm588RdcuXXDv3j1ZSc6aNYusQLds1Qozp88QM3XMmDFwP+KO27fv4LD7YUyeNBk7tm/Hz9OnI6V9SgwaMFAWzH6dP0836HDBbeGChWLW37t7D0sWL8b1mzdkjs2BR0fgdu1Fw69Zt1a0Kqcg3bp3x9u3b7B0yRI5l7x9x07069tXzjZzIGSaOGEC3Ha74aeRIxEWGopVq1aJBcA5L03okqVKoX6D+jKFOHrkqDKhkwfv9CZlvAlM7TBh3Di4HzmKoMBA0aQTJ01EiZIlRUvN+/VXmZdx/le+QnmMGTsWjx89klXdqInzzAWLFgpZ/vrrT2zevAUmpib/aiDLbFi/AZr90Azt2rdHSGgohg4aLAtnXOhiOdNnTJd5NjV129atMTmS8Hz20sVLmDB+/CflmpmbCeEDAwLx0/ARePDgPlLY2GDQoEGyLcY29u3TB1cuX0FYaBiy58gu8/wsWbPqNDBPKQ0ZNEjOQZubW8gBiLHjx6F3z16fbCNxBTskJBiz586VI5hctX/1+g0yffcd7O1TygIYLY9JEybK95SLiQcsRo0ciTOnz0idXESbOm2qDD5rVq/G+rXrEBgcBMeqjrh584bsCHTt1jUOm+p660OqIAMiEG8Ca83eqLJr54UxHQWUz6gSozlraB0lIn5ruOMU5y2QqPdVRXccieq88S+nk0hnE8qukzmiQf+6a0tbTkztjP7etH4mUZsY631bzKx7UBD6JMXk+BJjmZGU/dwxTAP2MVV1IiKQIAInolyqaIWAQiAOCCgCxwEklUUhkFQRUAROqm9GyaUQiAMCisBxAEllUQgkVQQUgZPqm1FyKQTigIAicBxAUlkUAkkVAUXgpPpmlFwKgTggoAgcB5BUFoVAUkVAETipvhkll0IgDggoAscBJJVFIZBUEVAETqpvRsmlEIgDAorAcQBJZVEIJFUEFIGT6ptRcikE4oCAInAcQFJZFAJJFQFF4KT6ZpRcCoE4IKAIHAeQVBaFQFJFQBE4qb4ZJZdCIA4IKALHASSVRSGQVBFQBE6qb0bJpRCIAwKKwHEASWVRCCRVBBSBk+qbUXIpBOKAgCJwHEBSWRQCSRUBReCk+maUXAqBOCCQKASO6d7iOMiisigEFAJfiEC8Ccyg2CQqg1hHT4wVxBCelpaWXyiOyq4QUAh8CQLxJjBjDDFMp6Ojo8TnZQoKCpKQH+fPn5dYPyQxg5lZWVlJXCB+x0gIjIXLcChM/JuJgwHjBTHECMOJMGAa/2d4UoY44f+sh8HHmPh/9GgMX9JwlVch8DUgEG8Ce3p64sqVK6hWrZoQ6cmTJxIfiGFB3759i7JlywrBGamQJGR+BgZj3J8KFSpICE3GAWZ+Rg3k/wzHScLb2NhIwLKHDx/K32/evEHVqlWlvPfv3wvZGTgsV65cX8M7UG1QCMQbAb0R+MyZM8iXL59o3ePHj0uc3YsXL6JGjYhIg/zMxcVFfjP6/PXr1yXCHrUyTe6///5biE3NzoBhNNFLliwpJvrevXtF0zOANcvjgHHw4EGJmatiAcX73asHvwIE9Ebgy5cvi/lL4jKSfenSpYVw5cuXF3OZMW+dnZ1FAz969EhInCNHDiEjNfaFCxeE4NTq/IxamVqWUQ+PHDmC6tWry4BArU3ScgAgqRWBv4JeqJoQbwTiTWCaxiRigQIFhHCcm966dUs3p82WLZsIRbM6ZcqUQsjChQvL71OnTglZtXNnBsmmBqbmpclMrZw5c2ZdeTTPK1WqJGSlhmaitre2to53w9WDCoGvAYF4Ezi+jScBOc8tXrz4fxbBYOEktL29PW7cuCEamAtXKikEFAL/IPB/JzAXprhARU0bW2JekpiLVdr8auU5NtTU998SAv93An9L4Kq2KgQSGwFF4MRGWJWvEEhEBBSBExFcVbRCILERSBCBP7eFE9Pn0T/T+ktrGxh9bquPMlh21HI+56P9X7JEfSauW1bafHHN/6UvWQPAKPIhffudRy07rnJpNICRVqC4PqTy6QWBeBOYHYfOFksWL4aXpxcqV6mCBg0biFDnzp7F+XPnPxGwecsWyJAhg3hmLVm8BM+ePkW9BvVldfncuXO4fu16lPwaODpWQ67c/3haPX/2DJcuXUTefPllD5npwYMHWLtmDfz9/FGnbh1UdXQUt8t1a9eJO2ZE0sDOLiWat2gurpm/LfoNL1++hJNTDdSsVUtycBtry+YtOHH8OHLmyonuPXroFs1uXL+BzZs2iZto46ZNUK5cuf8EnnvaM2fMQKfOnWWrKzHSx48fMWnSJDT/oTlKlymtlyrYvtGjRqNevXqo6lg1zmUumD8fZqZm6N6zR5yfURn1h0C8CfzyxUs0qF9fVpRz586Nw4cPo2Wrlhg9Zgzmzp2LpYuXSAfWQEMOYfqM6cidJw8aNWwEby8vIeGxo0cxc9Yv+PDhA3bt3CWtYkeis8dvi39HzZo1dZ81bNAA/2vvPKCjqro2/M4kmQRSKAlEug0bFuCjKFKkYwENEHovojSRIigByxJBkUBAkKIUpQXpvUkVEEGqDQRRAQ0lCRBIz8y/9snM0JSE4ZAT/N9Z61ufJPfufe5zz3NPvZNDvxzC6337ovdrvXH0yFE0adxYzVAXLVYUa9esxRsDB6oytGvbDunOvdZHjhxB8WLFsGDxIoQ3aaoklg0ksnVz7LixaPDss/jow48wY8YMtTNs7549uL90aUybPk2tQzdrGo5HH30UBYODsW7tWnw0ciReCnvpH++APNSO/fYb6tapi6nTpqoHirp+WFSLeVXL6Yzg+rn8Vo5y8VI9EkGnDpAznc2uAzhz+gyerFxZMW0aHp75K2cTmHmoQ/3b3RNQp17O7u5xWJzlcjiQmJiERx95BBERg9G5a1d3uVVsdQszY6rojsz/tjvsCG/cFL6+NsyeO1dfrWSkbBPwWGDZbdXj1e7Ys3+f2lAxaMAb2LZtGzZu3oTx48ZhzZq1WLJsqWpxZQnI28cHyUlJqFOrNqLGjVU7qurWroPKT1ZWUkilkCq2etUqDHpjIL7Zvg1BQUGw2zMQNWYs5n/1ldrR1bZtW/R8rTe+nDEDH474EAd+OKg2hLRu1Qp+vn6YOn2aiiOfSxcvolKFiujTpw+qPF0Fr3R7BXPmRSuhGzVsBKvFgsVLl6Bu7dp48qmn8N7772PXzu/Qvl07HPzxB0wYPwGfTZmM/QcPqnjPNXgW5cqXw/ARI9yApdzywPlixgxYrV6oVasmunbp6hZYNrvM+nImTp06herP1FAt3Llz5/Dp+Ano3LULSpYsic+mTFG9iF59XkNGejo+GDYMLVq2xJbNW5CUlIj77r8fG9avx/8qVFQPj4QLCW6Bw5s1Q1xsHOZFR+PAwQMoW7YcGjdpjJCQENWzkN7NvLnRCCkUguo1auDrdevxzrvvwGK1qh7MjGnT1eaa5i1aoHmzZhg8+C0lsJR79qzZOHHihNp0I//L658XCQkJqreyb+9e1G9QX/WmAgMDMGvOnGxXOh6oj4DHAsfHxaF6tepo+MILqNegPgb0H4DWbdsoWcZEjsbMmTPVSwyyaUNa27lfzYO3l5dqYWXLpezcqvlMTYQ1DsOgQYPcV9ShfXukJKdg1pzZSkzZjtm+bTslmjwwGjdujF6v9UZMTAxq16yJDu07oNz/yqNv336IiIhAePNmqsWSFkL2Z7dt3QZfb9iAkqVKqgeAvP0kFbtyxUqoWq0qxkRFqYeK7Cgb+8k4tW3z5c5dsGL1KgQGBKjWtGfPHkqifn37YvSYMahbr567NTp44CAah4WpN65kp5ls95Q80oKHFCqMJmFhajOKxJd94GXLlsXcefNQtUoVtO/QAd17dEfVKk+rFzYO/vQj9n6/Rz1A9h88oMq+Z+8ePPboY+pFj42bNqJfv34ID2/mFviFhg1Rp3ZtnIo5pSTbunWrOnbV2jVYt2YN+vXth4IFCqDU3aWwf/8BNcQ4fORXxMfFo+Yzz6gHxtNVq6o3yETOwUMGI+ylMNSqWUsNeaQ7PWvmLNUb+ujjkQh78SX89OOPKF+hAv44dgxx8fGoXLkSBdbn5E1F8ljgCxcS0LljR/z8yy9qv7KMad997z2ENwvH6MjRmPjppxj+4Qjkz5cPgwYOUi8hfDBiuKr4Mj4d/OZbWL5sGZauWK66tPKR/c1S4RcsWoQyZcqoTRxSYapVr4a333lHieYSWFqdVi1bqn3U8kbTqdOnMXZsFGrWquXu5sm5Io+0yq5tm/LLoUOGYNWq1Vi9ZrWq7NOnTcWw9z9Q49+0lFTV+ixaugRF7iqCpk2aqIeN9CLiYmMx6bMpqFSpUmYOAFGRozF58mSsXrtGbf+Urnz3V15ROXfs+Fb1HNZv+FptJ5UW7d133sG6r9fj449GIjYuDlFRUahfrx4KFCyI3r17YdeuXfjr5F/qfOnyS1m2frMVPj42dZzE+XTiRLfAwnNIxBCVQ+6D66E1Z+4cTJw4CTJ3sGzFcrWL7eORI9UcwKFfD2Nc1FhMmjQJa9evU70AGc507tQZbw1+EzExpxAdPQ+jIkepd7plDmDbN9uwZv061KpeA9179kSPnj3UcKR+3XooUbwYZrELfVPi6TrYY4HnzJ6txo6bt25BUGAghg8fgUULFmDjls1K0JSUVBQqFKKGb1Kh/zp5UkkhLUDUmChM/fxzTJoyGdWrV3dfS7eXu0Fa9uj5X6kx49CIIYiOjkbHTp1Ud3fOnDlqHD1y5Eh8+eUXWLN6jaq4Ujm7dumC2LOxWLhooZoSlZa7Y/sO7goqSaRllEmXaVOn4f1hw9CwUcPMrvalS/jxhx9UN/fRxx5TD4rt3+7A8GHD8NNPP2PFqpWq5ZYHgnRFP/v8c3eZpYxLlixRXf7AgED8cugXPP/sc6oLvWL5ClUOKaPN16a6xJ07dcKKlSuxe9cuTJkyBU2bhuPwoUMoGFxQdWmP/3kcHTt1VK2zCCxlk/wiqvRETsXE4IuZM90Cx8bGqYnE7/fuUcfI7rXatWph1KhRmDtnruoFSW9Gfrdw4UIM6NdfCSzSf71+Pb7bvUv1WP6OicHTT1VRXeg9e/di44aN6vVPNZaGA1aLFR8M/wDP1HgGY8ZG4bnnnlM9mRcbvYggdqF1+XjTcTwW+IsZXyBy1CjVmvj7+2N0ZCQWL1qMDZs3YfrUqZg+bTpWrlmlJmak4sv7wTJhJd3gjRs3YvynE1C+fHl4Wa3Ilz+/euFfurX9B/RH6zZt1IUMjYjA9m3b1ZqJtHZ//P6HaoE+n/o5Fi5YqLrGq1avUpW0V4+eOHP2rBp3S4WU7q5MekkLLzlSU1LQr39/rFi2HJGjR6N6jcwHh7TQ/fv2w959ezF/4UKsXL4cY6PGYtf3u9Gt68uQSTB58EiMls1bqNclp38xw93KSwv75qBBqlWsULGic9w8BdNnTFet54gRIzB/wQI10TbkrQhs2rRJzRNId7XRCw0Vu7cGv6Ve4HhjwBtqLiD6q3lqjsAl8MrVq1Q+EViGDl9eIXDRYsXQrk1bjPx4JGrXqaMm48aP+wSbt2xG5KhIrFy5Uj3UChUujL59XseWLZtx+MgRLFu6FP1e74vBERFoHN4UEydMUOPZwYPfREBgkOqlLF22XJX70wkTkJFhR/fur6phzxNPPIHI0ZGqByH39vHHH2MX+qbV03OCxwLLUkZ403DVIsj4T2aSh749FK1at1aTIt1efhm7d+1WXdf77rsPs+fMqzRg2QAAFOhJREFUVk/5BvXqqwmUPL6+qrLeV/p+LF22DCM/Gqkmgr79bqeq1NetGwMo/0RZ1Rr36t1L5ZMZbZmokhZY/h01bhzq16+nJomkNRk6dChatGqpYn2zdauanZaPTLrJz/x8fbF1+zacPHESzZyzuVL2fgP6o1u3bqpFlpn2jLR0eHv7IP5cPKZOn4qnn858M0o+cnybVq1x8OBBxUHewpKXL2QMXLFSJXR/9VXs2L5DlVFaLJldd71ZJZNihw8fxvKVK+Br80XdOnXUtUtrKvME2RG4SZMmGDt2HMZGRalJP5lz6Nm7F3r37q2YNA9vpr4Iwddmw4MPPaQmnw4d+VWVv+/rr6teQkBgAMo+/oQaPw+OeAvtO3ZSD0AZDsjE1aWLlzBp8iQ1CSYP6TcGDHC/WBIYGIh7772HAuvx8aajeCywZJIxkKz3SiWWpaTSD5R2iydd5d+P/a5mkUuWKqVuuHRhT548eVUhbT429ZQ/sH8/8vr7qzj/9tm/bz8KhxZWkyvStTt/7ryaNJLWu8yjZdRYTj5ScX8/dkxNKvnYbG7RRMgrPxJDzpGHjHRVfz18WI2JSzjjyLHyDSDyjnJaahrKliur3lG+9iMTQfI+tMR76OGH1ay0LG9Jb0E4yNj+YkKCWp6Ssrs+0kJLfCmnl9UL+/fvg39AgHudW17FFNFkOU5iy5tccq3yzvXBAwcUV5ltlmPkQSATWSVKFMc9zjkFySNCCzeZKS5eooTiUq58eRXP9Z62TCxKiy/lLl68OEJDQ9UwSCar4uPP4eFHHr7qu8/k1U95KEi5hLXwkzLxk/MEPBY4q51UcinXHvNPl3fl2qLazuOcQf6nY10rmdnd6ZTV7i/Jkd0dYK7y/NvbUFde65VrsG4OV6y5XnXNV67hOpO4d1ldsePKFeef8l/F2ZK56vxPO8iyszPsumOcy3uua3IxU+vC7v1gOV9xmTGTgMcCEyAJkIB5AhTY/D1gCUjAYwIU2GN0PJEEzBOgwObvAUtAAh4ToMAeo+OJJGCeAAU2fw9YAhLwmAAF9hgdTyQB8wQosPl7wBKQgMcEKLDH6HgiCZgnQIHN3wOWgAQ8JkCBPUbHE0nAPAEKbP4esAQk4DEBS2qK6xvTPI7BE0mABAwRoMCGwDMtCeggQIF1UGQMEjBEgAIbAs+0JKCDAAXWQZExSMAQAQpsCDzTkoAOAhRYB0XGIAFDBCiwIfBMSwI6CFBgHRQZgwQMEaDAhsAzLQnoIECBdVBkDBIwRIACGwLPtCSggwAF1kGRMUjAEAEKbAg805KADgIUWAdFxiABQwQosCHwTEsCOghQYB0UGYMEDBGgwIbAMy0J6CBAgXVQZAwSMESAAhsCz7QkoIMABdZBkTFIwBABCmwIPNOSgA4CFFgHRcYgAUMEKLAh8ExLAjoIUGAdFBmDBAwRoMCGwDMtCeggQIF1UGQMEjBEgAIbAs+0JKCDAAXWQZExSMAQAQpsCDzTkoAOAhRYB0XGIAFDBCiwIfBMSwI6CFBgHRQZgwQMEaDAhsAzLQnoIECBdVBkDBIwRIACGwLPtCSggwAF1kGRMUjAEAEKbAg805KADgIUWAdFxiABQwQosCHwTEsCOghQYB0UGYMEDBGgwIbAMy0J6CBAgXVQZAwSMESAAhsCz7QkoIMABdZBkTFIwBABCmwIPNOSgA4CFFgHRcYgAUMEKLAh8ExLAjoIUGAdFBmDBAwRoMCGwDMtCeggQIF1UGQMEjBEgAIbAs+0JKCDAAXWQZExSMAQAQpsCDzTkoAOAhRYB0XGIAFDBCiwIfBMSwI6CFBgHRQZgwQMEaDAhsAzLQnoIECBdVBkDBIwRIACGwLPtCSggwAF1kGRMUjAEAEKbAg805KADgIUWAdFxiABQwQosCHwTEsCOghQYB0UGYMEDBGgwIbAMy0J6CBAgXVQZAwSMESAAhsCz7QkoIMABdZBkTFIwBABCmwIPNOSgA4CFFgHRcYgAUMEKLAh8ExLAjoIUGAdFBmDBAwRoMCGwDMtCeggQIF1UGQMEjBEgAIbAs+0JKCDAAXWQZExSMAQAQpsCDzTkoAOAhRYB0XGIAFDBCiwIfBMSwI6CFBgHRQZgwQMEaDAhsAzLQnoIECBdVBkDBIwRIACGwLPtCSggwAF1kGRMUjAEAEKbAg805KADgIUWAdFxiABQwQosCHwTEsCOghQYB0UGYMEDBGgwIbAMy0J6CBAgXVQZAwSMESAAhsCz7QkoIMABdZBkTFIwBABCmwIPNOSgA4CFFgHRcYgAUMEKLAh8ExLAjoIUGAdFBmDBAwRoMCGwDMtCeggQIF1UGQMEjBEgAIbAs+0JKCDAAXWQZExSMAQAQpsCDzTkoAOAhRYB0XGIAFDBCiwIfBMSwI6CFBgHRQZgwQMEaDAhsAzLQnoIECBdVBkDBIwRIACGwLPtCSggwAF1kGRMUjAEAEKbAg805KADgIUWAdFxiABQwQosCHwTEsCOghQYB0UGYMEDBGgwIbAMy0J6CBAgXVQZAwSMESAAhsCz7QkoIMABdZBkTFIwBABCmwIPNOSgA4CFFgHRcYgAUMEKLAh8ExLAjoIUGAdFBmDBAwRoMCGwDMtCeggQIF1UGQMEjBEgAIbAs+0JKCDAAXWQZExSMAQAQpsCDzTkoAOAhRYB0XGIAFDBCiwIfBMSwI6CFBgHRQZgwQMEaDAhsAzLQnoIECBdVBkDBIwRIACGwLPtCSggwAF1kGRMUjAEAEKbAg805KADgIUWAdFxiABQwQosCHwTEsCOghQYB0UGYMEDBGgwIbAMy0J6CBAgXVQZAwSMESAAhsCz7QkoIMABdZBkTFIwBABCmwIPNOSgA4CFFgHRcYgAUMEKLAh8ExLAjoIUGAdFBmDBAwRoMCGwDMtCeggQIF1UGQMEjBEgAIbAs+0JKCDAAXWQZExSMAQAQpsCDzTkoAOAhRYB0XGIAFDBCiwIfBMSwI6CFBgHRQZgwQMEaDAhsAzLQnoIECBdVBkDBIwRIACGwLPtCSggwAF1kGRMUjAEAEKbAg805KADgIUWAdFxiABQwQosCHwTEsCOghQYB0UGYMEDBGgwIbAMy0J6CBAgXVQZAwSMESAAhsCz7QkoIMABdZBkTFIwBABCmwIPNOSgA4CFFgHRcYgAUMEKLAh8ExLAjoIUGAdFBmDBAwRoMCGwDMtCeggQIF1UGQMEjBEgAIbAs+0JKCDAAXWQZExSMAQAQpsCDzTkoAOAhRYB0XGIAFDBCzx8fEOQ7mZlgRI4BYJWBwOBwW+RYg8nQRMEaDApsgzLwloIECBNUBkCBIwRYACmyLPvCSggQAF1gCRIUjAFAEKbIo885KABgIUWANEhiABUwTuGIHVWpfDAYvF4mTlkH8i85+un5nCyLwkYIbAHSOw2KokFmOvWbq+LLUZiMxKAqYI3BECZyRdQFrMT0g7/RvSL/yNjAunAYcdXgEh8MpXBD7BpeBz10PwDgo1xZF5ScAIgVwpsNoc5gAyzp/AhW+/ROL+FVnAkbbZAr/7qyCoxivwKVgSsHqrc9g6G6lXTJpDBHKlwPbUS4hdFIHU4/tgT0+FRXWe/32ce/m3DsDqBZ9C9yO48TB4BRWhwDlUkZjGDIFcJbCMcpN/24lzaz9G+rm/YLmFySlr3vwIqtoJ/uXClPxsic1UMGa9vQRylcCJhzYgfvn7cKSl6Llqqxfy1XwVAeXDYfHK7FLzQwL/JQLGBXYtD6WdPYYzMzrBkZ6mla/EL/DsQAQ80UjWobjkpJUug5kmYFxgAZAWfwKnp7aDPTVZe1dXJsSs3jYEN/0QfvdUosCmaxzzayVgXGCHw47YBQORfGS71gu7Nph3oXsR2mGasa60PEhuOA6XdW7nPN2tjP1vK0QGz3UEjAosHdrkX7cgdsEgJ5jbuaPKgcAaryDfU+1y9CZc+X0JcnWqE+/eTeYsilo1c36vggWwiMm3E0WOEmCy20nAqMByYWei+yDl2C5n1/b2fjmI1T8/7uo2D1ab/+1kel3slJifkfr7bvVz35LlYSta5rpjkg5tQHr8CcUh72PPwcs/OEfLyGR3JgGDAjuQkXQeMePD4EhPzZKeqwvqFRSKkGaRSP5tG85v/BTSBc92l9NiReF2k2Er8nCW+XQecHF3NBK+nQ1biceR95F6yFO6auZuUHeTDFz8dhZST/6IpKPbUbjdJNjuekhnEbTGchU95rM27o6CDFEKNnpX+xyG1oJfFSyzsZD7YE+KR+qJA7CVKAurX7476Bqkt2boO7EkbcKu2biwYUK275F3aGmEhA2DV76i6pzEg8sQvyYSyMh65tp5u+D/xAso0ODNHL1JInDKH3thK/4YUo8fgMNigU/I3Qio0Bzxa0cCGRmAFcj7YE2cWxeFkBaRsN2Vsw+ZbN+EKw48MaKKe1JQHoqF2k3JUa6elNl1jqr2FiDlzz2IXfgmHMmXYPULRMEmw+FXotythM7Rc40JLKO+U9M7Iy3m0A0u+PKyjzzhC7eZAKtvYObxzleRUo7vw9l5/eBITXK9mnRDgFabH4r0WQuL1SvHQKeeOoSMhDNI/GENCjwfoXKfje6DAs8PRszklijebz0S9iwC7Gmw+PgjzwPV4OVfMMfKl+1ErhdKnO+UHB9R1d0C+xR5BKHtpzjfM3Fk/vzasX62E93+A109urPzB7gnUOVneR+ojuAmI25/ATRlMCawPSMNp6e0UjuusvrY7v4fQhoPh8Un71VP+MzOgwPpcX/izKwesCeeyyqUmioq2ns5rHny50hr4VrnloLFLR2CAg3fhtXqjdOze6Hg8xE4Nbk5ig3YhITvF6gto/7lm6pryI07x1ydtcQfVsGemoRz60a5hy8ytAmo3BpeeYKQ5+E6ufYarm6BLYj9qh+Sj37rHNI4kKd0NYQ0+TDLepRbDjAmsCMtEX9PagH7xdgbsvAv9yLy1+2fWaHlTULXM9/1SqFzwjbt9BHELn0baWd/z2JM7EBol5nwCbk3R++BFDdhx3RIj0E+sl87oHIrnFsxDLBnqNbKv3wY8pSunqPl8iRZ8tEdiF0yBI7UxKvW1S1+ASjU8hPYQkt7EtbIOUnHvkPc4gg4Ui7B4huA4LD34Xd3RSNl8SSpMYHtKZcQM6lZtlpNa94CKNp7mbuyXDtsdzgy8NdHNa7qWt8IRuEOnxuZJMq4eBZ2VekBi7cvvAKCkXE+BnJ9jvQU9f+5seX9J5bJv3+H2PkD3ROQ1oBgFG47Ed7O+QlPKqOZcxzISIxXD1ZfmcTKc+fcA1WPTE1iSRfs1JSWamz4bx/XCNiSJz+KvbZcCZx87DucnddXnVLsjS2ZUjsycNIlcDZqQejLc+FdoHiOyiLXErdkCJIObVJllgmt4BeGIOaz1shfrz9S//oJ+ev0ydGxeTZQ/eMhrgkgGbqcntoBFm8bQrvMgkic7RUBT5NrPc8BaUiS/9yNjLg/4VWgBPxKVoTVT5YZ74yFeGMCO+wZOCVjYLX2eePPlS1w0rGdiI12CjxwKywWK+z29MstcFbBZAzcd+114+lsnObRIa7egowAYhcPQYFGb8Ni8cKZOb0Q0vRjyAsc6WePweoboNaHfUtVyNEHy81d1PV7yZP/2A1rnnywFXZ2m92H5NJ957JpxuJA0qGNuLB1amb9c65iqIktb5t6uAdV74q8Dzh7dTcHKUePNiawjGbPLnwTyYe3ZnnBOgX2Di6B0C5z1JgzJ56xUimSj2xG2umjanzuIxXdYkXybzsQHDYcF3fOgsXHFw57uhp7Xdw9H/lqdIO3fClBLvu4Wt60kz8695Rd/najyxPOFvgUK5NrW2K5hoxzJxEzqblzIePqB43siJOaIT8t8up8eOcrksvuwtXFMSawAEr65WvELR6aJSCrXxAKtf5EdWtSTh7EudUfKvihnb9QrZW05qendbxhHNeNkSdrUJX2zpuXIwrj4u55SPptJ/zLNEBGYhws3n7wCgyG331VlQgpf3yvxsT2xDjErxiOkJZjcuU6sNru6QD+/qTRdd9L5oZvAYr0XJZjD8gsK8+1BziAtDO/4szc17M8tVDLsfAplLOTnVkW6poDjAoMezr+Hv8S7Jfisyx35lPx8lZLTzpoFi8fhHadA698d+VoNzVhdzTObxivJA2q1gUBFZqp63VNWMl1xS0eolpleSMrtP1nOb5bLMsboA7IfAzKjO2NPlZfGUN6coeyV4pbOUp27qnnUFpSlmEsPn65fk7CmMCZ1QGIXzUcifuWqzdxbnd76B1yN0I7ToeInJMfWZ/OuJg5WWeVL+LLW+C69LIe7kjNFMO7QAlI5bkzP7lT3DuTZdalNiZw5k4YIPWMvMjfOVv7obO+nBscYfVCSPNI+JWqcEtheDIJ5CYCRgV2gUjY+SXOb5p4Wyc+/B6sjpCw4bmJPctCArdMwJjAl0vuUNvyYuQbOc79fcsXdG0Aaellw0Rox2mw+gfn6NhX+8UwIAlcQ8C4wK51UntKAs7MfAXpZ//QepMsNj+1vU+++P1O2eWkFQCD/acJGBf4SrrpCacRO68/0s4cvSXorndt5S83FGoxBj4h99xSPJ5MArmVQK4SWFpjR3oy4pe/h8RfNnvcYorAPkUfRKHmUWqHk3zY+ubWKshy3QqBXCWw60IcGemQLXoXNk1QO5iyXFO8/GcKIV+bk69mD+R58BlYvPNQ3FupHTw31xPInQILNllwt9uRfPQbXPr5a6Sf+hXp8SfVz6/6UyqwwhpUSG1RzPtANeR5pD4s3pnrvDmzWTLX32MW8D9MINcK7Pp7SGrnjHPfsuxSSos9ivTTR+Gw2+EdXBK2wg+o9zhdfyY4szG2QK0zy09v9+6Q/3Dl4KXlfgK5UuDcj40l1Engqq/ezcVfw6PzmnXFosAekDx+/DgmTJiAixcvenA2T7mWgL+/P3r06IHixXP2He3/wp2gwB7cxSeffBI7d+704Eye8m8EKlWqRKYeVA8K7AG0hg0bYsWKFWqczc+tE5A5iwYNGiimXO67OZ4U+OZ4qaMTEhJw4MABpKZm/YX0HoT/f3eKzWbD448/jsBA51cG/78j4PkFU2DP2fFMEjBOgAIbvwUsAAl4ToACe86OZ5KAcQIU2PgtYAFIwHMC/wf8QqSBsLUgzAAAAABJRU5ErkJggg==;" vertex="1" parent="1">
          <mxGeometry x="410" y="40" width="175.38" height="380" as="geometry" />
        </mxCell>
      </root>
    </mxGraphModel>
  </diagram>
</mxfile>
